<?xml version="1.0" encoding="UTF-8" standalone="no"?>
<!-- Created with Inkscape (http://www.inkscape.org/) -->

<svg
   width="297mm"
   height="210mm"
   viewBox="0 0 297 210"
   version="1.1"
   id="svg5"
   sodipodi:docname="coord_u_T.svg"
   inkscape:version="1.1.2 (0a00cf5339, 2022-02-04)"
   xmlns:inkscape="http://www.inkscape.org/namespaces/inkscape"
   xmlns:sodipodi="http://sodipodi.sourceforge.net/DTD/sodipodi-0.dtd"
   xmlns="http://www.w3.org/2000/svg"
   xmlns:svg="http://www.w3.org/2000/svg"
   xmlns:ns1="http://www.iki.fi/pav/software/textext/">
  <sodipodi:namedview
     id="namedview7"
     pagecolor="#505050"
     bordercolor="#eeeeee"
     borderopacity="1"
     inkscape:pageshadow="0"
     inkscape:pageopacity="0"
     inkscape:pagecheckerboard="false"
     inkscape:document-units="mm"
     showgrid="true"
     inkscape:zoom="0.48195146"
     inkscape:cx="504.20015"
     inkscape:cy="439.87832"
     inkscape:window-width="1366"
     inkscape:window-height="720"
     inkscape:window-x="0"
     inkscape:window-y="20"
     inkscape:window-maximized="1"
     inkscape:current-layer="layer1"
     showborder="true"
     units="mm"
     inkscape:showpageshadow="true"
     borderlayer="false">
    <inkscape:grid
       type="xygrid"
       id="grid824" />
  </sodipodi:namedview>
  <defs
     id="defs2">
    <marker
       style="overflow:visible"
       id="TriangleInM"
       refX="0"
       refY="0"
       orient="auto"
       inkscape:stockid="TriangleInM"
       inkscape:isstock="true">
      <path
         transform="scale(-0.4)"
         style="fill:context-stroke;fill-rule:evenodd;stroke:context-stroke;stroke-width:1pt"
         d="M 5.77,0 -2.88,5 V -5 Z"
         id="path997" />
    </marker>
    <marker
       style="overflow:visible"
       id="TriangleOutM"
       refX="0"
       refY="0"
       orient="auto"
       inkscape:stockid="TriangleOutM"
       inkscape:isstock="true">
      <path
         transform="scale(0.4)"
         style="fill:context-stroke;fill-rule:evenodd;stroke:context-stroke;stroke-width:1pt"
         d="M 5.77,0 -2.88,5 V -5 Z"
         id="path1006" />
    </marker>
    <marker
       style="overflow:visible"
       id="Arrow1Mend"
       refX="0"
       refY="0"
       orient="auto"
       inkscape:stockid="Arrow1Mend"
       inkscape:isstock="true">
      <path
         transform="matrix(-0.4,0,0,-0.4,-4,0)"
         style="fill:context-stroke;fill-rule:evenodd;stroke:context-stroke;stroke-width:1pt"
         d="M 0,0 5,-5 -12.5,0 5,5 Z"
         id="path870" />
    </marker>
    <marker
       style="overflow:visible"
       id="Arrow1Mstart"
       refX="0"
       refY="0"
       orient="auto"
       inkscape:stockid="Arrow1Mstart"
       inkscape:isstock="true">
      <path
         transform="matrix(0.4,0,0,0.4,4,0)"
         style="fill:context-stroke;fill-rule:evenodd;stroke:context-stroke;stroke-width:1pt"
         d="M 0,0 5,-5 -12.5,0 5,5 Z"
         id="path867" />
    </marker>
    <marker
       style="overflow:visible"
       id="Arrow1Lstart"
       refX="0"
       refY="0"
       orient="auto"
       inkscape:stockid="Arrow1Lstart"
       inkscape:isstock="true">
      <path
         transform="matrix(0.8,0,0,0.8,10,0)"
         style="fill:context-stroke;fill-rule:evenodd;stroke:context-stroke;stroke-width:1pt"
         d="M 0,0 5,-5 -12.5,0 5,5 Z"
         id="path861" />
    </marker>
    <g
       id="id-e79dfbf8-61a8-42a6-94ad-f105372049d5-7">
      <symbol
         overflow="visible"
         id="id-cbc715cf-4506-4134-b3ba-bdc8652a8b53-5">
        <path
           style="stroke:none;stroke-width:0"
           d=""
           id="id-a927cdc0-ba7a-4c07-95aa-d40bd376dae2-3" />
      </symbol>
      <symbol
         overflow="visible"
         id="id-3465f87e-df7e-4f06-8bac-346874374dbd-5">
        <path
           style="stroke:none;stroke-width:0"
           d="M 3.328125,-3.015625 C 3.390625,-3.265625 3.625,-4.1875 4.3125,-4.1875 c 0.046875,0 0.296875,0 0.5,0.125 C 4.53125,-4 4.34375,-3.765625 4.34375,-3.515625 c 0,0.15625 0.109375,0.34375 0.375,0.34375 0.21875,0 0.53125,-0.171875 0.53125,-0.578125 0,-0.515625 -0.578125,-0.65625 -0.921875,-0.65625 -0.578125,0 -0.921875,0.53125 -1.046875,0.75 -0.25,-0.65625 -0.78125,-0.75 -1.078125,-0.75 -1.03125,0 -1.609375,1.28125 -1.609375,1.53125 0,0.109375 0.109375,0.109375 0.125,0.109375 0.078125,0 0.109375,-0.03125 0.125,-0.109375 0.34375,-1.0625 1,-1.3125 1.34375,-1.3125 0.1875,0 0.53125,0.09375 0.53125,0.671875 0,0.3125 -0.171875,0.96875 -0.53125,2.375 -0.15625,0.609375 -0.515625,1.03125 -0.953125,1.03125 -0.0625,0 -0.28125,0 -0.5,-0.125 0.25,-0.0625 0.46875,-0.265625 0.46875,-0.546875 0,-0.265625 -0.21875,-0.34375 -0.359375,-0.34375 -0.3125,0 -0.546875,0.25 -0.546875,0.578125 0,0.453125 0.484375,0.65625 0.921875,0.65625 0.671875,0 1.03125,-0.703125 1.046875,-0.75 0.125,0.359375 0.484375,0.75 1.078125,0.75 1.03125,0 1.59375,-1.28125 1.59375,-1.53125 0,-0.109375 -0.078125,-0.109375 -0.109375,-0.109375 -0.09375,0 -0.109375,0.046875 -0.140625,0.109375 -0.328125,1.078125 -1,1.3125 -1.3125,1.3125 -0.390625,0 -0.546875,-0.3125 -0.546875,-0.65625 0,-0.21875 0.046875,-0.4375 0.15625,-0.875 z m 0,0"
           id="id-3a5b77d8-9256-4d2b-b428-8a199438a84f-6" />
      </symbol>
    </g>
  </defs>
  <g
     inkscape:label="Layer 1"
     inkscape:groupmode="layer"
     id="layer1">
    <path
       style="opacity:0.983;fill:none;stroke:#5a27b4;stroke-width:1.3965;stroke-linecap:round;stroke-linejoin:round;stroke-miterlimit:4;stroke-dasharray:none;stroke-opacity:1;marker-start:url(#TriangleInM);marker-end:url(#TriangleOutM);paint-order:stroke fill markers"
       d="M 27.604466,13.493252 V 185.737 l 247.562204,-0.52867"
       id="path859"
       sodipodi:nodetypes="ccc" />
    <path
       style="opacity:0.983;fill:none;stroke:#399bb4;stroke-width:1.24421;stroke-linecap:round;stroke-linejoin:round;stroke-miterlimit:4;stroke-dasharray:none;stroke-opacity:1;paint-order:stroke fill markers"
       d="m 42.333333,47.625 c 15.875,47.625 112.256177,126.2507 201.083337,127"
       id="path2236"
       sodipodi:nodetypes="cc" />
    <g
       transform="matrix(1.34745,0,0,1.34745,185.06636,193.46946)"
       ns1:version="1.8.1"
       ns1:texconverter="pdflatex"
       ns1:pdfconverter="inkscape"
       ns1:text="$T, [\\degree \\text{C}]$"
       ns1:preamble="/home/bon/.config/inkscape/extensions/textext/default_packages.tex"
       ns1:scale="3.819553095905195"
       ns1:alignment="middle center"
       ns1:stroke-to-path="0"
       ns1:inkscapeversion="1.1.2"
       ns1:jacobian_sqrt="1.34745"
       id="g5057">
      <defs
         id="id-b6d78d4c-5bf2-459e-9255-34c7ba1241a9">
        <g
           id="id-2eafa616-d97d-46f6-9a84-b8af760dcfa3">
          <symbol
             overflow="visible"
             id="id-d456d945-977a-4ab6-b8b7-3db3a41d5481">
            <path
               style="stroke:none"
               d=""
               id="id-b21cccfa-58d8-47ce-927f-7d84b49e125b" />
          </symbol>
          <symbol
             overflow="visible"
             id="id-280c77e2-908a-4cdf-ba8b-d02abe565e25">
            <path
               style="stroke:none"
               d="M 6.3125,-6.515625 H 1 L 0.59375,-4.96875 0.765625,-4.9375 c 0.53125,-1.078125 0.84375,-1.25 2.375,-1.21875 l -1.4375,5.265625 C 1.546875,-0.375 1.3125,-0.203125 0.640625,-0.15625 V 0 H 3.53125 V -0.15625 C 3.375,-0.171875 3.21875,-0.1875 3.15625,-0.1875 2.765625,-0.21875 2.640625,-0.3125 2.640625,-0.609375 c 0,-0.125 0.03125,-0.25 0.125,-0.59375 l 1.375,-4.953125 H 4.6875 c 0.71875,0 1.046875,0.25 1.046875,0.796875 0,0.140625 -0.015625,0.28125 -0.03125,0.453125 L 5.875,-4.890625 Z m 0,0"
               id="id-c7c9886c-c687-4675-91ea-264d9a35a5d1" />
          </symbol>
          <symbol
             overflow="visible"
             id="id-4b11bf51-e787-451b-b2df-a5ad6daef591">
            <path
               style="stroke:none"
               d=""
               id="id-e5ed251a-8896-4c34-b9c0-8ba00cb2b472" />
          </symbol>
          <symbol
             overflow="visible"
             id="id-e199b56c-212b-4b14-bd85-2f608e26470a">
            <path
               style="stroke:none"
               d="m 2.03125,-0.015625 c 0,-0.65625 -0.25,-1.046875 -0.640625,-1.046875 -0.328125,0 -0.53125,0.25 -0.53125,0.53125 C 0.859375,-0.265625 1.0625,0 1.390625,0 1.5,0 1.640625,-0.046875 1.734375,-0.125 1.765625,-0.15625 1.78125,-0.15625 1.78125,-0.15625 c 0.015625,0 0.015625,0 0.015625,0.140625 0,0.75 -0.34375,1.34375 -0.671875,1.671875 -0.109375,0.109375 -0.109375,0.125 -0.109375,0.15625 0,0.078125 0.046875,0.109375 0.09375,0.109375 0.109375,0 0.921875,-0.765625 0.921875,-1.9375 z m 0,0"
               id="id-6f3a50e8-b73e-44b5-90a6-b64f06fb7c50" />
          </symbol>
          <symbol
             overflow="visible"
             id="id-25ec69f7-a70e-41e2-b090-8a9a1cca7a93">
            <path
               style="stroke:none"
               d=""
               id="id-2fb22186-7bf8-4202-9fb4-a53ddc919116" />
          </symbol>
          <symbol
             overflow="visible"
             id="id-e5c3a22c-70f0-47fc-a3cf-dfa36057ae74">
            <path
               style="stroke:none"
               d="M 2.546875,2.5 V 2.09375 h -0.96875 v -9.171875 h 0.96875 v -0.40625 h -1.375 V 2.5 Z m 0,0"
               id="id-dcb05242-3d48-421c-a0b6-7e36343f73d2" />
          </symbol>
          <symbol
             overflow="visible"
             id="id-d9ef603c-ae8d-46ce-b742-c354a5c13a43">
            <path
               style="stroke:none"
               d="M 1.578125,-7.484375 H 0.21875 v 0.40625 H 1.1875 V 2.09375 H 0.21875 V 2.5 h 1.359375 z m 0,0"
               id="id-0e79f556-9b67-4bd6-a78e-491dc7b27c92" />
          </symbol>
          <symbol
             overflow="visible"
             id="id-040914d2-6f89-497c-ab92-06f4c36e7b81">
            <path
               style="stroke:none"
               d=""
               id="id-0fff1371-38ad-4071-aaa8-714f883decc0" />
          </symbol>
          <symbol
             overflow="visible"
             id="id-9dfa3ec7-7681-49e8-8e13-21732271520e">
            <path
               style="stroke:none"
               d="m 2,-6.734375 c -0.796875,0 -1.4375,0.625 -1.4375,1.421875 0,0.78125 0.640625,1.421875 1.40625,1.421875 0.8125,0 1.453125,-0.609375 1.453125,-1.40625 0,-0.8125 -0.625,-1.4375 -1.421875,-1.4375 z m 0,0.328125 c 0.546875,0 1.03125,0.5 1.03125,1.09375 0,0.59375 -0.46875,1.078125 -1.046875,1.078125 -0.5625,0 -1.03125,-0.484375 -1.03125,-1.078125 0,-0.59375 0.46875,-1.09375 1.046875,-1.09375 z m 0,0"
               id="id-9229d859-30ad-4965-be2e-80f0d1a90602" />
          </symbol>
          <symbol
             overflow="visible"
             id="id-fbbea9b8-3e1c-4097-8225-413b6d9043ff">
            <path
               style="stroke:none"
               d="m 6.1875,-4.484375 -0.09375,-2.25 H 5.875 C 5.828125,-6.53125 5.65625,-6.40625 5.46875,-6.40625 5.375,-6.40625 5.21875,-6.4375 5.078125,-6.5 4.578125,-6.65625 4.09375,-6.734375 3.625,-6.734375 2.796875,-6.734375 1.96875,-6.4375 1.359375,-5.875 0.65625,-5.265625 0.28125,-4.34375 0.28125,-3.234375 c 0,0.921875 0.296875,1.78125 0.8125,2.34375 0.59375,0.65625 1.515625,1.03125 2.5,1.03125 1.125,0 2.109375,-0.453125 2.71875,-1.265625 L 6.125,-1.3125 C 5.390625,-0.59375 4.734375,-0.296875 3.90625,-0.296875 3.28125,-0.296875 2.71875,-0.5 2.296875,-0.875 1.75,-1.359375 1.4375,-2.265625 1.4375,-3.375 c 0,-1.796875 0.921875,-2.96875 2.375,-2.96875 0.5625,0 1.078125,0.21875 1.484375,0.609375 0.3125,0.328125 0.46875,0.59375 0.65625,1.25 z m 0,0"
               id="id-530a63c2-f8fd-43a5-b6a6-85b8bcc37f59" />
          </symbol>
        </g>
      </defs>
      <g
         id="id-143ac37f-b00b-4472-b606-73045fede6ff"
         transform="translate(-149.306,-127.281)">
        <g
           style="fill:#000000;fill-opacity:1"
           id="id-3035b233-ce93-4d6f-b937-78861b940ca8">
          <g
             transform="translate(148.712,134.765)"
             id="g1169">
            <path
               style="stroke:none"
               d="M 6.3125,-6.515625 H 1 L 0.59375,-4.96875 0.765625,-4.9375 c 0.53125,-1.078125 0.84375,-1.25 2.375,-1.21875 l -1.4375,5.265625 C 1.546875,-0.375 1.3125,-0.203125 0.640625,-0.15625 V 0 H 3.53125 V -0.15625 C 3.375,-0.171875 3.21875,-0.1875 3.15625,-0.1875 2.765625,-0.21875 2.640625,-0.3125 2.640625,-0.609375 c 0,-0.125 0.03125,-0.25 0.125,-0.59375 l 1.375,-4.953125 H 4.6875 c 0.71875,0 1.046875,0.25 1.046875,0.796875 0,0.140625 -0.015625,0.28125 -0.03125,0.453125 L 5.875,-4.890625 Z m 0,0"
               id="id-b13a0c59-66d3-4599-bd3e-7ab9a359bc79" />
          </g>
        </g>
        <g
           style="fill:#000000;fill-opacity:1"
           id="id-7096c84e-bc42-4521-8770-d336d48b9a59">
          <g
             transform="translate(154.779,134.765)"
             id="g1173">
            <path
               style="stroke:none"
               d="m 2.03125,-0.015625 c 0,-0.65625 -0.25,-1.046875 -0.640625,-1.046875 -0.328125,0 -0.53125,0.25 -0.53125,0.53125 C 0.859375,-0.265625 1.0625,0 1.390625,0 1.5,0 1.640625,-0.046875 1.734375,-0.125 1.765625,-0.15625 1.78125,-0.15625 1.78125,-0.15625 c 0.015625,0 0.015625,0 0.015625,0.140625 0,0.75 -0.34375,1.34375 -0.671875,1.671875 -0.109375,0.109375 -0.109375,0.125 -0.109375,0.15625 0,0.078125 0.046875,0.109375 0.09375,0.109375 0.109375,0 0.921875,-0.765625 0.921875,-1.9375 z m 0,0"
               id="id-9f2db178-0dfd-4128-93a7-beeb3aebf88a" />
          </g>
        </g>
        <g
           style="fill:#000000;fill-opacity:1"
           id="id-3af1903e-b854-4f39-97a7-90f1cb8e76a1">
          <g
             transform="translate(158.646,134.765)"
             id="g1177">
            <path
               style="stroke:none"
               d="M 2.546875,2.5 V 2.09375 h -0.96875 v -9.171875 h 0.96875 v -0.40625 h -1.375 V 2.5 Z m 0,0"
               id="id-1abf6431-ed6b-4221-b927-bf153fdf7424" />
          </g>
        </g>
        <g
           style="fill:#000000;fill-opacity:1"
           id="id-dcffa872-6a75-4a87-9c62-1a685fb576b3">
          <g
             transform="translate(161.405,134.765)"
             id="g1181">
            <path
               style="stroke:none"
               d="m 2,-6.734375 c -0.796875,0 -1.4375,0.625 -1.4375,1.421875 0,0.78125 0.640625,1.421875 1.40625,1.421875 0.8125,0 1.453125,-0.609375 1.453125,-1.40625 0,-0.8125 -0.625,-1.4375 -1.421875,-1.4375 z m 0,0.328125 c 0.546875,0 1.03125,0.5 1.03125,1.09375 0,0.59375 -0.46875,1.078125 -1.046875,1.078125 -0.5625,0 -1.03125,-0.484375 -1.03125,-1.078125 0,-0.59375 0.46875,-1.09375 1.046875,-1.09375 z m 0,0"
               id="id-0fcbfc57-252b-4a5f-97bd-2858317acdb4" />
          </g>
          <g
             transform="translate(165.39,134.765)"
             id="g1184">
            <path
               style="stroke:none"
               d="m 6.1875,-4.484375 -0.09375,-2.25 H 5.875 C 5.828125,-6.53125 5.65625,-6.40625 5.46875,-6.40625 5.375,-6.40625 5.21875,-6.4375 5.078125,-6.5 4.578125,-6.65625 4.09375,-6.734375 3.625,-6.734375 2.796875,-6.734375 1.96875,-6.4375 1.359375,-5.875 0.65625,-5.265625 0.28125,-4.34375 0.28125,-3.234375 c 0,0.921875 0.296875,1.78125 0.8125,2.34375 0.59375,0.65625 1.515625,1.03125 2.5,1.03125 1.125,0 2.109375,-0.453125 2.71875,-1.265625 L 6.125,-1.3125 C 5.390625,-0.59375 4.734375,-0.296875 3.90625,-0.296875 3.28125,-0.296875 2.71875,-0.5 2.296875,-0.875 1.75,-1.359375 1.4375,-2.265625 1.4375,-3.375 c 0,-1.796875 0.921875,-2.96875 2.375,-2.96875 0.5625,0 1.078125,0.21875 1.484375,0.609375 0.3125,0.328125 0.46875,0.59375 0.65625,1.25 z m 0,0"
               id="id-f831918f-0b90-40be-a14e-16c7b2d682d2" />
          </g>
        </g>
        <g
           style="fill:#000000;fill-opacity:1"
           id="id-9994d489-75b6-4d17-a756-48a54ad6ea35">
          <g
             transform="translate(172.035,134.765)"
             id="g1188">
            <path
               style="stroke:none"
               d="M 1.578125,-7.484375 H 0.21875 v 0.40625 H 1.1875 V 2.09375 H 0.21875 V 2.5 h 1.359375 z m 0,0"
               id="id-46ec6558-7572-4700-a2aa-8c0ce7a87678" />
          </g>
        </g>
      </g>
    </g>
    <g
       transform="matrix(1.34745 0 0 1.34745 267.744 79.0412)"
       ns1:version="1.8.2"
       ns1:texconverter="pdflatex"
       ns1:pdfconverter="inkscape"
       ns1:text="$x$"
       ns1:preamble="/home/bon/.config/inkscape/extensions/textext-1.8.2/textext/default_packages.tex"
       ns1:scale="3.819553095905195"
       ns1:alignment="middle center"
       ns1:stroke-to-path="0"
       ns1:inkscapeversion="1.1.2"
       ns1:jacobian_sqrt="1.34745"
       id="g1830">
      <defs
         id="id-2f526479-627c-4ff7-95cd-f7a8b56f341e">
        <g
           id="id-5da582dd-7508-423f-87bf-47d280011828">
          <symbol
             overflow="visible"
             id="id-7f41b6fe-afa9-4921-998e-2b97230e131c">
            <path
               style="stroke:none;stroke-width:0"
               d=""
               id="id-a8055586-a9ed-4048-8283-26ae7fde2959" />
          </symbol>
          <symbol
             overflow="visible"
             id="id-2aedc607-ac28-480d-8994-40ab281e45ac">
            <path
               style="stroke:none;stroke-width:0"
               d="M 4,-1.109375 C 3.921875,-1.015625 3.875,-0.953125 3.78125,-0.84375 3.5625,-0.53125 3.4375,-0.4375 3.328125,-0.4375 3.1875,-0.4375 3.09375,-0.5625 3.015625,-0.84375 3,-0.921875 2.984375,-0.984375 2.984375,-1.015625 2.734375,-2.03125 2.625,-2.484375 2.625,-2.625 c 0.4375,-0.78125 0.796875,-1.21875 0.96875,-1.21875 0.0625,0 0.140625,0.03125 0.25,0.078125 0.109375,0.078125 0.1875,0.09375 0.265625,0.09375 0.203125,0 0.34375,-0.140625 0.34375,-0.359375 0,-0.203125 -0.171875,-0.359375 -0.40625,-0.359375 -0.4375,0 -0.8125,0.359375 -1.5,1.421875 L 2.4375,-3.515625 c -0.140625,-0.6875 -0.25,-0.875 -0.53125,-0.875 -0.21875,0 -0.546875,0.078125 -1.15625,0.28125 L 0.640625,-4.0625 0.671875,-3.921875 C 1.0625,-4 1.140625,-4.03125 1.234375,-4.03125 c 0.25,0 0.3125,0.09375 0.453125,0.6875 l 0.28125,1.234375 -0.8125,1.15625 C 0.953125,-0.640625 0.75,-0.46875 0.640625,-0.46875 0.59375,-0.46875 0.484375,-0.5 0.390625,-0.5625 0.265625,-0.625 0.15625,-0.65625 0.0625,-0.65625 c -0.1875,0 -0.328125,0.140625 -0.328125,0.34375 0,0.265625 0.203125,0.421875 0.5,0.421875 0.296875,0 0.421875,-0.09375 0.921875,-0.703125 0.265625,-0.3125 0.484375,-0.578125 0.890625,-1.15625 l 0.3125,1.1875 c 0.125,0.515625 0.25,0.671875 0.578125,0.671875 0.375,0 0.625,-0.234375 1.203125,-1.140625 z m 0,0"
               id="id-b35fdad9-e420-4eeb-8785-c8299574e9b1" />
          </symbol>
        </g>
      </defs>
      <g
         id="id-88ba2e28-ec85-4ef4-8bdb-0e20000a9aa2"
         transform="translate(-148.446, -130.374)">
        <g
           style="fill:#000000;fill-opacity:1"
           id="id-da45a57a-87f6-44f1-b084-47d69286a498">
          <g
             transform="translate(148.712, 134.765)"
             id="g1826">
            <path
               style="stroke:none;stroke-width:0"
               d="M 4,-1.109375 C 3.921875,-1.015625 3.875,-0.953125 3.78125,-0.84375 3.5625,-0.53125 3.4375,-0.4375 3.328125,-0.4375 3.1875,-0.4375 3.09375,-0.5625 3.015625,-0.84375 3,-0.921875 2.984375,-0.984375 2.984375,-1.015625 2.734375,-2.03125 2.625,-2.484375 2.625,-2.625 c 0.4375,-0.78125 0.796875,-1.21875 0.96875,-1.21875 0.0625,0 0.140625,0.03125 0.25,0.078125 0.109375,0.078125 0.1875,0.09375 0.265625,0.09375 0.203125,0 0.34375,-0.140625 0.34375,-0.359375 0,-0.203125 -0.171875,-0.359375 -0.40625,-0.359375 -0.4375,0 -0.8125,0.359375 -1.5,1.421875 L 2.4375,-3.515625 c -0.140625,-0.6875 -0.25,-0.875 -0.53125,-0.875 -0.21875,0 -0.546875,0.078125 -1.15625,0.28125 L 0.640625,-4.0625 0.671875,-3.921875 C 1.0625,-4 1.140625,-4.03125 1.234375,-4.03125 c 0.25,0 0.3125,0.09375 0.453125,0.6875 l 0.28125,1.234375 -0.8125,1.15625 C 0.953125,-0.640625 0.75,-0.46875 0.640625,-0.46875 0.59375,-0.46875 0.484375,-0.5 0.390625,-0.5625 0.265625,-0.625 0.15625,-0.65625 0.0625,-0.65625 c -0.1875,0 -0.328125,0.140625 -0.328125,0.34375 0,0.265625 0.203125,0.421875 0.5,0.421875 0.296875,0 0.421875,-0.09375 0.921875,-0.703125 0.265625,-0.3125 0.484375,-0.578125 0.890625,-1.15625 l 0.3125,1.1875 c 0.125,0.515625 0.25,0.671875 0.578125,0.671875 0.375,0 0.625,-0.234375 1.203125,-1.140625 z m 0,0"
               id="id-1d945d03-bddd-4cc6-a3c2-fcb601e11a6a" />
          </g>
        </g>
      </g>
    </g>
    <path
       style="opacity:0.983;fill:none;stroke:#7c27b4;stroke-width:1;stroke-linecap:round;stroke-linejoin:round;paint-order:stroke fill markers"
       d="M 26.458333,158.75 H 37.041666"
       id="path1712" />
    <path
       style="opacity:0.983;fill:none;stroke:#7c27b4;stroke-width:1;stroke-linecap:round;stroke-linejoin:round;paint-order:stroke fill markers"
       d="M 26.458333,132.29166 H 37.041666"
       id="path1714" />
    <path
       style="opacity:0.983;fill:none;stroke:#7c27b4;stroke-width:1;stroke-linecap:round;stroke-linejoin:round;paint-order:stroke fill markers"
       d="M 26.458333,105.83333 H 37.041666"
       id="path1718" />
    <path
       style="opacity:0.983;fill:none;stroke:#7c27b4;stroke-width:1;stroke-linecap:round;stroke-linejoin:round;paint-order:stroke fill markers"
       d="M 26.458333,79.374999 H 37.041666"
       id="path1720" />
    <path
       style="opacity:0.983;fill:none;stroke:#7c27b4;stroke-width:1;stroke-linecap:round;stroke-linejoin:round;paint-order:stroke fill markers"
       d="M 26.458333,52.916666 H 37.041666"
       id="path1835" />
    <path
       style="opacity:0.983;fill:none;stroke:#7c27b4;stroke-width:1;stroke-linecap:round;stroke-linejoin:round;paint-order:stroke fill markers"
       d="M 26.458333,26.458333 H 37.041666"
       id="path1837" />
    <g
       transform="matrix(0,-1.34745,1.34745,0,4.9951435,54.307363)"
       ns1:version="1.8.2"
       ns1:texconverter="pdflatex"
       ns1:pdfconverter="inkscape"
       ns1:text="$u, [\\text{cP}]$"
       ns1:preamble="/home/bon/.config/inkscape/extensions/textext-1.8.2/textext/default_packages.tex"
       ns1:scale="3.819553095905195"
       ns1:alignment="middle center"
       ns1:stroke-to-path="0"
       ns1:inkscapeversion="1.1.2"
       ns1:jacobian_sqrt="1.34745"
       id="g4684">
      <defs
         id="id-47363285-9314-4c6b-a9f3-70daedabb707">
        <g
           id="id-e30b8d81-fb9d-4a06-a527-727ce706d0c4">
          <symbol
             overflow="visible"
             id="id-da11e71f-c197-4637-8c60-5fd2c79654a3">
            <path
               style="stroke:none"
               d=""
               id="id-a5057943-59e3-4183-a930-b34ad2202e95" />
          </symbol>
          <symbol
             overflow="visible"
             id="id-667ae19f-7196-4abc-b311-6f86e572caf8">
            <path
               style="stroke:none"
               d="M 4.59375,-1.171875 C 4.078125,-0.515625 3.921875,-0.375 3.765625,-0.375 c -0.0625,0 -0.109375,-0.0625 -0.109375,-0.171875 0,-0.0625 0,-0.0625 0.1875,-0.78125 L 4.640625,-4.3125 h -0.75 c -0.5625,1.546875 -0.625,1.703125 -1.09375,2.4375 -0.59375,0.953125 -1.078125,1.453125 -1.40625,1.453125 -0.109375,0 -0.203125,-0.09375 -0.203125,-0.25 0,-0.03125 0,-0.0625 0.015625,-0.078125 l 0.90625,-3.625 -0.03125,-0.015625 c -0.578125,0.125 -0.9375,0.1875 -1.5,0.265625 v 0.140625 c 0.375,0 0.40625,0 0.484375,0.0625 C 1.125,-3.90625 1.171875,-3.8125 1.171875,-3.75 c 0,0.078125 -0.046875,0.328125 -0.140625,0.671875 l -0.359375,1.40625 c -0.1875,0.71875 -0.25,1.046875 -0.25,1.234375 0,0.359375 0.171875,0.546875 0.53125,0.546875 0.703125,0 1.234375,-0.53125 2.375,-2.46875 C 3.046875,-1.28125 2.875,-0.59375 2.875,-0.390625 c 0,0.296875 0.1875,0.484375 0.484375,0.484375 0.46875,0 0.703125,-0.203125 1.375,-1.171875 z m 0,0"
               id="id-97d50238-26a3-4b1e-8aef-8c32bf832a39" />
          </symbol>
          <symbol
             overflow="visible"
             id="id-9eda2184-8b68-4461-abaf-c5759d452a33">
            <path
               style="stroke:none"
               d=""
               id="id-f4a96d84-315c-4b25-a4c6-c4dad053acb9" />
          </symbol>
          <symbol
             overflow="visible"
             id="id-543c827e-107e-443d-9fe7-02d258024fc0">
            <path
               style="stroke:none"
               d="m 2.03125,-0.015625 c 0,-0.65625 -0.25,-1.046875 -0.640625,-1.046875 -0.328125,0 -0.53125,0.25 -0.53125,0.53125 C 0.859375,-0.265625 1.0625,0 1.390625,0 1.5,0 1.640625,-0.046875 1.734375,-0.125 1.765625,-0.15625 1.78125,-0.15625 1.78125,-0.15625 c 0.015625,0 0.015625,0 0.015625,0.140625 0,0.75 -0.34375,1.34375 -0.671875,1.671875 -0.109375,0.109375 -0.109375,0.125 -0.109375,0.15625 0,0.078125 0.046875,0.109375 0.09375,0.109375 0.109375,0 0.921875,-0.765625 0.921875,-1.9375 z m 0,0"
               id="id-3fbecc86-8aab-4a67-aad2-b5489dadd9ea" />
          </symbol>
          <symbol
             overflow="visible"
             id="id-fea5aef0-0b08-4055-a74b-8415d7a05973">
            <path
               style="stroke:none"
               d=""
               id="id-99bf3419-a3f6-4395-b50f-c691c299cc8a" />
          </symbol>
          <symbol
             overflow="visible"
             id="id-f6f63fac-1fc2-4bfe-be17-713eecbe5d98">
            <path
               style="stroke:none"
               d="M 2.546875,2.5 V 2.09375 h -0.96875 v -9.171875 h 0.96875 v -0.40625 h -1.375 V 2.5 Z m 0,0"
               id="id-75b7c0ed-de46-4e82-9e42-502b20f6fafc" />
          </symbol>
          <symbol
             overflow="visible"
             id="id-2c881c43-97e4-4a6c-bf44-0dbaa9b66e8f">
            <path
               style="stroke:none"
               d="M 1.578125,-7.484375 H 0.21875 v 0.40625 H 1.1875 V 2.09375 H 0.21875 V 2.5 h 1.359375 z m 0,0"
               id="id-aa1049f1-402f-41f6-8f25-c38e301c94d1" />
          </symbol>
          <symbol
             overflow="visible"
             id="id-8632c67e-9354-4d7a-8f12-45d3e5826c30">
            <path
               style="stroke:none"
               d=""
               id="id-32b3ee2d-521a-4392-b1b0-9a164c98ab57" />
          </symbol>
          <symbol
             overflow="visible"
             id="id-63ba1538-1d92-44f1-98fc-bd26b21d048c">
            <path
               style="stroke:none"
               d="M 3.96875,-1.5625 C 3.484375,-0.859375 3.125,-0.625 2.5625,-0.625 c -0.90625,0 -1.546875,-0.796875 -1.546875,-1.9375 0,-1.03125 0.546875,-1.734375 1.359375,-1.734375 0.359375,0 0.484375,0.109375 0.578125,0.484375 l 0.0625,0.21875 c 0.078125,0.28125 0.265625,0.453125 0.46875,0.453125 0.265625,0 0.484375,-0.1875 0.484375,-0.421875 0,-0.546875 -0.703125,-1.015625 -1.53125,-1.015625 -0.5,0 -1,0.1875 -1.40625,0.546875 -0.5,0.4375 -0.78125,1.125 -0.78125,1.90625 0,1.296875 0.78125,2.21875 1.890625,2.21875 0.453125,0 0.84375,-0.15625 1.203125,-0.46875 0.28125,-0.234375 0.46875,-0.5 0.765625,-1.09375 z m 0,0"
               id="id-0a12ed52-770a-4047-b5a0-19c96e9ad853" />
          </symbol>
          <symbol
             overflow="visible"
             id="id-56c51649-3089-4de0-a237-7a8fbc593966">
            <path
               style="stroke:none"
               d="m 2.015625,-2.90625 c 0.25,0.03125 0.421875,0.03125 0.6875,0.03125 0.78125,0 1.3125,-0.09375 1.75,-0.328125 0.59375,-0.328125 0.953125,-0.9375 0.953125,-1.59375 C 5.40625,-5.21875 5.265625,-5.59375 5,-5.875 4.59375,-6.3125 3.734375,-6.59375 2.796875,-6.59375 H 0.15625 v 0.1875 C 0.890625,-6.328125 1,-6.234375 1,-5.515625 v 4.3125 c 0,0.84375 -0.078125,0.9375 -0.84375,1.015625 V 0 h 2.796875 v -0.1875 c -0.796875,-0.03125 -0.9375,-0.171875 -0.9375,-0.90625 z m 0,-2.984375 c 0,-0.265625 0.0625,-0.34375 0.34375,-0.34375 1.34375,0 1.953125,0.46875 1.953125,1.5 0,0.96875 -0.578125,1.46875 -1.734375,1.46875 -0.203125,0 -0.328125,-0.015625 -0.5625,-0.03125 z m 0,0"
               id="id-c633c08c-8a47-476b-ba10-ffeae8da5376" />
          </symbol>
        </g>
      </defs>
      <g
         id="id-9d123e53-9da3-40d2-af50-d92cd6df09b2"
         transform="translate(-149.134,-127.281)">
        <g
           style="fill:#000000;fill-opacity:1"
           id="id-bb77e792-57eb-4f32-98fb-47a18bd72af2">
          <g
             transform="translate(148.712,134.765)"
             id="g3026">
            <path
               style="stroke:none"
               d="M 4.59375,-1.171875 C 4.078125,-0.515625 3.921875,-0.375 3.765625,-0.375 c -0.0625,0 -0.109375,-0.0625 -0.109375,-0.171875 0,-0.0625 0,-0.0625 0.1875,-0.78125 L 4.640625,-4.3125 h -0.75 c -0.5625,1.546875 -0.625,1.703125 -1.09375,2.4375 -0.59375,0.953125 -1.078125,1.453125 -1.40625,1.453125 -0.109375,0 -0.203125,-0.09375 -0.203125,-0.25 0,-0.03125 0,-0.0625 0.015625,-0.078125 l 0.90625,-3.625 -0.03125,-0.015625 c -0.578125,0.125 -0.9375,0.1875 -1.5,0.265625 v 0.140625 c 0.375,0 0.40625,0 0.484375,0.0625 C 1.125,-3.90625 1.171875,-3.8125 1.171875,-3.75 c 0,0.078125 -0.046875,0.328125 -0.140625,0.671875 l -0.359375,1.40625 c -0.1875,0.71875 -0.25,1.046875 -0.25,1.234375 0,0.359375 0.171875,0.546875 0.53125,0.546875 0.703125,0 1.234375,-0.53125 2.375,-2.46875 C 3.046875,-1.28125 2.875,-0.59375 2.875,-0.390625 c 0,0.296875 0.1875,0.484375 0.484375,0.484375 0.46875,0 0.703125,-0.203125 1.375,-1.171875 z m 0,0"
               id="id-35f1e5ab-959a-4868-9f58-cf4305c339c3" />
          </g>
        </g>
        <g
           style="fill:#000000;fill-opacity:1"
           id="id-a1ff2f00-23c8-4aea-a68a-20af24f2dd53">
          <g
             transform="translate(153.694,134.765)"
             id="g3030">
            <path
               style="stroke:none"
               d="m 2.03125,-0.015625 c 0,-0.65625 -0.25,-1.046875 -0.640625,-1.046875 -0.328125,0 -0.53125,0.25 -0.53125,0.53125 C 0.859375,-0.265625 1.0625,0 1.390625,0 1.5,0 1.640625,-0.046875 1.734375,-0.125 1.765625,-0.15625 1.78125,-0.15625 1.78125,-0.15625 c 0.015625,0 0.015625,0 0.015625,0.140625 0,0.75 -0.34375,1.34375 -0.671875,1.671875 -0.109375,0.109375 -0.109375,0.125 -0.109375,0.15625 0,0.078125 0.046875,0.109375 0.09375,0.109375 0.109375,0 0.921875,-0.765625 0.921875,-1.9375 z m 0,0"
               id="id-499a9967-c99c-4310-a89e-4843a14cfce5" />
          </g>
        </g>
        <g
           style="fill:#000000;fill-opacity:1"
           id="id-c7b4d677-8afd-40df-895c-aad18554db81">
          <g
             transform="translate(157.56,134.765)"
             id="g3034">
            <path
               style="stroke:none"
               d="M 2.546875,2.5 V 2.09375 h -0.96875 v -9.171875 h 0.96875 v -0.40625 h -1.375 V 2.5 Z m 0,0"
               id="id-f61d0b0e-3c6f-4e7b-8e46-8854d60c5ea2" />
          </g>
        </g>
        <g
           style="fill:#000000;fill-opacity:1"
           id="id-10f9bd32-c761-4f9f-be1d-e8e773748a56">
          <g
             transform="translate(160.32,134.765)"
             id="g3038">
            <path
               style="stroke:none"
               d="M 3.96875,-1.5625 C 3.484375,-0.859375 3.125,-0.625 2.5625,-0.625 c -0.90625,0 -1.546875,-0.796875 -1.546875,-1.9375 0,-1.03125 0.546875,-1.734375 1.359375,-1.734375 0.359375,0 0.484375,0.109375 0.578125,0.484375 l 0.0625,0.21875 c 0.078125,0.28125 0.265625,0.453125 0.46875,0.453125 0.265625,0 0.484375,-0.1875 0.484375,-0.421875 0,-0.546875 -0.703125,-1.015625 -1.53125,-1.015625 -0.5,0 -1,0.1875 -1.40625,0.546875 -0.5,0.4375 -0.78125,1.125 -0.78125,1.90625 0,1.296875 0.78125,2.21875 1.890625,2.21875 0.453125,0 0.84375,-0.15625 1.203125,-0.46875 0.28125,-0.234375 0.46875,-0.5 0.765625,-1.09375 z m 0,0"
               id="id-0931ee53-efb8-4d61-8eaf-ffacb6736337" />
          </g>
          <g
             transform="translate(164.743,134.765)"
             id="g3041">
            <path
               style="stroke:none"
               d="m 2.015625,-2.90625 c 0.25,0.03125 0.421875,0.03125 0.6875,0.03125 0.78125,0 1.3125,-0.09375 1.75,-0.328125 0.59375,-0.328125 0.953125,-0.9375 0.953125,-1.59375 C 5.40625,-5.21875 5.265625,-5.59375 5,-5.875 4.59375,-6.3125 3.734375,-6.59375 2.796875,-6.59375 H 0.15625 v 0.1875 C 0.890625,-6.328125 1,-6.234375 1,-5.515625 v 4.3125 c 0,0.84375 -0.078125,0.9375 -0.84375,1.015625 V 0 h 2.796875 v -0.1875 c -0.796875,-0.03125 -0.9375,-0.171875 -0.9375,-0.90625 z m 0,-2.984375 c 0,-0.265625 0.0625,-0.34375 0.34375,-0.34375 1.34375,0 1.953125,0.46875 1.953125,1.5 0,0.96875 -0.578125,1.46875 -1.734375,1.46875 -0.203125,0 -0.328125,-0.015625 -0.5625,-0.03125 z m 0,0"
               id="id-2a3775ea-e1db-426b-8082-f3797a13a6f5" />
          </g>
        </g>
        <g
           style="fill:#000000;fill-opacity:1"
           id="id-7ffa5a0f-dc2f-47e1-a752-2b316637d879">
          <g
             transform="translate(170.282,134.765)"
             id="g3045">
            <path
               style="stroke:none"
               d="M 1.578125,-7.484375 H 0.21875 v 0.40625 H 1.1875 V 2.09375 H 0.21875 V 2.5 h 1.359375 z m 0,0"
               id="id-4d377e8c-1210-403d-9502-027891205099" />
          </g>
        </g>
      </g>
    </g>
  </g>
</svg>
