<?xml version="1.0" encoding="UTF-8" standalone="no"?>
<!DOCTYPE svg PUBLIC "-//W3C//DTD SVG 1.1//EN" "http://www.w3.org/Graphics/SVG/1.1/DTD/svg11.dtd">
<svg id="chart-psychro" class="svg-chart large no-select no-touch" preserveAspectRatio="xMinYMin" style="" xmlns="http://www.w3.org/2000/svg" viewBox="0 0 1139.0 621.0" xmlns:inkscape="http://www.inkscape.org/namespaces/inkscape"><defs><filter id="shadow">    <feGaussianBlur in="SourceAlpha" stdDeviation="6"></feGaussianBlur>
    <feOffset dx="3" dy="3" result="offsetblur"></feOffset>
    <feFlood flood-color="#000" flood-opacity="0.15"></feFlood>
    <feComposite in2="offsetblur" operator="in"></feComposite>
    <feMerge>
        <feMergeNode></feMergeNode>
        <feMergeNode in="SourceGraphic"></feMergeNode>
    </feMerge>
</filter><clipPath id="rectClipPath"><rect fill="black" width="1066" height="563" x="27" y="29"></rect></clipPath><clipPath id="psychroClipPath"><path fill="black" d="M27.0,531.3 L46.4,526.7 L65.8,521.8 L85.3,516.6 L104.7,511.0 L124.1,505.1 L143.5,498.8 L162.9,492.1 L182.3,484.9 L201.8,477.3 L221.2,469.3 L240.6,460.7 L260.0,451.6 L279.4,441.9 L298.8,431.6 L318.3,420.7 L337.7,409.2 L357.1,396.9 L376.5,383.9 L395.9,370.2 L415.3,355.6 L434.8,340.2 L454.2,323.9 L473.6,306.6 L493.0,288.3 L512.4,269.0 L531.8,248.5 L551.3,226.9 L570.7,204.1 L590.1,179.9 L609.5,154.4 L628.9,127.5 L648.3,99.0 L667.8,68.9 L687.2,37.2 L691.6,29.0 L1093.0,29.0 L1093.0,592.0 L27.0,592.0 Z"></path></clipPath><marker id="markerBlueArrow" viewBox="0 0 25 20" stroke-dasharray="10 0" markerWidth="25" markerHeight="20" orient="auto" refX="20" refY="10"><path d="M 5,15 L 20,10 L 5,5" class="line-blue"></path></marker><marker id="markerBlackArrow" viewBox="0 0 25 20" stroke-dasharray="10 0" markerWidth="25" markerHeight="20" orient="auto" refX="20" refY="10"><path d="M 5,15 L 20,10 L 5,5" class="line-marker"></path></marker><marker id="markerSelectedProcessPt" viewBox="0 0 20 20" markerHeight="20" markerWidth="20" refX="10" refY="10"><circle stroke="#00F" stroke-opacity="0.15" stroke-width="2.5" fill="none" cx="10" cy="10" r="5.5"></circle><circle stroke="#00F" stroke-width="1" fill="none" cx="10" cy="10" r="4"></circle></marker><marker id="markerProcessPt" viewBox="0 0 6 6" markerHeight="6" markerWidth="6" refX="3" refY="3"><circle stroke="none" fill="#00F" cx="3" cy="3" r="2"></circle></marker></defs><style type="text/css">/* <![CDATA[ */ .svg-chart { font-family: sans-serif; font-size: 14px; } .svg-chart .fill-white { fill: #FFF; } .svg-chart .stroke-std { stroke-width: 1px; } .svg-chart .stroke-none { stroke: none !important; } .svg-chart .stroke-grid { stroke: #888 !important; stroke-width: 0.5px; stroke-opacity: 0.5; } .svg-chart .stroke-axis { stroke: #666 !important; } .svg-chart .stroke-dashed { stroke-dasharray: 2, 3; } .svg-chart .line-std  { stroke-width: 1px; stroke: #000; fill: none; } .svg-chart .line-grid { stroke-width: 0.5px; stroke-opacity: 0.5; stroke: #888; fill: none; } .svg-chart .line-axis { stroke-width: 1px; stroke: #666; fill: none; } .svg-chart .line-blue { stroke-width: 1px; stroke-linejoin: round; stroke-linecap: round; stroke: #00F; fill: none; } .svg-chart .line-marker { stroke-width: 1.5px; stroke: #000; fill: none; } .svg-chart .line-hilite { stroke-width: 1.5px; stroke: #F00; fill: none; } .svg-chart .text-empty { font-size: 1.25em; font-weight: 600; stroke: none; fill: #ccc; } .svg-chart .text-hilite { font-size: 0.75em; font-weight: 500; stroke: none; } .svg-chart .text-grid { font-size: 0.6em; stroke: none; fill: #888; } .svg-chart .text-axis { font-size: 0.7em; stroke: none; fill: #000; } .svg-chart .text-overlay { text-shadow: 0px 0px 5px #fff; font-size: 9pt; stroke: none; } .svg-chart .text-overlay { text-shadow: 0px 0px 5px #fff; font-size: 9pt; stroke: none; } .svg-chart .hilite text, .svg-chart .text-grid.hilite, .svg-chart .text-axis.hilite, .svg-chart .text-hilite { fill: #F00 !important } .svg-chart .font-overlay { text-shadow: 0px 0px 5px #fff; stroke: none; } .svg-chart .font-xs { font-size: 0.6em !important; } .svg-chart .font-sm { font-size: 0.76em !important; } .svg-chart .font-md { font-size: 0.85em !important; } .svg-chart .font-lg { font-size: 1.0em !important; } .svg-chart .font-xl { font-size: 1.1em !important; } .svg-chart .tooltip { display: none; } /* ]]> */</style><g class="background"><path class="stroke-grid fill-white" style="filter:url(#shadow)" d="M27.0,531.3 L46.4,526.7 L65.8,521.8 L85.3,516.6 L104.7,511.0 L124.1,505.1 L143.5,498.8 L162.9,492.1 L182.3,484.9 L201.8,477.3 L221.2,469.3 L240.6,460.7 L260.0,451.6 L279.4,441.9 L298.8,431.6 L318.3,420.7 L337.7,409.2 L357.1,396.9 L376.5,383.9 L395.9,370.2 L415.3,355.6 L434.8,340.2 L454.2,323.9 L473.6,306.6 L493.0,288.3 L512.4,269.0 L531.8,248.5 L551.3,226.9 L570.7,204.1 L590.1,179.9 L609.5,154.4 L628.9,127.5 L648.3,99.0 L667.8,68.9 L687.2,37.2 L691.6,29.0 L1093.0,29.0 L1093.0,592.0 L27.0,592.0 Z"></path><text text-anchor="start" font-size="0.8500000000000001em" dy="0.84em" x="27" y="2.6666666666666665">Psychrometric Chart</text></g><g class="data" clip-path="none" stroke="none"></g><g class="comfort" clip-path="url(#rectClipPath)"></g><g class="grid"><line class="line-grid" x1="27" y1="592" x2="27" y2="531.2909663292448"></line><line class="line-axis" x1="27" y1="599" x2="27" y2="592"></line><text class="text-grid" text-anchor="middle" x="27" y="599" dy="1.0em">0</text><line class="line-grid" x1="124.0856102003643" y1="592" x2="124.0856102003643" y2="505.105931101887"></line><line class="line-axis" x1="124.0856102003643" y1="599" x2="124.0856102003643" y2="592"></line><text class="text-grid" text-anchor="middle" x="124.0856102003643" y="599" dy="1.0em">5</text><line class="line-grid" x1="221.1712204007286" y1="592" x2="221.1712204007286" y2="469.26518791698174"></line><line class="line-axis" x1="221.1712204007286" y1="599" x2="221.1712204007286" y2="592"></line><text class="text-grid" text-anchor="middle" x="221.1712204007286" y="599" dy="1.0em">10</text><line class="line-grid" x1="318.25683060109293" y1="592" x2="318.25683060109293" y2="420.7281488638707"></line><line class="line-axis" x1="318.25683060109293" y1="599" x2="318.25683060109293" y2="592"></line><text class="text-grid" text-anchor="middle" x="318.25683060109293" y="599" dy="1.0em">15</text><line class="line-grid" x1="415.3424408014572" y1="592" x2="415.3424408014572" y2="355.6196985773147"></line><line class="line-axis" x1="415.3424408014572" y1="599" x2="415.3424408014572" y2="592"></line><text class="text-grid" text-anchor="middle" x="415.3424408014572" y="599" dy="1.0em">20</text><line class="line-grid" x1="512.4280510018216" y1="592" x2="512.4280510018216" y2="268.98093588513694"></line><line class="line-axis" x1="512.4280510018216" y1="599" x2="512.4280510018216" y2="592"></line><text class="text-grid" text-anchor="middle" x="512.4280510018216" y="599" dy="1.0em">25</text><line class="line-grid" x1="609.5136612021859" y1="592" x2="609.5136612021859" y2="154.4274530202747"></line><line class="line-axis" x1="609.5136612021859" y1="599" x2="609.5136612021859" y2="592"></line><text class="text-grid" text-anchor="middle" x="609.5136612021859" y="599" dy="1.0em">30</text><line class="line-grid" x1="706.5992714025501" y1="592" x2="706.5992714025501" y2="29"></line><line class="line-axis" x1="706.5992714025501" y1="599" x2="706.5992714025501" y2="592"></line><text class="text-grid" text-anchor="middle" x="706.5992714025501" y="599" dy="1.0em">35</text><line class="line-grid" x1="803.6848816029144" y1="592" x2="803.6848816029144" y2="29"></line><line class="line-axis" x1="803.6848816029144" y1="599" x2="803.6848816029144" y2="592"></line><text class="text-grid" text-anchor="middle" x="803.6848816029144" y="599" dy="1.0em">40</text><line class="line-grid" x1="900.7704918032788" y1="592" x2="900.7704918032788" y2="29"></line><line class="line-axis" x1="900.7704918032788" y1="599" x2="900.7704918032788" y2="592"></line><text class="text-grid" text-anchor="middle" x="900.7704918032788" y="599" dy="1.0em">45</text><line class="line-grid" x1="997.8561020036431" y1="592" x2="997.8561020036431" y2="29"></line><line class="line-axis" x1="997.8561020036431" y1="599" x2="997.8561020036431" y2="592"></line><text class="text-grid" text-anchor="middle" x="997.8561020036431" y="599" dy="1.0em">50</text><line class="line-grid" x1="1094.9417122040074" y1="592" x2="1094.9417122040074" y2="29"></line><line class="line-axis" x1="1094.9417122040074" y1="599" x2="1094.9417122040074" y2="592"></line><line class="line-grid" x1="27" y1="592" x2="27" y2="531.2909663292448"></line><line class="line-axis" x1="27" y1="592" x2="27" y2="596"></line><line class="line-grid" x1="46.41712204007286" y1="592" x2="46.41712204007286" y2="526.6999080945648"></line><line class="line-axis" x1="46.41712204007286" y1="592" x2="46.41712204007286" y2="596"></line><line class="line-grid" x1="65.83424408014572" y1="592" x2="65.83424408014572" y2="521.8078361394901"></line><line class="line-axis" x1="65.83424408014572" y1="592" x2="65.83424408014572" y2="596"></line><line class="line-grid" x1="85.25136612021859" y1="592" x2="85.25136612021859" y2="516.5908799653928"></line><line class="line-axis" x1="85.25136612021859" y1="592" x2="85.25136612021859" y2="596"></line><line class="line-grid" x1="104.66848816029145" y1="592" x2="104.66848816029145" y2="511.0301824282985"></line><line class="line-axis" x1="104.66848816029145" y1="592" x2="104.66848816029145" y2="596"></line><line class="line-grid" x1="124.0856102003643" y1="592" x2="124.0856102003643" y2="505.105931101887"></line><line class="line-axis" x1="124.0856102003643" y1="592" x2="124.0856102003643" y2="596"></line><line class="line-grid" x1="143.50273224043718" y1="592" x2="143.50273224043718" y2="498.79731334248123"></line><line class="line-axis" x1="143.50273224043718" y1="592" x2="143.50273224043718" y2="596"></line><line class="line-grid" x1="162.91985428051004" y1="592" x2="162.91985428051004" y2="492.0824689004352"></line><line class="line-axis" x1="162.91985428051004" y1="592" x2="162.91985428051004" y2="596"></line><line class="line-grid" x1="182.3369763205829" y1="592" x2="182.3369763205829" y2="484.9384398850102"></line><line class="line-axis" x1="182.3369763205829" y1="592" x2="182.3369763205829" y2="596"></line><line class="line-grid" x1="201.75409836065575" y1="592" x2="201.75409836065575" y2="477.3411178712695"></line><line class="line-axis" x1="201.75409836065575" y1="592" x2="201.75409836065575" y2="596"></line><line class="line-grid" x1="221.1712204007286" y1="592" x2="221.1712204007286" y2="469.26518791698174"></line><line class="line-axis" x1="221.1712204007286" y1="592" x2="221.1712204007286" y2="596"></line><line class="line-grid" x1="240.58834244080148" y1="592" x2="240.58834244080148" y2="460.68406923508195"></line><line class="line-axis" x1="240.58834244080148" y1="592" x2="240.58834244080148" y2="596"></line><line class="line-grid" x1="260.00546448087437" y1="592" x2="260.00546448087437" y2="451.5698522423217"></line><line class="line-axis" x1="260.00546448087437" y1="592" x2="260.00546448087437" y2="596"></line><line class="line-grid" x1="279.4225865209472" y1="592" x2="279.4225865209472" y2="441.89323167745374"></line><line class="line-axis" x1="279.4225865209472" y1="592" x2="279.4225865209472" y2="596"></line><line class="line-grid" x1="298.8397085610201" y1="592" x2="298.8397085610201" y2="431.6234354520775"></line><line class="line-axis" x1="298.8397085610201" y1="592" x2="298.8397085610201" y2="596"></line><line class="line-grid" x1="318.25683060109293" y1="592" x2="318.25683060109293" y2="420.7281488638707"></line><line class="line-axis" x1="318.25683060109293" y1="592" x2="318.25683060109293" y2="596"></line><line class="line-grid" x1="337.6739526411658" y1="592" x2="337.6739526411658" y2="409.1734337651757"></line><line class="line-axis" x1="337.6739526411658" y1="592" x2="337.6739526411658" y2="596"></line><line class="line-grid" x1="357.09107468123864" y1="592" x2="357.09107468123864" y2="396.9236422389545"></line><line class="line-axis" x1="357.09107468123864" y1="592" x2="357.09107468123864" y2="596"></line><line class="line-grid" x1="376.5081967213115" y1="592" x2="376.5081967213115" y2="383.9413242890439"></line><line class="line-axis" x1="376.5081967213115" y1="592" x2="376.5081967213115" y2="596"></line><line class="line-grid" x1="395.92531876138435" y1="592" x2="395.92531876138435" y2="370.18712900139724"></line><line class="line-axis" x1="395.92531876138435" y1="592" x2="395.92531876138435" y2="596"></line><line class="line-grid" x1="415.3424408014572" y1="592" x2="415.3424408014572" y2="355.6196985773147"></line><line class="line-axis" x1="415.3424408014572" y1="592" x2="415.3424408014572" y2="596"></line><line class="line-grid" x1="434.7595628415301" y1="592" x2="434.7595628415301" y2="340.19555457770787"></line><line class="line-axis" x1="434.7595628415301" y1="592" x2="434.7595628415301" y2="596"></line><line class="line-grid" x1="454.17668488160297" y1="592" x2="454.17668488160297" y2="323.86897564844213"></line><line class="line-axis" x1="454.17668488160297" y1="592" x2="454.17668488160297" y2="596"></line><line class="line-grid" x1="473.5938069216758" y1="592" x2="473.5938069216758" y2="306.5918659198331"></line><line class="line-axis" x1="473.5938069216758" y1="592" x2="473.5938069216758" y2="596"></line><line class="line-grid" x1="493.0109289617487" y1="592" x2="493.0109289617487" y2="288.31361318743063"></line><line class="line-axis" x1="493.0109289617487" y1="592" x2="493.0109289617487" y2="596"></line><line class="line-grid" x1="512.4280510018216" y1="592" x2="512.4280510018216" y2="268.98093588513694"></line><line class="line-axis" x1="512.4280510018216" y1="592" x2="512.4280510018216" y2="596"></line><line class="line-grid" x1="531.8451730418944" y1="592" x2="531.8451730418944" y2="248.53771775398582"></line><line class="line-axis" x1="531.8451730418944" y1="592" x2="531.8451730418944" y2="596"></line><line class="line-grid" x1="551.2622950819673" y1="592" x2="551.2622950819673" y2="226.92482898910956"></line><line class="line-axis" x1="551.2622950819673" y1="592" x2="551.2622950819673" y2="596"></line><line class="line-grid" x1="570.6794171220401" y1="592" x2="570.6794171220401" y2="204.07993251170518"></line><line class="line-axis" x1="570.6794171220401" y1="592" x2="570.6794171220401" y2="596"></line><line class="line-grid" x1="590.096539162113" y1="592" x2="590.096539162113" y2="179.9372738599074"></line><line class="line-axis" x1="590.096539162113" y1="592" x2="590.096539162113" y2="596"></line><line class="line-grid" x1="609.5136612021859" y1="592" x2="609.5136612021859" y2="154.4274530202747"></line><line class="line-axis" x1="609.5136612021859" y1="592" x2="609.5136612021859" y2="596"></line><line class="line-grid" x1="628.9307832422587" y1="592" x2="628.9307832422587" y2="127.47717632683646"></line><line class="line-axis" x1="628.9307832422587" y1="592" x2="628.9307832422587" y2="596"></line><line class="line-grid" x1="648.3479052823316" y1="592" x2="648.3479052823316" y2="99.0089863345572"></line><line class="line-axis" x1="648.3479052823316" y1="592" x2="648.3479052823316" y2="596"></line><line class="line-grid" x1="667.7650273224044" y1="592" x2="667.7650273224044" y2="68.94096732433636"></line><line class="line-axis" x1="667.7650273224044" y1="592" x2="667.7650273224044" y2="596"></line><line class="line-grid" x1="687.1821493624773" y1="592" x2="687.1821493624773" y2="37.186423813141815"></line><line class="line-axis" x1="687.1821493624773" y1="592" x2="687.1821493624773" y2="596"></line><line class="line-grid" x1="706.5992714025501" y1="592" x2="706.5992714025501" y2="29"></line><line class="line-axis" x1="706.5992714025501" y1="592" x2="706.5992714025501" y2="596"></line><line class="line-grid" x1="726.016393442623" y1="592" x2="726.016393442623" y2="29"></line><line class="line-axis" x1="726.016393442623" y1="592" x2="726.016393442623" y2="596"></line><line class="line-grid" x1="745.4335154826958" y1="592" x2="745.4335154826958" y2="29"></line><line class="line-axis" x1="745.4335154826958" y1="592" x2="745.4335154826958" y2="596"></line><line class="line-grid" x1="764.8506375227687" y1="592" x2="764.8506375227687" y2="29"></line><line class="line-axis" x1="764.8506375227687" y1="592" x2="764.8506375227687" y2="596"></line><line class="line-grid" x1="784.2677595628415" y1="592" x2="784.2677595628415" y2="29"></line><line class="line-axis" x1="784.2677595628415" y1="592" x2="784.2677595628415" y2="596"></line><line class="line-grid" x1="803.6848816029144" y1="592" x2="803.6848816029144" y2="29"></line><line class="line-axis" x1="803.6848816029144" y1="592" x2="803.6848816029144" y2="596"></line><line class="line-grid" x1="823.1020036429874" y1="592" x2="823.1020036429874" y2="29"></line><line class="line-axis" x1="823.1020036429874" y1="592" x2="823.1020036429874" y2="596"></line><line class="line-grid" x1="842.5191256830602" y1="592" x2="842.5191256830602" y2="29"></line><line class="line-axis" x1="842.5191256830602" y1="592" x2="842.5191256830602" y2="596"></line><line class="line-grid" x1="861.9362477231331" y1="592" x2="861.9362477231331" y2="29"></line><line class="line-axis" x1="861.9362477231331" y1="592" x2="861.9362477231331" y2="596"></line><line class="line-grid" x1="881.3533697632059" y1="592" x2="881.3533697632059" y2="29"></line><line class="line-axis" x1="881.3533697632059" y1="592" x2="881.3533697632059" y2="596"></line><line class="line-grid" x1="900.7704918032788" y1="592" x2="900.7704918032788" y2="29"></line><line class="line-axis" x1="900.7704918032788" y1="592" x2="900.7704918032788" y2="596"></line><line class="line-grid" x1="920.1876138433516" y1="592" x2="920.1876138433516" y2="29"></line><line class="line-axis" x1="920.1876138433516" y1="592" x2="920.1876138433516" y2="596"></line><line class="line-grid" x1="939.6047358834245" y1="592" x2="939.6047358834245" y2="29"></line><line class="line-axis" x1="939.6047358834245" y1="592" x2="939.6047358834245" y2="596"></line><line class="line-grid" x1="959.0218579234974" y1="592" x2="959.0218579234974" y2="29"></line><line class="line-axis" x1="959.0218579234974" y1="592" x2="959.0218579234974" y2="596"></line><line class="line-grid" x1="978.4389799635702" y1="592" x2="978.4389799635702" y2="29"></line><line class="line-axis" x1="978.4389799635702" y1="592" x2="978.4389799635702" y2="596"></line><line class="line-grid" x1="997.8561020036431" y1="592" x2="997.8561020036431" y2="29"></line><line class="line-axis" x1="997.8561020036431" y1="592" x2="997.8561020036431" y2="596"></line><line class="line-grid" x1="1017.2732240437159" y1="592" x2="1017.2732240437159" y2="29"></line><line class="line-axis" x1="1017.2732240437159" y1="592" x2="1017.2732240437159" y2="596"></line><line class="line-grid" x1="1036.6903460837889" y1="592" x2="1036.6903460837889" y2="29"></line><line class="line-axis" x1="1036.6903460837889" y1="592" x2="1036.6903460837889" y2="596"></line><line class="line-grid" x1="1056.1074681238617" y1="592" x2="1056.1074681238617" y2="29"></line><line class="line-axis" x1="1056.1074681238617" y1="592" x2="1056.1074681238617" y2="596"></line><line class="line-grid" x1="1075.5245901639346" y1="592" x2="1075.5245901639346" y2="29"></line><line class="line-axis" x1="1075.5245901639346" y1="592" x2="1075.5245901639346" y2="596"></line><text class="text-axis" text-anchor="middle" x="1093" y="599" dy="1.0em">째C</text><line class="line-grid" x1="27" y1="592" x2="1093" y2="592"></line><line class="line-axis" x1="1100" y1="592" x2="1093" y2="592"></line><text class="text-grid" transform="rotate(90.0, 1102, 592)" text-anchor="middle" x="1102" y="592" dy="-0.25em">0.000</text><line class="line-grid" x1="103.02410938257827" y1="511.57142857142856" x2="1093" y2="511.57142857142856"></line><line class="line-axis" x1="1100" y1="511.57142857142856" x2="1093" y2="511.57142857142856"></line><text class="text-grid" transform="rotate(90.0, 1102, 511.57142857142856)" text-anchor="middle" x="1102" y="511.57142857142856" dy="-0.25em">0.005</text><line class="line-grid" x1="300.2844478085722" y1="431.1428571428571" x2="1093" y2="431.1428571428571"></line><line class="line-axis" x1="1100" y1="431.1428571428571" x2="1093" y2="431.1428571428571"></line><text class="text-grid" transform="rotate(90.0, 1102, 431.1428571428571)" text-anchor="middle" x="1102" y="431.1428571428571" dy="-0.25em">0.010</text><line class="line-grid" x1="421.89584453991654" y1="350.7142857142857" x2="1093" y2="350.7142857142857"></line><line class="line-axis" x1="1100" y1="350.7142857142857" x2="1093" y2="350.7142857142857"></line><text class="text-grid" transform="rotate(90.0, 1102, 350.7142857142857)" text-anchor="middle" x="1102" y="350.7142857142857" dy="-0.25em">0.015</text><line class="line-grid" x1="511.12830764926014" y1="270.2857142857143" x2="1093" y2="270.2857142857143"></line><line class="line-axis" x1="1100" y1="270.2857142857143" x2="1093" y2="270.2857142857143"></line><text class="text-grid" transform="rotate(90.0, 1102, 270.2857142857143)" text-anchor="middle" x="1102" y="270.2857142857143" dy="-0.25em">0.020</text><line class="line-grid" x1="582.0210396417405" y1="189.85714285714286" x2="1093" y2="189.85714285714286"></line><line class="line-axis" x1="1100" y1="189.85714285714286" x2="1093" y2="189.85714285714286"></line><text class="text-grid" transform="rotate(90.0, 1102, 189.85714285714286)" text-anchor="middle" x="1102" y="189.85714285714286" dy="-0.25em">0.025</text><line class="line-grid" x1="640.998313610689" y1="109.42857142857137" x2="1093" y2="109.42857142857137"></line><line class="line-axis" x1="1100" y1="109.42857142857137" x2="1093" y2="109.42857142857137"></line><text class="text-grid" transform="rotate(90.0, 1102, 109.42857142857137)" text-anchor="middle" x="1102" y="109.42857142857137" dy="-0.25em">0.030</text><line class="line-grid" x1="691.5649729338874" y1="29" x2="1093" y2="29"></line><line class="line-axis" x1="1100" y1="29" x2="1093" y2="29"></line><line class="line-grid" x1="735.8542078086435" y1="-51.42857142857143" x2="1093" y2="-51.42857142857143"></line><line class="line-axis" x1="1100" y1="-51.42857142857143" x2="1093" y2="-51.42857142857143"></line><line class="line-grid" x1="775.2658805749372" y1="-131.85714285714286" x2="1093" y2="-131.85714285714286"></line><line class="line-axis" x1="1100" y1="-131.85714285714286" x2="1093" y2="-131.85714285714286"></line><line class="line-grid" x1="810.7707355994378" y1="-212.28571428571416" x2="1093" y2="-212.28571428571416"></line><line class="line-axis" x1="1100" y1="-212.28571428571416" x2="1093" y2="-212.28571428571416"></line><line class="line-grid" x1="843.0710016666105" y1="-292.7142857142856" x2="1093" y2="-292.7142857142856"></line><line class="line-axis" x1="1100" y1="-292.7142857142856" x2="1093" y2="-292.7142857142856"></line><line class="line-grid" x1="872.6919409747456" y1="-373.142857142857" x2="1093" y2="-373.142857142857"></line><line class="line-axis" x1="1100" y1="-373.142857142857" x2="1093" y2="-373.142857142857"></line><line class="line-grid" x1="900.0372549658426" y1="-453.5714285714283" x2="1093" y2="-453.5714285714283"></line><line class="line-axis" x1="1100" y1="-453.5714285714283" x2="1093" y2="-453.5714285714283"></line><line class="line-grid" x1="925.4242689958902" y1="-533.9999999999998" x2="1093" y2="-533.9999999999998"></line><line class="line-axis" x1="1100" y1="-533.9999999999998" x2="1093" y2="-533.9999999999998"></line><line class="line-grid" x1="949.1071776392446" y1="-614.4285714285714" x2="1093" y2="-614.4285714285714"></line><line class="line-axis" x1="1100" y1="-614.4285714285714" x2="1093" y2="-614.4285714285714"></line><line class="line-grid" x1="971.2929195490436" y1="-694.8571428571429" x2="1093" y2="-694.8571428571429"></line><line class="line-axis" x1="1100" y1="-694.8571428571429" x2="1093" y2="-694.8571428571429"></line><line class="line-grid" x1="992.1523286991626" y1="-775.2857142857142" x2="1093" y2="-775.2857142857142"></line><line class="line-axis" x1="1100" y1="-775.2857142857142" x2="1093" y2="-775.2857142857142"></line><line class="line-grid" x1="1011.8281599504446" y1="-855.7142857142859" x2="1093" y2="-855.7142857142859"></line><line class="line-axis" x1="1100" y1="-855.7142857142859" x2="1093" y2="-855.7142857142859"></line><line class="line-grid" x1="1030.4409883684875" y1="-936.1428571428573" x2="1093" y2="-936.1428571428573"></line><line class="line-axis" x1="1100" y1="-936.1428571428573" x2="1093" y2="-936.1428571428573"></line><line class="line-grid" x1="1048.0936268332516" y1="-1016.5714285714287" x2="1093" y2="-1016.5714285714287"></line><line class="line-axis" x1="1100" y1="-1016.5714285714287" x2="1093" y2="-1016.5714285714287"></line><line class="line-grid" x1="1064.8744889147147" y1="-1097.0000000000005" x2="1093" y2="-1097.0000000000005"></line><line class="line-axis" x1="1100" y1="-1097.0000000000005" x2="1093" y2="-1097.0000000000005"></line><line class="line-grid" x1="1080.860186645516" y1="-1177.4285714285718" x2="1093" y2="-1177.4285714285718"></line><line class="line-axis" x1="1100" y1="-1177.4285714285718" x2="1093" y2="-1177.4285714285718"></line><line class="line-grid" x1="1093" y1="-1257.8571428571433" x2="1093" y2="-1257.8571428571433"></line><line class="line-axis" x1="1100" y1="-1257.8571428571433" x2="1093" y2="-1257.8571428571433"></line><line class="line-grid" x1="1093" y1="-1338.285714285715" x2="1093" y2="-1338.285714285715"></line><line class="line-axis" x1="1100" y1="-1338.285714285715" x2="1093" y2="-1338.285714285715"></line><line class="line-grid" x1="1093" y1="-1418.7142857142862" x2="1093" y2="-1418.7142857142862"></line><line class="line-axis" x1="1100" y1="-1418.7142857142862" x2="1093" y2="-1418.7142857142862"></line><line class="line-grid" x1="1093" y1="-1499.1428571428576" x2="1093" y2="-1499.1428571428576"></line><line class="line-axis" x1="1100" y1="-1499.1428571428576" x2="1093" y2="-1499.1428571428576"></line><line class="line-grid" x1="27" y1="592" x2="1093" y2="592"></line><line class="line-axis" x1="1093" y1="592" x2="1097" y2="592"></line><line class="line-grid" x1="27" y1="575.9142857142857" x2="1093" y2="575.9142857142857"></line><line class="line-axis" x1="1093" y1="575.9142857142857" x2="1097" y2="575.9142857142857"></line><line class="line-grid" x1="27" y1="559.8285714285714" x2="1093" y2="559.8285714285714"></line><line class="line-axis" x1="1093" y1="559.8285714285714" x2="1097" y2="559.8285714285714"></line><line class="line-grid" x1="27" y1="543.7428571428571" x2="1093" y2="543.7428571428571"></line><line class="line-axis" x1="1093" y1="543.7428571428571" x2="1097" y2="543.7428571428571"></line><line class="line-grid" x1="42.09574776980223" y1="527.6571428571428" x2="1093" y2="527.6571428571428"></line><line class="line-axis" x1="1093" y1="527.6571428571428" x2="1097" y2="527.6571428571428"></line><line class="line-grid" x1="103.02410938257827" y1="511.57142857142856" x2="1093" y2="511.57142857142856"></line><line class="line-axis" x1="1093" y1="511.57142857142856" x2="1097" y2="511.57142857142856"></line><line class="line-grid" x1="153.69074281192422" y1="495.48571428571427" x2="1093" y2="495.48571428571427"></line><line class="line-axis" x1="1093" y1="495.48571428571427" x2="1097" y2="495.48571428571427"></line><line class="line-grid" x1="197.18702550325156" y1="479.4" x2="1093" y2="479.4"></line><line class="line-axis" x1="1093" y1="479.4" x2="1097" y2="479.4"></line><line class="line-grid" x1="235.37403601159724" y1="463.3142857142857" x2="1093" y2="463.3142857142857"></line><line class="line-axis" x1="1093" y1="463.3142857142857" x2="1097" y2="463.3142857142857"></line><line class="line-grid" x1="269.46216761536516" y1="447.2285714285714" x2="1093" y2="447.2285714285714"></line><line class="line-axis" x1="1093" y1="447.2285714285714" x2="1097" y2="447.2285714285714"></line><line class="line-grid" x1="300.2844478085723" y1="431.1428571428571" x2="1093" y2="431.1428571428571"></line><line class="line-axis" x1="1093" y1="431.1428571428571" x2="1097" y2="431.1428571428571"></line><line class="line-grid" x1="328.4395646502086" y1="415.05714285714276" x2="1093" y2="415.05714285714276"></line><line class="line-axis" x1="1093" y1="415.05714285714276" x2="1097" y2="415.05714285714276"></line><line class="line-grid" x1="354.3727831495837" y1="398.97142857142853" x2="1093" y2="398.97142857142853"></line><line class="line-axis" x1="1093" y1="398.97142857142853" x2="1097" y2="398.97142857142853"></line><line class="line-grid" x1="378.4245943460853" y1="382.8857142857142" x2="1093" y2="382.8857142857142"></line><line class="line-axis" x1="1093" y1="382.8857142857142" x2="1097" y2="382.8857142857142"></line><line class="line-grid" x1="400.86142925767825" y1="366.7999999999999" x2="1093" y2="366.7999999999999"></line><line class="line-axis" x1="1093" y1="366.7999999999999" x2="1097" y2="366.7999999999999"></line><line class="line-grid" x1="421.8958445399167" y1="350.7142857142856" x2="1093" y2="350.7142857142856"></line><line class="line-axis" x1="1093" y1="350.7142857142856" x2="1097" y2="350.7142857142856"></line><line class="line-grid" x1="441.70024262495787" y1="334.6285714285713" x2="1093" y2="334.6285714285713"></line><line class="line-axis" x1="1093" y1="334.6285714285713" x2="1097" y2="334.6285714285713"></line><line class="line-grid" x1="460.41646777009356" y1="318.54285714285703" x2="1093" y2="318.54285714285703"></line><line class="line-axis" x1="1093" y1="318.54285714285703" x2="1097" y2="318.54285714285703"></line><line class="line-grid" x1="478.1626849347364" y1="302.4571428571427" x2="1093" y2="302.4571428571427"></line><line class="line-axis" x1="1093" y1="302.4571428571427" x2="1097" y2="302.4571428571427"></line><line class="line-grid" x1="495.03841764566016" y1="286.3714285714284" x2="1093" y2="286.3714285714284"></line><line class="line-axis" x1="1093" y1="286.3714285714284" x2="1097" y2="286.3714285714284"></line><line class="line-grid" x1="511.1283076492603" y1="270.2857142857141" x2="1093" y2="270.2857142857141"></line><line class="line-axis" x1="1093" y1="270.2857142857141" x2="1097" y2="270.2857142857141"></line><line class="line-grid" x1="526.504967802376" y1="254.19999999999982" x2="1093" y2="254.19999999999982"></line><line class="line-axis" x1="1093" y1="254.19999999999982" x2="1097" y2="254.19999999999982"></line><line class="line-grid" x1="541.2311793052874" y1="238.11428571428547" x2="1093" y2="238.11428571428547"></line><line class="line-axis" x1="1093" y1="238.11428571428547" x2="1097" y2="238.11428571428547"></line><line class="line-grid" x1="555.36160668091" y1="222.02857142857118" x2="1093" y2="222.02857142857118"></line><line class="line-axis" x1="1093" y1="222.02857142857118" x2="1097" y2="222.02857142857118"></line><line class="line-grid" x1="568.9441525552847" y1="205.94285714285692" x2="1093" y2="205.94285714285692"></line><line class="line-axis" x1="1093" y1="205.94285714285692" x2="1097" y2="205.94285714285692"></line><line class="line-grid" x1="582.0210396417405" y1="189.85714285714263" x2="1093" y2="189.85714285714263"></line><line class="line-axis" x1="1093" y1="189.85714285714263" x2="1097" y2="189.85714285714263"></line><line class="line-grid" x1="594.629683499593" y1="173.7714285714283" x2="1093" y2="173.7714285714283"></line><line class="line-axis" x1="1093" y1="173.7714285714283" x2="1097" y2="173.7714285714283"></line><line class="line-grid" x1="606.8034029652205" y1="157.685714285714" x2="1093" y2="157.685714285714"></line><line class="line-axis" x1="1093" y1="157.685714285714" x2="1097" y2="157.685714285714"></line><line class="line-grid" x1="618.5720033047918" y1="141.5999999999997" x2="1093" y2="141.5999999999997"></line><line class="line-axis" x1="1093" y1="141.5999999999997" x2="1097" y2="141.5999999999997"></line><line class="line-grid" x1="629.9622585964372" y1="125.51428571428542" x2="1093" y2="125.51428571428542"></line><line class="line-axis" x1="1093" y1="125.51428571428542" x2="1097" y2="125.51428571428542"></line><line class="line-grid" x1="640.9983136106894" y1="109.42857142857109" x2="1093" y2="109.42857142857109"></line><line class="line-axis" x1="1093" y1="109.42857142857109" x2="1097" y2="109.42857142857109"></line><line class="line-grid" x1="651.702020845276" y1="93.3428571428568" x2="1093" y2="93.3428571428568"></line><line class="line-axis" x1="1093" y1="93.3428571428568" x2="1097" y2="93.3428571428568"></line><line class="line-grid" x1="662.0932249214663" y1="77.25714285714251" x2="1093" y2="77.25714285714251"></line><line class="line-axis" x1="1093" y1="77.25714285714251" x2="1097" y2="77.25714285714251"></line><line class="line-grid" x1="672.1900039434744" y1="61.17142857142823" x2="1093" y2="61.17142857142823"></line><line class="line-axis" x1="1093" y1="61.17142857142823" x2="1097" y2="61.17142857142823"></line><line class="line-grid" x1="682.0088754346388" y1="45.08571428571394" x2="1093" y2="45.08571428571394"></line><line class="line-axis" x1="1093" y1="45.08571428571394" x2="1097" y2="45.08571428571394"></line><text class="text-axis" transform="rotate(90.0, 1102, 29)" text-anchor="middle" x="1102" y="29" dy="-0.2em">kg/kg</text><text fill="slate" transform="rotate(90, 1123, 310.5)" font-size="0.9em" text-anchor="middle" x="1123" y="310.5" dy="0.0em">Absolute Humidity (kg/kg)</text><polyline class="line-axis stroke-dashed" opacity="1" points="27.0,585.9 46.4,585.5 65.8,585.0 85.3,584.5 104.7,583.9 124.1,583.3 143.5,582.7 162.9,582.0 182.3,581.3 201.8,580.5 221.2,579.7 240.6,578.9 260.0,578.0 279.4,577.0 298.8,576.0 318.3,574.9 337.7,573.7 357.1,572.5 376.5,571.2 395.9,569.8 415.3,568.4 434.8,566.8 454.2,565.2 473.6,563.5 493.0,561.6 512.4,559.7 531.8,557.7 551.3,555.5 570.7,553.2 590.1,550.8 609.5,548.2 628.9,545.5 648.3,542.7 667.8,539.7 687.2,536.5 706.6,533.2 726.0,529.6 745.4,525.9 764.9,521.9 784.3,517.8 803.7,513.4 823.1,508.7 842.5,503.8 861.9,498.6 881.4,493.2 900.8,487.4 920.2,481.3 939.6,474.8 959.0,468.0 978.4,460.8 997.9,453.1 1017.3,445.1 1036.7,436.5 1056.1,427.5 1075.5,417.9 1093.0,408.8 " fill="none"></polyline><line class="line-axis" x1="1088" y1="408.77753453532546" x2="1093" y2="408.77753453532546"></line><text class="text-grid" text-anchor="end" opacity="1" x="1086" y="408.77753453532546" dy="0.4em">10%</text><polyline class="line-axis stroke-dashed" opacity="1" points="27.0,579.9 46.4,578.9 65.8,578.0 85.3,576.9 104.7,575.8 124.1,574.6 143.5,573.4 162.9,572.0 182.3,570.6 201.8,569.1 221.2,567.5 240.6,565.7 260.0,563.9 279.4,562.0 298.8,559.9 318.3,557.7 337.7,555.4 357.1,553.0 376.5,550.4 395.9,547.6 415.3,544.7 434.8,541.6 454.2,538.4 473.6,534.9 493.0,531.3 512.4,527.4 531.8,523.3 551.3,519.0 570.7,514.4 590.1,509.6 609.5,504.5 628.9,499.1 648.3,493.4 667.8,487.4 687.2,481.0 706.6,474.3 726.0,467.2 745.4,459.8 764.9,451.9 784.3,443.5 803.7,434.7 823.1,425.4 842.5,415.6 861.9,405.3 881.4,394.3 900.8,382.7 920.2,370.5 939.6,357.6 959.0,344.0 978.4,329.5 997.9,314.3 1017.3,298.1 1036.7,281.0 1056.1,262.9 1075.5,243.8 1093.0,225.6 " fill="none"></polyline><line class="line-axis" x1="1088" y1="225.55506907065094" x2="1093" y2="225.55506907065094"></line><text class="text-grid" text-anchor="end" opacity="1" x="1086" y="225.55506907065094" dy="0.4em">20%</text><polyline class="line-axis stroke-dashed" opacity="1" points="27.0,573.8 46.4,572.4 65.8,570.9 85.3,569.4 104.7,567.7 124.1,565.9 143.5,564.0 162.9,562.0 182.3,559.9 201.8,557.6 221.2,555.2 240.6,552.6 260.0,549.9 279.4,547.0 298.8,543.9 318.3,540.6 337.7,537.2 357.1,533.5 376.5,529.6 395.9,525.5 415.3,521.1 434.8,516.5 454.2,511.6 473.6,506.4 493.0,500.9 512.4,495.1 531.8,489.0 551.3,482.5 570.7,475.6 590.1,468.4 609.5,460.7 628.9,452.6 648.3,444.1 667.8,435.1 687.2,425.6 706.6,415.5 726.0,404.9 745.4,393.7 764.9,381.8 784.3,369.3 803.7,356.1 823.1,342.2 842.5,327.4 861.9,311.9 881.4,295.5 900.8,278.1 920.2,259.8 939.6,240.4 959.0,220.0 978.4,198.3 997.9,175.4 1017.3,151.2 1036.7,125.6 1056.1,98.4 1075.5,69.7 1093.0,42.3 " fill="none"></polyline><line class="line-axis" x1="1088" y1="42.33260360597649" x2="1093" y2="42.33260360597649"></line><text class="text-grid" text-anchor="end" opacity="1" x="1086" y="42.33260360597649" dy="0.4em">30%</text><polyline class="line-axis stroke-dashed" opacity="1" points="27.0,567.7 46.4,565.9 65.8,563.9 85.3,561.8 104.7,559.6 124.1,557.2 143.5,554.7 162.9,552.0 182.3,549.2 201.8,546.1 221.2,542.9 240.6,539.5 260.0,535.8 279.4,532.0 298.8,527.8 318.3,523.5 337.7,518.9 357.1,514.0 376.5,508.8 395.9,503.3 415.3,497.4 434.8,491.3 454.2,484.7 473.6,477.8 493.0,470.5 512.4,462.8 531.8,454.6 551.3,446.0 570.7,436.8 590.1,427.2 609.5,417.0 628.9,406.2 648.3,394.8 667.8,382.8 687.2,370.1 706.6,356.7 726.0,342.5 745.4,327.5 764.9,311.8 784.3,295.1 803.7,277.5 823.1,258.9 842.5,239.3 861.9,218.5 881.4,196.6 900.8,173.5 920.2,149.1 939.6,123.2 959.0,95.9 978.4,67.1 997.9,36.5 1002.4,29.0 " fill="none"></polyline><line class="line-axis" x1="1002.3954369744229" y1="26" x2="1002.3954369744229" y2="29"></line><text class="text-grid" text-anchor="middle" x="1002.3954369744229" y="26" dy="-0.29000000000000004em">40%</text><polyline class="line-axis stroke-dashed" opacity="1" points="27.0,561.6 46.4,559.3 65.8,556.9 85.3,554.3 104.7,551.5 124.1,548.6 143.5,545.4 162.9,542.0 182.3,538.5 201.8,534.7 221.2,530.6 240.6,526.3 260.0,521.8 279.4,516.9 298.8,511.8 318.3,506.4 337.7,500.6 357.1,494.5 376.5,488.0 395.9,481.1 415.3,473.8 434.8,466.1 454.2,457.9 473.6,449.3 493.0,440.2 512.4,430.5 531.8,420.3 551.3,409.5 570.7,398.0 590.1,386.0 609.5,373.2 628.9,359.7 648.3,345.5 667.8,330.5 687.2,314.6 706.6,297.8 726.0,280.1 745.4,261.4 764.9,241.7 784.3,220.8 803.7,198.8 823.1,175.6 842.5,151.1 861.9,125.2 881.4,97.8 900.8,68.9 920.2,38.3 925.8,29.0 " fill="none"></polyline><line class="line-axis" x1="925.796438074173" y1="26" x2="925.796438074173" y2="29"></line><text class="text-grid" text-anchor="middle" x="925.796438074173" y="26" dy="-0.29000000000000004em">50%</text><polyline class="line-axis stroke-dashed" opacity="1" points="27.0,555.6 46.4,552.8 65.8,549.9 85.3,546.8 104.7,543.4 124.1,539.9 143.5,536.1 162.9,532.0 182.3,527.8 201.8,523.2 221.2,518.4 240.6,513.2 260.0,507.7 279.4,501.9 298.8,495.8 318.3,489.2 337.7,482.3 357.1,475.0 376.5,467.2 395.9,458.9 415.3,450.2 434.8,440.9 454.2,431.1 473.6,420.8 493.0,409.8 512.4,398.2 531.8,385.9 551.3,373.0 570.7,359.2 590.1,344.8 609.5,329.5 628.9,313.3 648.3,296.2 667.8,278.2 687.2,259.1 706.6,239.0 726.0,217.7 745.4,195.3 764.9,171.6 784.3,146.6 803.7,120.2 823.1,92.3 842.5,62.9 861.9,31.8 863.6,29.0 " fill="none"></polyline><line class="line-axis" x1="863.5849586391876" y1="26" x2="863.5849586391876" y2="29"></line><text class="text-grid" text-anchor="middle" x="863.5849586391876" y="26" dy="-0.29000000000000004em">60%</text><polyline class="line-axis stroke-dashed" opacity="1" points="27.0,549.5 46.4,546.3 65.8,542.9 85.3,539.2 104.7,535.3 124.1,531.2 143.5,526.8 162.9,522.1 182.3,517.1 201.8,511.7 221.2,506.1 240.6,500.1 260.0,493.7 279.4,486.9 298.8,479.7 318.3,472.1 337.7,464.0 357.1,455.4 376.5,446.4 395.9,436.7 415.3,426.5 434.8,415.7 454.2,404.3 473.6,392.2 493.0,379.4 512.4,365.9 531.8,351.6 551.3,336.4 570.7,320.5 590.1,303.6 609.5,285.7 628.9,266.8 648.3,246.9 667.8,225.9 687.2,203.6 706.6,180.2 726.0,155.4 745.4,129.2 764.9,101.6 784.3,72.4 803.7,41.6 811.2,29.0 " fill="none"></polyline><line class="line-axis" x1="811.1950878886311" y1="26" x2="811.1950878886311" y2="29"></line><text class="text-grid" text-anchor="middle" x="811.1950878886311" y="26" dy="-0.29000000000000004em">70%</text><polyline class="line-axis stroke-dashed" opacity="1" points="27.0,543.4 46.4,539.8 65.8,535.8 85.3,531.7 104.7,527.2 124.1,522.5 143.5,517.4 162.9,512.1 182.3,506.4 201.8,500.3 221.2,493.8 240.6,486.9 260.0,479.7 279.4,471.9 298.8,463.7 318.3,455.0 337.7,445.7 357.1,435.9 376.5,425.6 395.9,414.5 415.3,402.9 434.8,390.6 454.2,377.5 473.6,363.7 493.0,349.1 512.4,333.6 531.8,317.2 551.3,299.9 570.7,281.7 590.1,262.3 609.5,241.9 628.9,220.4 648.3,197.6 667.8,173.6 687.2,148.1 706.6,121.3 726.0,93.0 745.4,63.1 764.9,31.5 766.3,29.0 " fill="none"></polyline><line class="line-axis" x1="766.3092750202721" y1="26" x2="766.3092750202721" y2="29"></line><text class="text-grid" text-anchor="middle" x="766.3092750202721" y="26" dy="-0.29000000000000004em">80%</text><polyline class="line-axis stroke-dashed" opacity="1" points="27.0,537.4 46.4,533.2 65.8,528.8 85.3,524.1 104.7,519.1 124.1,513.8 143.5,508.1 162.9,502.1 182.3,495.6 201.8,488.8 221.2,481.5 240.6,473.8 260.0,465.6 279.4,456.9 298.8,447.7 318.3,437.9 337.7,427.5 357.1,416.4 376.5,404.7 395.9,392.4 415.3,379.3 434.8,365.4 454.2,350.7 473.6,335.1 493.0,318.7 512.4,301.3 531.8,282.9 551.3,263.4 570.7,242.9 590.1,221.1 609.5,198.2 628.9,173.9 648.3,148.3 667.8,121.2 687.2,92.7 706.6,62.5 726.0,30.6 727.0,29.0 " fill="none"></polyline><line class="line-axis" x1="726.9514759348173" y1="26" x2="726.9514759348173" y2="29"></line><text class="text-grid" text-anchor="middle" x="726.9514759348173" y="26" dy="-0.29000000000000004em">90%</text><polyline class="line-axis" opacity="0.6" points="27.0,531.3 46.4,526.7 65.8,521.8 85.3,516.6 104.7,511.0 124.1,505.1 143.5,498.8 162.9,492.1 182.3,484.9 201.8,477.3 221.2,469.3 240.6,460.7 260.0,451.6 279.4,441.9 298.8,431.6 318.3,420.7 337.7,409.2 357.1,396.9 376.5,383.9 395.9,370.2 415.3,355.6 434.8,340.2 454.2,323.9 473.6,306.6 493.0,288.3 512.4,269.0 531.8,248.5 551.3,226.9 570.7,204.1 590.1,179.9 609.5,154.4 628.9,127.5 648.3,99.0 667.8,68.9 687.2,37.2 691.9,29.0 " fill="none"></polyline><line class="line-axis" x1="691.9224735041006" y1="26" x2="691.9224735041006" y2="29"></line><text class="text-grid" text-anchor="middle" x="691.9224735041006" y="26" dy="-0.29000000000000004em">100%</text></g><g class="info opacity-transition"><text class="text-axis" text-anchor="start" x="27" y="29" dy="-0.24285714285714288em">INDICATOR:</text><text class="text-axis" text-anchor="start" x="27" y="41" dy="-0.24285714285714288em">Dry Bulb: 50.00 째C</text><text class="text-axis" text-anchor="start" x="27" y="53" dy="-0.24285714285714288em">Rel Humidity: 6.95%</text><text class="text-axis" text-anchor="start" x="27" y="65" dy="-0.24285714285714288em">Abs Humidity: 0.006 kg/kg</text><text class="text-axis" text-anchor="start" x="27" y="77" dy="-0.24285714285714288em">Vap Pressure: 7.26179 mmHg</text><text class="text-axis" text-anchor="start" x="27" y="89" dy="-0.24285714285714288em" font-weight="normal" style="fill: black;">Air Volume: 0.92428 m3/kg</text><text class="text-axis" text-anchor="start" x="27" y="101" dy="-0.24285714285714288em">Enthalpy: 65.864 kJ/kg</text><text class="text-axis" text-anchor="start" x="27" y="113" dy="-0.24285714285714288em" font-weight="normal" style="fill: black;">Dew Point: 6.50 째C</text><text class="text-axis" text-anchor="start" x="27" y="125" dy="-0.24285714285714288em">Wet Bulb: 22.65 째C</text><text class="text-axis" text-anchor="start" x="27" y="143" dy="-0.24285714285714288em"></text></g><g class="overlay opacity-transition"><line class="line-axis" opacity="1" x1="27" y1="584.9640141355861" x2="47.83203063358943" y2="592"></line><line class="line-axis" opacity="0.4" x1="27" y1="574.8505691972456" x2="77.77575121896041" y2="592"></line><line class="line-axis" opacity="0.4" x1="27" y1="564.4484197811968" x2="108.57426324927891" y2="592"></line><line class="line-axis" opacity="0.4" x1="27" y1="553.7363978506482" x2="140.29024069794315" y2="592"></line><line class="line-axis" opacity="0.4" x1="27" y1="542.6919330995217" x2="172.99050935407254" y2="592"></line><line class="line-axis" opacity="1" x1="27" y1="531.2909663292448" x2="206.7463032950727" y2="592"></line><line class="line-axis" opacity="1" x1="27" y1="531.2909663292448" x2="15.156866125071582" y2="527.2909663292448"></line><text opacity="1" class="text-grid" x="2" y="525.2909663292448" text-anchor="start" dy="0.3em" transform="rotate(18.7, 2.0, 525.3)">0</text><line class="line-axis" opacity="0.4" x1="46.41712204007286" y1="526.6999080945648" x2="239.75655466037273" y2="592"></line><line class="line-axis" opacity="0.4" x1="65.83424408014572" y1="521.8078361394901" x2="273.65804247287883" y2="592"></line><line class="line-axis" opacity="0.4" x1="85.25136612021859" y1="516.5908799653928" x2="308.5214421103184" y2="592"></line><line class="line-axis" opacity="0.4" x1="104.66848816029145" y1="511.0301824282985" x2="344.40258549283953" y2="592"></line><line class="line-axis" opacity="1" x1="124.0856102003643" y1="505.105931101887" x2="381.3601329247659" y2="592"></line><line class="line-axis" opacity="1" x1="124.0856102003643" y1="505.105931101887" x2="112.24247632543589" y2="501.105931101887"></line><text opacity="1" class="text-grid" x="110.24247632543589" y="499.105931101887" text-anchor="end" dy="0.3em" transform="rotate(18.7, 110.2, 499.1)">5</text><line class="line-axis" opacity="0.4" x1="143.50273224043718" y1="498.79731334248123" x2="419.4557061374369" y2="592"></line><line class="line-axis" opacity="0.4" x1="162.91985428051004" y1="492.0824689004352" x2="458.75402859662745" y2="592"></line><line class="line-axis" opacity="0.4" x1="182.3369763205829" y1="484.9384398850102" x2="499.32307364571307" y2="592"></line><line class="line-axis" opacity="0.4" x1="201.75409836065575" y1="477.3411178712695" x2="541.234221110704" y2="592"></line><line class="line-axis" opacity="1" x1="221.1712204007286" y1="469.26518791698174" x2="584.5624230540703" y2="592"></line><line class="line-axis" opacity="1" x1="221.1712204007286" y1="469.26518791698174" x2="209.3280865258002" y2="465.26518791698174"></line><text opacity="1" class="text-grid" x="207.3280865258002" y="463.26518791698174" text-anchor="end" dy="0.3em" transform="rotate(18.7, 207.3, 463.3)">10</text><line class="line-axis" opacity="0.4" x1="240.58834244080148" y1="460.68406923508195" x2="629.3863794307404" y2="592"></line><line class="line-axis" opacity="0.4" x1="260.00546448087437" y1="451.5698522423217" x2="675.7887244734151" y2="592"></line><line class="line-axis" opacity="0.4" x1="279.4225865209472" y1="441.89323167745374" x2="723.856224715142" y2="592"></line><line class="line-axis" opacity="0.4" x1="298.8397085610201" y1="431.6234354520775" x2="773.6799896465562" y2="592"></line><line class="line-axis" opacity="1" x1="318.25683060109293" y1="420.7281488638707" x2="825.3556961040904" y2="592"></line><line class="line-axis" opacity="1" x1="318.25683060109293" y1="420.7281488638707" x2="306.4136967261645" y2="416.7281488638707"></line><text opacity="1" class="text-grid" x="304.4136967261645" y="414.7281488638707" text-anchor="end" dy="0.3em" transform="rotate(18.7, 304.4, 414.7)">15</text><line class="line-axis" opacity="0.4" x1="337.6739526411658" y1="409.1734337651757" x2="878.9838275942889" y2="592"></line><line class="line-axis" opacity="0.4" x1="357.09107468123864" y1="396.9236422389545" x2="934.6699298806119" y2="592"></line><line class="line-axis" opacity="0.4" x1="376.5081967213115" y1="383.9413242890439" x2="992.5248842926042" y2="592"></line><line class="line-axis" opacity="0.4" x1="395.92531876138435" y1="370.18712900139724" x2="1052.6652003660543" y2="592"></line><line class="line-axis" opacity="1" x1="415.3424408014572" y1="355.6196985773147" x2="1093" y2="584.4974825676231"></line><line class="line-axis" opacity="1" x1="415.3424408014572" y1="355.6196985773147" x2="403.4993069265288" y2="351.6196985773147"></line><text opacity="1" class="text-grid" x="401.4993069265288" y="349.6196985773147" text-anchor="end" dy="0.3em" transform="rotate(18.7, 401.5, 349.6)">20</text><line class="line-axis" opacity="0.4" x1="434.7595628415301" y1="340.19555457770787" x2="1093" y2="562.5152358748842"></line><line class="line-axis" opacity="0.4" x1="454.17668488160297" y1="323.86897564844213" x2="1093" y2="539.6305542524865"></line><line class="line-axis" opacity="0.4" x1="473.5938069216758" y1="306.5918659198331" x2="1093" y2="515.7953418307453"></line><line class="line-axis" opacity="0.4" x1="493.0109289617487" y1="288.31361318743063" x2="1093" y2="490.95898640521085"></line><line class="line-axis" opacity="1" x1="512.4280510018216" y1="268.98093588513694" x2="1093" y2="465.06820640978515"></line><line class="line-axis" opacity="1" x1="512.4280510018216" y1="268.98093588513694" x2="500.5849171268932" y2="264.98093588513694"></line><text opacity="1" class="text-grid" x="498.5849171268932" y="262.98093588513694" text-anchor="end" dy="0.3em" transform="rotate(18.7, 498.6, 263.0)">25</text><line class="line-axis" opacity="0.4" x1="531.8451730418944" y1="248.53771775398582" x2="1093" y2="438.06688558550195"></line><line class="line-axis" opacity="0.4" x1="551.2622950819673" y1="226.92482898910956" x2="1093" y2="409.89589412749365"></line><line class="line-axis" opacity="0.4" x1="570.6794171220401" y1="204.07993251170518" x2="1093" y2="380.49289495695723"></line><line class="line-axis" opacity="0.4" x1="590.096539162113" y1="179.9372738599074" x2="1093" y2="349.7921336120274"></line><line class="line-axis" opacity="1" x1="609.5136612021859" y1="154.4274530202747" x2="1093" y2="317.72421007926266"></line><line class="line-axis" opacity="1" x1="609.5136612021859" y1="154.4274530202747" x2="597.6705273272574" y2="150.4274530202747"></line><text opacity="1" class="text-grid" x="595.6705273272574" y="148.4274530202747" text-anchor="end" dy="0.3em" transform="rotate(18.7, 595.7, 148.4)">30</text><line class="line-axis" opacity="0.4" x1="628.9307832422587" y1="127.47717632683646" x2="1093" y2="284.2158306926924"></line><line class="line-axis" opacity="0.4" x1="648.3479052823316" y1="99.0089863345572" x2="1093" y2="249.18953800728104"></line><line class="line-axis" opacity="0.4" x1="667.7650273224044" y1="68.94096732433636" x2="1093" y2="212.56341630392814"></line><line class="line-axis" opacity="0.4" x1="687.1821493624773" y1="37.186423813141815" x2="1093" y2="174.2507700996016"></line><line class="line-axis" opacity="1" x1="781.6446833742058" y1="29" x2="1093" y2="134.15977271351284"></line><line class="line-axis" opacity="0.4" x1="905.8989687418295" y1="29" x2="1093" y2="92.19308157252466"></line><line class="line-axis" opacity="0.4" x1="1036.0125673563216" y1="29" x2="1093" y2="48.24741651846705"></line><text text-anchor="end" class="text-axis" opacity="1" dy="0.60em" x="681.5649729338874" y="29">째C</text><text text-anchor="middle" class="text-axis large" opacity="1" dy="-4.00em" x="469.40421945609995" y="305.939713944483" transform="rotate(-42.2, 469.4, 305.9)">Wet Bulb Temp. (째C)</text></g><g class="process"></g><g class="legend"></g><g class="indicator" transform="translate(997.9, 495.5)" display="inline"><path class="line-hilite" d="M-20,0 L-5,0 M20,0 L5,0 M0,-20 L0,-5 M0,20 L0,5 M-10,-5 L-10,-10 -5,-10 M10,-5 L10,-10 5,-10 M-10,5 L-10,10 -5,10 M10,5 L10,10 5,10 "></path></g><g class="chart-tooltip" display="none" transform="translate(1074.5, 495.48571428571427)" opacity="0"><rect class="tooltip-rect" rx="4px" ry="4px" x="-62.5" y="-47" width="125" height="22"></rect><text class="tooltip" text-anchor="middle" dy="0.4em" x="0" y="-36">50.0째C, 0.0060kg/kg</text></g></svg>