<?xml version="1.0" encoding="UTF-8"?><svg xmlns="http://www.w3.org/2000/svg" xmlns:xlink="http://www.w3.org/1999/xlink" fill-opacity="1" color-rendering="auto" color-interpolation="auto" text-rendering="auto" stroke="black" stroke-linecap="square" width="639" stroke-miterlimit="10" shape-rendering="auto" stroke-opacity="1" fill="black" stroke-dasharray="none" font-weight="normal" stroke-width="1" height="926" font-family="'Dialog'" font-style="normal" stroke-linejoin="miter" font-size="12px" stroke-dashoffset="0" image-rendering="auto">
  <!--Generated by ySVG 2.6-->
  <defs id="genericDefs"/>
  <g>
    <defs id="defs1">
      <linearGradient x1="110.7086" gradientUnits="userSpaceOnUse" x2="317.2086" y1="39.3947" y2="66.3373" id="linearGradient1" spreadMethod="reflect">
        <stop stop-opacity="1" stop-color="rgb(179,179,255)" offset="0%"/>
        <stop stop-opacity="1" stop-color="rgb(179,179,255)" offset="100%"/>
      </linearGradient>
      <linearGradient x1="173.9586" gradientUnits="userSpaceOnUse" x2="253.9586" y1="-12.5" y2="15.5" id="linearGradient2" spreadMethod="reflect">
        <stop stop-opacity="1" stop-color="rgb(255,179,179)" offset="0%"/>
        <stop stop-opacity="1" stop-color="rgb(255,179,179)" offset="100%"/>
      </linearGradient>
      <linearGradient x1="-68.9171" gradientUnits="userSpaceOnUse" x2="113.0563" y1="589.3594" y2="618.7502" id="linearGradient3" spreadMethod="reflect">
        <stop stop-opacity="1" stop-color="rgb(255,217,179)" offset="0%"/>
        <stop stop-opacity="1" stop-color="rgb(255,217,179)" offset="100%"/>
      </linearGradient>
      <linearGradient x1="83.423" gradientUnits="userSpaceOnUse" x2="343.6781" y1="342.7912" y2="369.7337" id="linearGradient4" spreadMethod="reflect">
        <stop stop-opacity="1" stop-color="rgb(255,217,179)" offset="0%"/>
        <stop stop-opacity="1" stop-color="rgb(255,217,179)" offset="100%"/>
      </linearGradient>
      <linearGradient x1="56.0359" gradientUnits="userSpaceOnUse" x2="371.8813" y1="91.3771" y2="116.4806" id="linearGradient5" spreadMethod="reflect">
        <stop stop-opacity="1" stop-color="rgb(255,217,179)" offset="0%"/>
        <stop stop-opacity="1" stop-color="rgb(255,217,179)" offset="100%"/>
      </linearGradient>
      <linearGradient x1="102.9015" gradientUnits="userSpaceOnUse" x2="325.0157" y1="808.1844" y2="831.8627" id="linearGradient6" spreadMethod="reflect">
        <stop stop-opacity="1" stop-color="rgb(255,217,179)" offset="0%"/>
        <stop stop-opacity="1" stop-color="rgb(255,217,179)" offset="100%"/>
      </linearGradient>
      <linearGradient x1="165.4586" gradientUnits="userSpaceOnUse" x2="262.4586" y1="507.6608" y2="555.4488" id="linearGradient7" spreadMethod="reflect">
        <stop stop-opacity="1" stop-color="rgb(232,238,247)" offset="0%"/>
        <stop stop-opacity="1" stop-color="rgb(183,201,227)" offset="100%"/>
      </linearGradient>
      <linearGradient x1="134.4586" gradientUnits="userSpaceOnUse" x2="293.4586" y1="576.5547" y2="631.5547" id="linearGradient8" spreadMethod="reflect">
        <stop stop-opacity="1" stop-color="rgb(179,255,179)" offset="0%"/>
        <stop stop-opacity="1" stop-color="rgb(179,255,179)" offset="100%"/>
      </linearGradient>
      <linearGradient x1="173.9586" gradientUnits="userSpaceOnUse" x2="253.9586" y1="860.2305" y2="882.5178" id="linearGradient9" spreadMethod="reflect">
        <stop stop-opacity="1" stop-color="rgb(255,179,179)" offset="0%"/>
        <stop stop-opacity="1" stop-color="rgb(255,179,179)" offset="100%"/>
      </linearGradient>
      <linearGradient x1="307.6192" gradientUnits="userSpaceOnUse" x2="514.1192" y1="516.5547" y2="546.5547" id="linearGradient10" spreadMethod="reflect">
        <stop stop-opacity="1" stop-color="rgb(255,217,179)" offset="0%"/>
        <stop stop-opacity="1" stop-color="rgb(255,217,179)" offset="100%"/>
      </linearGradient>
      <linearGradient x1="117.4417" gradientUnits="userSpaceOnUse" x2="310.4755" y1="391.5343" y2="416.6378" id="linearGradient11" spreadMethod="reflect">
        <stop stop-opacity="1" stop-color="rgb(255,217,179)" offset="0%"/>
        <stop stop-opacity="1" stop-color="rgb(255,217,179)" offset="100%"/>
      </linearGradient>
      <linearGradient x1="134.4586" gradientUnits="userSpaceOnUse" x2="293.4586" y1="666.0034" y2="721.0034" id="linearGradient12" spreadMethod="reflect">
        <stop stop-opacity="1" stop-color="rgb(179,255,179)" offset="0%"/>
        <stop stop-opacity="1" stop-color="rgb(179,255,179)" offset="100%"/>
      </linearGradient>
      <linearGradient x1="134.4586" gradientUnits="userSpaceOnUse" x2="293.4586" y1="231.3966" y2="286.3966" id="linearGradient13" spreadMethod="reflect">
        <stop stop-opacity="1" stop-color="rgb(179,255,179)" offset="0%"/>
        <stop stop-opacity="1" stop-color="rgb(179,255,179)" offset="100%"/>
      </linearGradient>
      <linearGradient x1="134.4586" gradientUnits="userSpaceOnUse" x2="293.4586" y1="141.5205" y2="196.5205" id="linearGradient14" spreadMethod="reflect">
        <stop stop-opacity="1" stop-color="rgb(179,255,179)" offset="0%"/>
        <stop stop-opacity="1" stop-color="rgb(179,255,179)" offset="100%"/>
      </linearGradient>
      <linearGradient x1="293.4586" gradientUnits="userSpaceOnUse" x2="539.566" y1="282.7912" y2="312.7912" id="linearGradient15" spreadMethod="reflect">
        <stop stop-opacity="1" stop-color="rgb(255,217,179)" offset="0%"/>
        <stop stop-opacity="1" stop-color="rgb(255,217,179)" offset="100%"/>
      </linearGradient>
      <linearGradient x1="110.7086" gradientUnits="userSpaceOnUse" x2="317.2086" y1="446.6378" y2="472.7642" id="linearGradient16" spreadMethod="reflect">
        <stop stop-opacity="1" stop-color="rgb(179,179,255)" offset="0%"/>
        <stop stop-opacity="1" stop-color="rgb(179,179,255)" offset="100%"/>
      </linearGradient>
      <linearGradient x1="90.785" gradientUnits="userSpaceOnUse" x2="337.1323" y1="765.84" y2="789.5182" id="linearGradient17" spreadMethod="reflect">
        <stop stop-opacity="1" stop-color="rgb(255,217,179)" offset="0%"/>
        <stop stop-opacity="1" stop-color="rgb(255,217,179)" offset="100%"/>
      </linearGradient>
      <clipPath clipPathUnits="userSpaceOnUse" id="clipPath1">
        <path d="M0 0 L639 0 L639 926 L0 926 L0 0 Z"/>
      </clipPath>
      <clipPath clipPathUnits="userSpaceOnUse" id="clipPath2">
        <path d="M-84 -28 L555 -28 L555 898 L-84 898 L-84 -28 Z"/>
      </clipPath>
    </defs>
    <g fill="white" text-rendering="geometricPrecision" shape-rendering="geometricPrecision" transform="translate(84,28)" stroke="white">
      <rect x="-84" width="639" height="926" y="-28" clip-path="url(#clipPath2)" stroke="none"/>
    </g>
    <g fill="url(#linearGradient1)" text-rendering="geometricPrecision" shape-rendering="geometricPrecision" transform="matrix(1,0,0,1,84,28)" stroke="url(#linearGradient1)">
      <path d="M117.579 39.3947 L317.2086 39.3947 L310.3383 66.3373 L110.7086 66.3373 Z" stroke="none" clip-path="url(#clipPath2)"/>
    </g>
    <g text-rendering="geometricPrecision" stroke-miterlimit="1.45" shape-rendering="geometricPrecision" transform="matrix(1,0,0,1,84,28)" stroke-linecap="butt">
      <path fill="none" d="M117.579 39.3947 L317.2086 39.3947 L310.3383 66.3373 L110.7086 66.3373 Z" clip-path="url(#clipPath2)"/>
      <text x="156.2643" xml:space="preserve" y="57.5799" clip-path="url(#clipPath2)" font-family="sans-serif" stroke="none">Disposición de clases</text>
    </g>
    <g fill="url(#linearGradient2)" text-rendering="geometricPrecision" shape-rendering="geometricPrecision" transform="matrix(1,0,0,1,84,28)" stroke="url(#linearGradient2)">
      <rect x="173.9586" y="-12.5" clip-path="url(#clipPath2)" width="80" rx="14" ry="14" height="28" stroke="none"/>
    </g>
    <g text-rendering="geometricPrecision" stroke-miterlimit="1.45" shape-rendering="geometricPrecision" transform="matrix(1,0,0,1,84,28)" stroke-linecap="butt">
      <rect x="173.9586" y="-12.5" clip-path="url(#clipPath2)" fill="none" width="80" rx="14" ry="14" height="28"/>
      <text x="199.9518" xml:space="preserve" y="6.2139" clip-path="url(#clipPath2)" font-family="sans-serif" stroke="none">Inicio</text>
    </g>
    <g fill="url(#linearGradient3)" text-rendering="geometricPrecision" shape-rendering="geometricPrecision" transform="matrix(1,0,0,1,84,28)" stroke="url(#linearGradient3)">
      <path d="M-68.9171 589.3594 L113.0563 589.3594 L113.0563 618.7502 L-68.9171 618.7502 Z" stroke="none" clip-path="url(#clipPath2)"/>
    </g>
    <g text-rendering="geometricPrecision" stroke-miterlimit="1.45" shape-rendering="geometricPrecision" transform="matrix(1,0,0,1,84,28)" stroke-linecap="butt">
      <path fill="none" d="M-68.9171 589.3594 L113.0563 589.3594 L113.0563 618.7502 L-68.9171 618.7502 Z" clip-path="url(#clipPath2)"/>
      <text x="-49.3005" xml:space="preserve" y="601.418" clip-path="url(#clipPath2)" font-family="sans-serif" stroke="none">Modificaciones y adiciones</text>
      <text x="-27.9694" xml:space="preserve" y="616.1192" clip-path="url(#clipPath2)" font-family="sans-serif" stroke="none">de funcionalidades</text>
    </g>
    <g fill="url(#linearGradient4)" text-rendering="geometricPrecision" shape-rendering="geometricPrecision" transform="matrix(1,0,0,1,84,28)" stroke="url(#linearGradient4)">
      <path d="M83.423 342.7912 L343.6781 342.7912 L343.6781 369.7337 L83.423 369.7337 Z" stroke="none" clip-path="url(#clipPath2)"/>
    </g>
    <g text-rendering="geometricPrecision" stroke-miterlimit="1.45" shape-rendering="geometricPrecision" transform="matrix(1,0,0,1,84,28)" stroke-linecap="butt">
      <path fill="none" d="M83.423 342.7912 L343.6781 342.7912 L343.6781 369.7337 L83.423 369.7337 Z" clip-path="url(#clipPath2)"/>
      <text x="132.1785" xml:space="preserve" y="360.9763" clip-path="url(#clipPath2)" font-family="sans-serif" stroke="none">Integrar las clases e interfaces</text>
    </g>
    <g fill="url(#linearGradient5)" text-rendering="geometricPrecision" shape-rendering="geometricPrecision" transform="matrix(1,0,0,1,84,28)" stroke="url(#linearGradient5)">
      <path d="M56.0359 91.3771 L371.8813 91.3771 L371.8813 116.4806 L56.0359 116.4806 Z" stroke="none" clip-path="url(#clipPath2)"/>
    </g>
    <g text-rendering="geometricPrecision" stroke-miterlimit="1.45" shape-rendering="geometricPrecision" transform="matrix(1,0,0,1,84,28)" stroke-linecap="butt">
      <path fill="none" d="M56.0359 91.3771 L371.8813 91.3771 L371.8813 116.4806 L56.0359 116.4806 Z" clip-path="url(#clipPath2)"/>
      <text x="79.8727" xml:space="preserve" y="108.6427" clip-path="url(#clipPath2)" font-family="sans-serif" stroke="none">Búsqueda de bibliotecas de visualización externas</text>
    </g>
    <g fill="url(#linearGradient6)" text-rendering="geometricPrecision" shape-rendering="geometricPrecision" transform="matrix(1,0,0,1,84,28)" stroke="url(#linearGradient6)">
      <path d="M102.9015 808.1844 L325.0157 808.1844 L325.0157 831.8627 L102.9015 831.8627 Z" stroke="none" clip-path="url(#clipPath2)"/>
    </g>
    <g text-rendering="geometricPrecision" stroke-miterlimit="1.45" shape-rendering="geometricPrecision" transform="matrix(1,0,0,1,84,28)" stroke-linecap="butt">
      <path fill="none" d="M102.9015 808.1844 L325.0157 808.1844 L325.0157 831.8627 L102.9015 831.8627 Z" clip-path="url(#clipPath2)"/>
      <text x="120.235" xml:space="preserve" y="824.7374" clip-path="url(#clipPath2)" font-family="sans-serif" stroke="none">Publicar en la tienda oficial Android</text>
    </g>
    <g fill="url(#linearGradient7)" text-rendering="geometricPrecision" shape-rendering="geometricPrecision" transform="matrix(1,0,0,1,84,28)" stroke="url(#linearGradient7)">
      <path d="M165.4586 507.6608 L262.4586 507.6608 L262.4586 549.4753 Q238.2086 537.5283 213.9586 549.4753 Q189.7086 561.4223 165.4586 549.4753 Z" stroke="none" clip-path="url(#clipPath2)"/>
    </g>
    <g text-rendering="geometricPrecision" stroke-miterlimit="1.45" shape-rendering="geometricPrecision" transform="matrix(1,0,0,1,84,28)" stroke-linecap="butt">
      <path fill="none" d="M165.4586 507.6608 L262.4586 507.6608 L262.4586 549.4753 Q238.2086 537.5283 213.9586 549.4753 Q189.7086 561.4223 165.4586 549.4753 Z" clip-path="url(#clipPath2)"/>
      <text x="187.9489" xml:space="preserve" y="528.918" clip-path="url(#clipPath2)" font-family="sans-serif" stroke="none">Visualizar</text>
      <text x="189.276" xml:space="preserve" y="543.6192" clip-path="url(#clipPath2)" font-family="sans-serif" stroke="none">resultado</text>
    </g>
    <g fill="url(#linearGradient8)" text-rendering="geometricPrecision" shape-rendering="geometricPrecision" transform="matrix(1,0,0,1,84,28)" stroke="url(#linearGradient8)">
      <path d="M213.9586 576.5547 L293.4586 604.0547 L213.9586 631.5547 L134.4586 604.0547 Z" stroke="none" clip-path="url(#clipPath2)"/>
    </g>
    <g text-rendering="geometricPrecision" stroke-miterlimit="1.45" shape-rendering="geometricPrecision" transform="matrix(1,0,0,1,84,28)" stroke-linecap="butt">
      <path fill="none" d="M213.9586 576.5547 L293.4586 604.0547 L213.9586 631.5547 L134.4586 604.0547 Z" clip-path="url(#clipPath2)"/>
      <text x="180.6158" xml:space="preserve" y="594.0674" clip-path="url(#clipPath2)" font-family="sans-serif" stroke="none">¿Muestra el </text>
      <text x="187.609" xml:space="preserve" y="608.7686" clip-path="url(#clipPath2)" font-family="sans-serif" stroke="none">resultado </text>
      <text x="185.6022" xml:space="preserve" y="623.4698" clip-path="url(#clipPath2)" font-family="sans-serif" stroke="none">esperado?</text>
    </g>
    <g fill="url(#linearGradient9)" text-rendering="geometricPrecision" shape-rendering="geometricPrecision" transform="matrix(1,0,0,1,84,28)" stroke="url(#linearGradient9)">
      <rect x="173.9586" y="860.2305" clip-path="url(#clipPath2)" width="80" rx="11.1437" ry="11.1437" height="22.2874" stroke="none"/>
    </g>
    <g text-rendering="geometricPrecision" stroke-miterlimit="1.45" shape-rendering="geometricPrecision" transform="matrix(1,0,0,1,84,28)" stroke-linecap="butt">
      <rect x="173.9586" y="860.2305" clip-path="url(#clipPath2)" fill="none" width="80" rx="11.1437" ry="11.1437" height="22.2874"/>
      <text x="205.6237" xml:space="preserve" y="876.088" clip-path="url(#clipPath2)" font-family="sans-serif" stroke="none">Fin</text>
    </g>
    <g fill="url(#linearGradient10)" text-rendering="geometricPrecision" shape-rendering="geometricPrecision" transform="matrix(1,0,0,1,84,28)" stroke="url(#linearGradient10)">
      <path d="M307.6192 516.5547 L514.1192 516.5547 L514.1192 546.5547 L307.6192 546.5547 Z" stroke="none" clip-path="url(#clipPath2)"/>
    </g>
    <g text-rendering="geometricPrecision" stroke-miterlimit="1.45" shape-rendering="geometricPrecision" transform="matrix(1,0,0,1,84,28)" stroke-linecap="butt">
      <path fill="none" d="M307.6192 516.5547 L514.1192 516.5547 L514.1192 546.5547 L307.6192 546.5547 Z" clip-path="url(#clipPath2)"/>
      <text x="347.5088" xml:space="preserve" y="536.2686" clip-path="url(#clipPath2)" font-family="sans-serif" stroke="none">Realizar modificaciones</text>
    </g>
    <g fill="url(#linearGradient11)" text-rendering="geometricPrecision" shape-rendering="geometricPrecision" transform="matrix(1,0,0,1,84,28)" stroke="url(#linearGradient11)">
      <path d="M117.4417 391.5343 L310.4755 391.5343 L310.4755 416.6378 L117.4417 416.6378 Z" stroke="none" clip-path="url(#clipPath2)"/>
    </g>
    <g text-rendering="geometricPrecision" stroke-miterlimit="1.45" shape-rendering="geometricPrecision" transform="matrix(1,0,0,1,84,28)" stroke-linecap="butt">
      <path fill="none" d="M117.4417 391.5343 L310.4755 391.5343 L310.4755 416.6378 L117.4417 416.6378 Z" clip-path="url(#clipPath2)"/>
      <text x="133.2574" xml:space="preserve" y="408.7999" clip-path="url(#clipPath2)" font-family="sans-serif" stroke="none">Compilar y ejecutar Aplicación</text>
    </g>
    <g fill="url(#linearGradient12)" text-rendering="geometricPrecision" shape-rendering="geometricPrecision" transform="matrix(1,0,0,1,84,28)" stroke="url(#linearGradient12)">
      <path d="M213.9586 666.0034 L293.4586 693.5034 L213.9586 721.0034 L134.4586 693.5034 Z" stroke="none" clip-path="url(#clipPath2)"/>
    </g>
    <g text-rendering="geometricPrecision" stroke-miterlimit="1.45" shape-rendering="geometricPrecision" transform="matrix(1,0,0,1,84,28)" stroke-linecap="butt">
      <path fill="none" d="M213.9586 666.0034 L293.4586 693.5034 L213.9586 721.0034 L134.4586 693.5034 Z" clip-path="url(#clipPath2)"/>
      <text x="189.6188" xml:space="preserve" y="683.5161" clip-path="url(#clipPath2)" font-family="sans-serif" stroke="none">¿Cumple</text>
      <text x="169.6002" xml:space="preserve" y="698.2172" clip-path="url(#clipPath2)" font-family="sans-serif" stroke="none">con los objetivos</text>
      <text x="177.2672" xml:space="preserve" y="712.9184" clip-path="url(#clipPath2)" font-family="sans-serif" stroke="none">establecidos?</text>
    </g>
    <g fill="url(#linearGradient13)" text-rendering="geometricPrecision" shape-rendering="geometricPrecision" transform="matrix(1,0,0,1,84,28)" stroke="url(#linearGradient13)">
      <path d="M213.9586 231.3966 L293.4586 258.8966 L213.9586 286.3966 L134.4586 258.8966 Z" stroke="none" clip-path="url(#clipPath2)"/>
    </g>
    <g text-rendering="geometricPrecision" stroke-miterlimit="1.45" shape-rendering="geometricPrecision" transform="matrix(1,0,0,1,84,28)" stroke-linecap="butt">
      <path fill="none" d="M213.9586 231.3966 L293.4586 258.8966 L213.9586 286.3966 L134.4586 258.8966 Z" clip-path="url(#clipPath2)"/>
      <text x="178.275" xml:space="preserve" y="256.2599" clip-path="url(#clipPath2)" font-family="sans-serif" stroke="none">Satisface las </text>
      <text x="178.9342" xml:space="preserve" y="270.9611" clip-path="url(#clipPath2)" font-family="sans-serif" stroke="none">condiciones?</text>
    </g>
    <g fill="url(#linearGradient14)" text-rendering="geometricPrecision" shape-rendering="geometricPrecision" transform="matrix(1,0,0,1,84,28)" stroke="url(#linearGradient14)">
      <path d="M213.9586 141.5205 L293.4586 169.0205 L213.9586 196.5205 L134.4586 169.0205 Z" stroke="none" clip-path="url(#clipPath2)"/>
    </g>
    <g text-rendering="geometricPrecision" stroke-miterlimit="1.45" shape-rendering="geometricPrecision" transform="matrix(1,0,0,1,84,28)" stroke-linecap="butt">
      <path fill="none" d="M213.9586 141.5205 L293.4586 169.0205 L213.9586 196.5205 L134.4586 169.0205 Z" clip-path="url(#clipPath2)"/>
      <text x="190.6178" xml:space="preserve" y="166.3837" clip-path="url(#clipPath2)" font-family="sans-serif" stroke="none">¿Existen</text>
      <text x="182.2711" xml:space="preserve" y="181.0849" clip-path="url(#clipPath2)" font-family="sans-serif" stroke="none">bibliotecas?</text>
    </g>
    <g fill="url(#linearGradient15)" text-rendering="geometricPrecision" shape-rendering="geometricPrecision" transform="matrix(1,0,0,1,84,28)" stroke="url(#linearGradient15)">
      <path d="M293.4586 282.7912 L539.566 282.7912 L539.566 312.7912 L293.4586 312.7912 Z" stroke="none" clip-path="url(#clipPath2)"/>
    </g>
    <g text-rendering="geometricPrecision" stroke-miterlimit="1.45" shape-rendering="geometricPrecision" transform="matrix(1,0,0,1,84,28)" stroke-linecap="butt">
      <path fill="none" d="M293.4586 282.7912 L539.566 282.7912 L539.566 312.7912 L293.4586 312.7912 Z" clip-path="url(#clipPath2)"/>
      <text x="313.1295" xml:space="preserve" y="302.505" clip-path="url(#clipPath2)" font-family="sans-serif" stroke="none">Desarrollar bibliotecas de visualización</text>
    </g>
    <g fill="url(#linearGradient16)" text-rendering="geometricPrecision" shape-rendering="geometricPrecision" transform="matrix(1,0,0,1,84,28)" stroke="url(#linearGradient16)">
      <path d="M117.3709 446.6378 L317.2086 446.6378 L310.5464 472.7642 L110.7086 472.7642 Z" stroke="none" clip-path="url(#clipPath2)"/>
    </g>
    <g text-rendering="geometricPrecision" stroke-miterlimit="1.45" shape-rendering="geometricPrecision" transform="matrix(1,0,0,1,84,28)" stroke-linecap="butt">
      <path fill="none" d="M117.3709 446.6378 L317.2086 446.6378 L310.5464 472.7642 L110.7086 472.7642 Z" clip-path="url(#clipPath2)"/>
      <text x="172.6031" xml:space="preserve" y="464.4149" clip-path="url(#clipPath2)" font-family="sans-serif" stroke="none">Introducir datos</text>
    </g>
    <g fill="url(#linearGradient17)" text-rendering="geometricPrecision" shape-rendering="geometricPrecision" transform="matrix(1,0,0,1,84,28)" stroke="url(#linearGradient17)">
      <path d="M90.785 765.84 L337.1323 765.84 L337.1323 789.5182 L90.785 789.5182 Z" stroke="none" clip-path="url(#clipPath2)"/>
    </g>
    <g text-rendering="geometricPrecision" stroke-miterlimit="1.45" shape-rendering="geometricPrecision" transform="matrix(1,0,0,1,84,28)" stroke-linecap="butt">
      <path fill="none" d="M90.785 765.84 L337.1323 765.84 L337.1323 789.5182 L90.785 789.5182 Z" clip-path="url(#clipPath2)"/>
      <text x="117.2379" xml:space="preserve" y="782.393" clip-path="url(#clipPath2)" font-family="sans-serif" stroke="none">Reunir requisitos para la publicación</text>
    </g>
    <g text-rendering="geometricPrecision" stroke-miterlimit="1.45" shape-rendering="geometricPrecision" transform="matrix(1,0,0,1,84,28)" stroke-linecap="butt">
      <path fill="none" d="M213.9586 15.5203 L213.9586 31.4084" clip-path="url(#clipPath2)"/>
    </g>
    <g text-rendering="geometricPrecision" stroke-miterlimit="1.45" shape-rendering="geometricPrecision" transform="matrix(1,0,0,1,84,28)" stroke-linecap="butt">
      <path d="M213.9586 39.4084 L218.9586 27.4084 L213.9586 30.4084 L208.9586 27.4084 Z" stroke="none" clip-path="url(#clipPath2)"/>
      <path fill="none" d="M213.9586 66.374 L213.9586 83.3495" clip-path="url(#clipPath2)"/>
      <path d="M213.9586 91.3495 L218.9586 79.3495 L213.9586 82.3495 L208.9586 79.3495 Z" clip-path="url(#clipPath2)" stroke="none"/>
      <path fill="none" d="M22.0696 589.3636 L22.0696 531.5547 L157.471 531.5547" clip-path="url(#clipPath2)"/>
      <path d="M165.471 531.5547 L153.471 526.5547 L156.471 531.5547 L153.471 536.5547 Z" clip-path="url(#clipPath2)" stroke="none"/>
      <path fill="none" d="M213.9586 549.5027 L213.9586 568.5391" clip-path="url(#clipPath2)"/>
      <path d="M213.9586 576.5391 L218.9586 564.5391 L213.9586 567.5391 L208.9586 564.5391 Z" clip-path="url(#clipPath2)" stroke="none"/>
      <path fill="none" d="M213.9586 831.8833 L213.9586 852.2288" clip-path="url(#clipPath2)"/>
      <path d="M213.9586 860.2288 L218.9586 848.2288 L213.9586 851.2288 L208.9586 848.2288 Z" clip-path="url(#clipPath2)" stroke="none"/>
      <path fill="none" d="M293.4247 604.0547 L410.8692 604.0547 L410.8692 554.5291" clip-path="url(#clipPath2)"/>
      <path d="M410.8692 546.5291 L405.8692 558.5291 L410.8692 555.5291 L415.8692 558.5291 Z" clip-path="url(#clipPath2)" stroke="none"/>
      <text x="300.4586" xml:space="preserve" y="608.7686" clip-path="url(#clipPath2)" font-family="sans-serif" stroke="none">No</text>
      <path fill="none" d="M307.6546 531.5547 L270.4994 531.5547" clip-path="url(#clipPath2)"/>
      <path d="M262.4994 531.5547 L274.4994 536.5547 L271.4994 531.5547 L274.4994 526.5547 Z" clip-path="url(#clipPath2)" stroke="none"/>
      <path fill="none" d="M213.5506 369.7179 L213.5506 383.582" clip-path="url(#clipPath2)"/>
      <path d="M213.5506 391.582 L218.5506 379.582 L213.5506 382.582 L208.5506 379.582 Z" clip-path="url(#clipPath2)" stroke="none"/>
      <path fill="none" d="M213.9586 631.527 L213.9586 657.9953" clip-path="url(#clipPath2)"/>
      <path d="M213.9586 665.9953 L218.9586 653.9953 L213.9586 656.9953 L208.9586 653.9953 Z" clip-path="url(#clipPath2)" stroke="none"/>
      <text x="208.6237" xml:space="preserve" y="650.6192" clip-path="url(#clipPath2)" font-family="sans-serif" stroke="none">Si</text>
      <path fill="none" d="M134.4577 693.5034 L22.0696 693.5034 L22.0696 626.7736" clip-path="url(#clipPath2)"/>
      <path d="M22.0696 618.7736 L17.0696 630.7736 L22.0696 627.7736 L27.0696 630.7736 Z" clip-path="url(#clipPath2)" stroke="none"/>
      <text x="112.1188" xml:space="preserve" y="698.2172" clip-path="url(#clipPath2)" font-family="sans-serif" stroke="none">No</text>
      <path fill="none" d="M213.9586 286.4256 L213.9586 328.4149 L213.5506 328.4149 L213.5506 334.801" clip-path="url(#clipPath2)"/>
      <path d="M213.5506 342.801 L218.5506 330.801 L213.5506 333.801 L208.5506 330.801 Z" clip-path="url(#clipPath2)" stroke="none"/>
      <text x="208.6237" xml:space="preserve" y="305.4611" clip-path="url(#clipPath2)" font-family="sans-serif" stroke="none">Si</text>
      <path fill="none" d="M213.9586 116.4832 L213.9586 133.5461" clip-path="url(#clipPath2)"/>
      <path d="M213.9586 141.5461 L218.9586 129.5461 L213.9586 132.5461 L208.9586 129.5461 Z" clip-path="url(#clipPath2)" stroke="none"/>
      <path fill="none" d="M213.9586 196.5222 L213.9586 223.3942" clip-path="url(#clipPath2)"/>
      <path d="M213.9586 231.3942 L218.9586 219.3942 L213.9586 222.3942 L208.9586 219.3942 Z" clip-path="url(#clipPath2)" stroke="none"/>
      <text x="208.6237" xml:space="preserve" y="215.5849" clip-path="url(#clipPath2)" font-family="sans-serif" stroke="none">Si</text>
      <path fill="none" d="M293.4273 169.0205 L416.5123 169.0205 L416.5123 274.7952" clip-path="url(#clipPath2)"/>
      <path d="M416.5123 282.7952 L421.5123 270.7952 L416.5123 273.7952 L411.5123 270.7952 Z" clip-path="url(#clipPath2)" stroke="none"/>
      <text x="300.4586" xml:space="preserve" y="173.7343" clip-path="url(#clipPath2)" font-family="sans-serif" stroke="none">No</text>
      <path fill="none" d="M293.4273 258.8966 L416.5123 258.8966 L416.5123 274.7879" clip-path="url(#clipPath2)"/>
      <path d="M416.5123 282.7879 L421.5123 270.7879 L416.5123 273.7879 L411.5123 270.7879 Z" clip-path="url(#clipPath2)" stroke="none"/>
      <text x="300.4586" xml:space="preserve" y="263.6105" clip-path="url(#clipPath2)" font-family="sans-serif" stroke="none">No</text>
      <path fill="none" d="M416.5123 312.7802 L416.5123 356.2625 L351.7216 356.2625" clip-path="url(#clipPath2)"/>
      <path d="M343.7216 356.2625 L355.7216 361.2625 L352.7216 356.2625 L355.7216 351.2625 Z" clip-path="url(#clipPath2)" stroke="none"/>
      <path fill="none" d="M213.9586 416.6591 L213.9586 438.6287" clip-path="url(#clipPath2)"/>
      <path d="M213.9586 446.6287 L218.9586 434.6287 L213.9586 437.6287 L208.9586 434.6287 Z" clip-path="url(#clipPath2)" stroke="none"/>
      <path fill="none" d="M213.9586 472.7876 L213.9586 499.6519" clip-path="url(#clipPath2)"/>
      <path d="M213.9586 507.6519 L218.9586 495.6519 L213.9586 498.6519 L208.9586 495.6519 Z" clip-path="url(#clipPath2)" stroke="none"/>
      <path fill="none" d="M213.9586 721.0002 L213.9586 757.8618" clip-path="url(#clipPath2)"/>
      <path d="M213.9586 765.8618 L218.9586 753.8618 L213.9586 756.8618 L208.9586 753.8618 Z" clip-path="url(#clipPath2)" stroke="none"/>
      <text x="208.6237" xml:space="preserve" y="740.0678" clip-path="url(#clipPath2)" font-family="sans-serif" stroke="none">Si</text>
      <path fill="none" d="M213.9586 789.5472 L213.9586 800.208" clip-path="url(#clipPath2)"/>
      <path d="M213.9586 808.208 L218.9586 796.208 L213.9586 799.208 L208.9586 796.208 Z" clip-path="url(#clipPath2)" stroke="none"/>
    </g>
  </g>
</svg>
