<?xml version="1.0" encoding="UTF-8"?><svg xmlns="http://www.w3.org/2000/svg" xmlns:xlink="http://www.w3.org/1999/xlink" fill-opacity="1" color-rendering="auto" color-interpolation="auto" text-rendering="auto" stroke="black" stroke-linecap="square" width="729" stroke-miterlimit="10" shape-rendering="auto" stroke-opacity="1" fill="black" stroke-dasharray="none" font-weight="normal" stroke-width="1" height="1129" font-family="'Dialog'" font-style="normal" stroke-linejoin="miter" font-size="12px" stroke-dashoffset="0" image-rendering="auto">
  <!--Generated by ySVG 2.6-->
  <defs id="genericDefs"/>
  <g>
    <defs id="defs1">
      <linearGradient x1="1119.0219" gradientUnits="userSpaceOnUse" x2="1451.005" y1="-109.6084" y2="-85.1643" id="linearGradient1" spreadMethod="reflect">
        <stop stop-opacity="1" stop-color="rgb(179,179,255)" offset="0%"/>
        <stop stop-opacity="1" stop-color="rgb(179,179,255)" offset="100%"/>
      </linearGradient>
      <linearGradient x1="1244.0134" gradientUnits="userSpaceOnUse" x2="1324.0134" y1="-201.8671" y2="-177.4231" id="linearGradient2" spreadMethod="reflect">
        <stop stop-opacity="1" stop-color="rgb(255,179,179)" offset="0%"/>
        <stop stop-opacity="1" stop-color="rgb(255,179,179)" offset="100%"/>
      </linearGradient>
      <linearGradient x1="1172.0134" gradientUnits="userSpaceOnUse" x2="1398.0134" y1="-63.479" y2="-39.035" id="linearGradient3" spreadMethod="reflect">
        <stop stop-opacity="1" stop-color="rgb(255,217,179)" offset="0%"/>
        <stop stop-opacity="1" stop-color="rgb(255,217,179)" offset="100%"/>
      </linearGradient>
      <linearGradient x1="1203.0134" gradientUnits="userSpaceOnUse" x2="1367.0134" y1="-155.7377" y2="-131.2937" id="linearGradient4" spreadMethod="reflect">
        <stop stop-opacity="1" stop-color="rgb(255,217,179)" offset="0%"/>
        <stop stop-opacity="1" stop-color="rgb(255,217,179)" offset="100%"/>
      </linearGradient>
      <linearGradient x1="1001.6371" gradientUnits="userSpaceOnUse" x2="1172.4771" y1="628.4064" y2="668.4064" id="linearGradient5" spreadMethod="reflect">
        <stop stop-opacity="1" stop-color="rgb(255,217,179)" offset="0%"/>
        <stop stop-opacity="1" stop-color="rgb(255,217,179)" offset="100%"/>
      </linearGradient>
      <linearGradient x1="1178.5134" gradientUnits="userSpaceOnUse" x2="1391.5134" y1="348.7982" y2="378.7982" id="linearGradient6" spreadMethod="reflect">
        <stop stop-opacity="1" stop-color="rgb(255,217,179)" offset="0%"/>
        <stop stop-opacity="1" stop-color="rgb(255,217,179)" offset="100%"/>
      </linearGradient>
      <linearGradient x1="1447.3091" gradientUnits="userSpaceOnUse" x2="1606.3091" y1="435.3055" y2="475.3055" id="linearGradient7" spreadMethod="reflect">
        <stop stop-opacity="1" stop-color="rgb(255,217,179)" offset="0%"/>
        <stop stop-opacity="1" stop-color="rgb(255,217,179)" offset="100%"/>
      </linearGradient>
      <linearGradient x1="1435.8091" gradientUnits="userSpaceOnUse" x2="1617.8091" y1="339.8521" y2="379.8521" id="linearGradient8" spreadMethod="reflect">
        <stop stop-opacity="1" stop-color="rgb(255,217,179)" offset="0%"/>
        <stop stop-opacity="1" stop-color="rgb(255,217,179)" offset="100%"/>
      </linearGradient>
      <linearGradient x1="1092.8253" gradientUnits="userSpaceOnUse" x2="1477.2017" y1="788.4545" y2="818.4545" id="linearGradient9" spreadMethod="reflect">
        <stop stop-opacity="1" stop-color="rgb(255,217,179)" offset="0%"/>
        <stop stop-opacity="1" stop-color="rgb(255,217,179)" offset="100%"/>
      </linearGradient>
      <linearGradient x1="1236.5134" gradientUnits="userSpaceOnUse" x2="1333.5134" y1="459.4564" y2="507.2444" id="linearGradient10" spreadMethod="reflect">
        <stop stop-opacity="1" stop-color="rgb(232,238,247)" offset="0%"/>
        <stop stop-opacity="1" stop-color="rgb(183,201,227)" offset="100%"/>
      </linearGradient>
      <linearGradient x1="1194.0134" gradientUnits="userSpaceOnUse" x2="1376.0134" y1="165.3612" y2="189.8052" id="linearGradient11" spreadMethod="reflect">
        <stop stop-opacity="1" stop-color="rgb(255,217,179)" offset="0%"/>
        <stop stop-opacity="1" stop-color="rgb(255,217,179)" offset="100%"/>
      </linearGradient>
      <linearGradient x1="1225.8809" gradientUnits="userSpaceOnUse" x2="1344.146" y1="119.2318" y2="143.6759" id="linearGradient12" spreadMethod="reflect">
        <stop stop-opacity="1" stop-color="rgb(255,217,179)" offset="0%"/>
        <stop stop-opacity="1" stop-color="rgb(255,217,179)" offset="100%"/>
      </linearGradient>
      <linearGradient x1="1215.6846" gradientUnits="userSpaceOnUse" x2="1354.3423" y1="211.4906" y2="235.9346" id="linearGradient13" spreadMethod="reflect">
        <stop stop-opacity="1" stop-color="rgb(255,217,179)" offset="0%"/>
        <stop stop-opacity="1" stop-color="rgb(255,217,179)" offset="100%"/>
      </linearGradient>
      <linearGradient x1="1205.5134" gradientUnits="userSpaceOnUse" x2="1364.5134" y1="532.5736" y2="587.5736" id="linearGradient14" spreadMethod="reflect">
        <stop stop-opacity="1" stop-color="rgb(179,255,179)" offset="0%"/>
        <stop stop-opacity="1" stop-color="rgb(179,255,179)" offset="100%"/>
      </linearGradient>
      <linearGradient x1="1134.8365" gradientUnits="userSpaceOnUse" x2="1405.8091" y1="404.1273" y2="434.1273" id="linearGradient15" spreadMethod="reflect">
        <stop stop-opacity="1" stop-color="rgb(255,217,179)" offset="0%"/>
        <stop stop-opacity="1" stop-color="rgb(255,217,179)" offset="100%"/>
      </linearGradient>
      <linearGradient x1="1038.6483" gradientUnits="userSpaceOnUse" x2="1197.6483" y1="301.6927" y2="331.6927" id="linearGradient16" spreadMethod="reflect">
        <stop stop-opacity="1" stop-color="rgb(255,217,179)" offset="0%"/>
        <stop stop-opacity="1" stop-color="rgb(255,217,179)" offset="100%"/>
      </linearGradient>
      <linearGradient x1="1029.5277" gradientUnits="userSpaceOnUse" x2="1109.5277" y1="855.1665" y2="883.1665" id="linearGradient17" spreadMethod="reflect">
        <stop stop-opacity="1" stop-color="rgb(255,179,179)" offset="0%"/>
        <stop stop-opacity="1" stop-color="rgb(255,179,179)" offset="100%"/>
      </linearGradient>
      <linearGradient x1="1181.7634" gradientUnits="userSpaceOnUse" x2="1388.2634" y1="74.9091" y2="99.3531" id="linearGradient18" spreadMethod="reflect">
        <stop stop-opacity="1" stop-color="rgb(255,217,179)" offset="0%"/>
        <stop stop-opacity="1" stop-color="rgb(255,217,179)" offset="100%"/>
      </linearGradient>
      <linearGradient x1="1205.5134" gradientUnits="userSpaceOnUse" x2="1364.5134" y1="28.7797" y2="53.2238" id="linearGradient19" spreadMethod="reflect">
        <stop stop-opacity="1" stop-color="rgb(255,217,179)" offset="0%"/>
        <stop stop-opacity="1" stop-color="rgb(255,217,179)" offset="100%"/>
      </linearGradient>
      <linearGradient x1="1220.0134" gradientUnits="userSpaceOnUse" x2="1350.0134" y1="257.6199" y2="312.6199" id="linearGradient20" spreadMethod="reflect">
        <stop stop-opacity="1" stop-color="rgb(179,255,179)" offset="0%"/>
        <stop stop-opacity="1" stop-color="rgb(179,255,179)" offset="100%"/>
      </linearGradient>
      <linearGradient x1="1022.6078" gradientUnits="userSpaceOnUse" x2="1152.6078" y1="532.5736" y2="587.5736" id="linearGradient21" spreadMethod="reflect">
        <stop stop-opacity="1" stop-color="rgb(179,255,179)" offset="0%"/>
        <stop stop-opacity="1" stop-color="rgb(179,255,179)" offset="100%"/>
      </linearGradient>
      <linearGradient x1="1205.5134" gradientUnits="userSpaceOnUse" x2="1364.5134" y1="696.7425" y2="751.7425" id="linearGradient22" spreadMethod="reflect">
        <stop stop-opacity="1" stop-color="rgb(179,255,179)" offset="0%"/>
        <stop stop-opacity="1" stop-color="rgb(179,255,179)" offset="100%"/>
      </linearGradient>
      <linearGradient x1="1205.5134" gradientUnits="userSpaceOnUse" x2="1364.5134" y1="841.6665" y2="896.6665" id="linearGradient23" spreadMethod="reflect">
        <stop stop-opacity="1" stop-color="rgb(179,255,179)" offset="0%"/>
        <stop stop-opacity="1" stop-color="rgb(179,255,179)" offset="100%"/>
      </linearGradient>
      <linearGradient x1="1236.5134" gradientUnits="userSpaceOnUse" x2="1333.5134" y1="624.5124" y2="672.3004" id="linearGradient24" spreadMethod="reflect">
        <stop stop-opacity="1" stop-color="rgb(232,238,247)" offset="0%"/>
        <stop stop-opacity="1" stop-color="rgb(183,201,227)" offset="100%"/>
      </linearGradient>
      <linearGradient x1="986.9152" gradientUnits="userSpaceOnUse" x2="1583.1117" y1="-17.3496" y2="7.0944" id="linearGradient25" spreadMethod="reflect">
        <stop stop-opacity="1" stop-color="rgb(255,217,179)" offset="0%"/>
        <stop stop-opacity="1" stop-color="rgb(255,217,179)" offset="100%"/>
      </linearGradient>
      <clipPath clipPathUnits="userSpaceOnUse" id="clipPath1">
        <path d="M0 0 L729 0 L729 1129 L0 1129 L0 0 Z"/>
      </clipPath>
      <clipPath clipPathUnits="userSpaceOnUse" id="clipPath2">
        <path d="M956 -217 L1685 -217 L1685 912 L956 912 L956 -217 Z"/>
      </clipPath>
    </defs>
    <g fill="white" text-rendering="geometricPrecision" shape-rendering="geometricPrecision" transform="translate(-956,217)" stroke="white">
      <rect x="956" width="729" height="1129" y="-217" clip-path="url(#clipPath2)" stroke="none"/>
    </g>
    <g fill="url(#linearGradient1)" text-rendering="geometricPrecision" shape-rendering="geometricPrecision" transform="matrix(1,0,0,1,-956,217)" stroke="url(#linearGradient1)">
      <path d="M1125.2551 -109.6084 L1451.005 -109.6084 L1444.7717 -85.1643 L1119.0219 -85.1643 Z" stroke="none" clip-path="url(#clipPath2)"/>
    </g>
    <g text-rendering="geometricPrecision" stroke-miterlimit="1.45" shape-rendering="geometricPrecision" transform="matrix(1,0,0,1,-956,217)" stroke-linecap="butt">
      <path fill="none" d="M1125.2551 -109.6084 L1451.005 -109.6084 L1444.7717 -85.1643 L1119.0219 -85.1643 Z" clip-path="url(#clipPath2)"/>
      <text x="1147.2712" xml:space="preserve" y="-92.6725" clip-path="url(#clipPath2)" font-family="sans-serif" stroke="none">Recopilación de la información acerca del problema</text>
    </g>
    <g fill="url(#linearGradient2)" text-rendering="geometricPrecision" shape-rendering="geometricPrecision" transform="matrix(1,0,0,1,-956,217)" stroke="url(#linearGradient2)">
      <rect x="1244.0134" y="-201.8671" clip-path="url(#clipPath2)" width="80" rx="12.222" ry="12.222" height="24.444" stroke="none"/>
    </g>
    <g text-rendering="geometricPrecision" stroke-miterlimit="1.45" shape-rendering="geometricPrecision" transform="matrix(1,0,0,1,-956,217)" stroke-linecap="butt">
      <rect x="1244.0134" y="-201.8671" clip-path="url(#clipPath2)" fill="none" width="80" rx="12.222" ry="12.222" height="24.444"/>
      <text x="1270.0066" xml:space="preserve" y="-184.9312" clip-path="url(#clipPath2)" font-family="sans-serif" stroke="none">Inicio</text>
    </g>
    <g fill="url(#linearGradient3)" text-rendering="geometricPrecision" shape-rendering="geometricPrecision" transform="matrix(1,0,0,1,-956,217)" stroke="url(#linearGradient3)">
      <path d="M1172.0134 -63.479 L1398.0134 -63.479 L1398.0134 -39.035 L1172.0134 -39.035 Z" stroke="none" clip-path="url(#clipPath2)"/>
    </g>
    <g text-rendering="geometricPrecision" stroke-miterlimit="1.45" shape-rendering="geometricPrecision" transform="matrix(1,0,0,1,-956,217)" stroke-linecap="butt">
      <path fill="none" d="M1172.0134 -63.479 L1398.0134 -63.479 L1398.0134 -39.035 L1172.0134 -39.035 Z" clip-path="url(#clipPath2)"/>
      <text x="1190.3054" xml:space="preserve" y="-46.5431" clip-path="url(#clipPath2)" font-family="sans-serif" stroke="none">Análisis y síntesis de la información</text>
    </g>
    <g fill="url(#linearGradient4)" text-rendering="geometricPrecision" shape-rendering="geometricPrecision" transform="matrix(1,0,0,1,-956,217)" stroke="url(#linearGradient4)">
      <path d="M1203.0134 -155.7377 L1367.0134 -155.7377 L1367.0134 -131.2937 L1203.0134 -131.2937 Z" stroke="none" clip-path="url(#clipPath2)"/>
    </g>
    <g text-rendering="geometricPrecision" stroke-miterlimit="1.45" shape-rendering="geometricPrecision" transform="matrix(1,0,0,1,-956,217)" stroke-linecap="butt">
      <path fill="none" d="M1203.0134 -155.7377 L1367.0134 -155.7377 L1367.0134 -131.2937 L1203.0134 -131.2937 Z" clip-path="url(#clipPath2)"/>
      <text x="1216.9744" xml:space="preserve" y="-138.8018" clip-path="url(#clipPath2)" font-family="sans-serif" stroke="none">Identificación el problema</text>
    </g>
    <g fill="url(#linearGradient5)" text-rendering="geometricPrecision" shape-rendering="geometricPrecision" transform="matrix(1,0,0,1,-956,217)" stroke="url(#linearGradient5)">
      <path d="M1001.6371 628.4064 L1172.4771 628.4064 L1172.4771 668.4064 L1001.6371 668.4064 Z" stroke="none" clip-path="url(#clipPath2)"/>
    </g>
    <g text-rendering="geometricPrecision" stroke-miterlimit="1.45" shape-rendering="geometricPrecision" transform="matrix(1,0,0,1,-956,217)" stroke-linecap="butt">
      <path fill="none" d="M1001.6371 628.4064 L1172.4771 628.4064 L1172.4771 668.4064 L1001.6371 668.4064 Z" clip-path="url(#clipPath2)"/>
      <text x="1023.354" xml:space="preserve" y="653.1203" clip-path="url(#clipPath2)" font-family="sans-serif" stroke="none">Realizar prueba unitaria</text>
    </g>
    <g fill="url(#linearGradient6)" text-rendering="geometricPrecision" shape-rendering="geometricPrecision" transform="matrix(1,0,0,1,-956,217)" stroke="url(#linearGradient6)">
      <path d="M1178.5134 348.7982 L1391.5134 348.7982 L1391.5134 378.7982 L1178.5134 378.7982 Z" stroke="none" clip-path="url(#clipPath2)"/>
    </g>
    <g text-rendering="geometricPrecision" stroke-miterlimit="1.45" shape-rendering="geometricPrecision" transform="matrix(1,0,0,1,-956,217)" stroke-linecap="butt">
      <path fill="none" d="M1178.5134 348.7982 L1391.5134 348.7982 L1391.5134 378.7982 L1178.5134 378.7982 Z" clip-path="url(#clipPath2)"/>
      <text x="1216.3123" xml:space="preserve" y="368.5121" clip-path="url(#clipPath2)" font-family="sans-serif" stroke="none">Codificación del algoritmo</text>
    </g>
    <g fill="url(#linearGradient7)" text-rendering="geometricPrecision" shape-rendering="geometricPrecision" transform="matrix(1,0,0,1,-956,217)" stroke="url(#linearGradient7)">
      <path d="M1447.3091 435.3055 L1606.3091 435.3055 L1606.3091 475.3055 L1447.3091 475.3055 Z" stroke="none" clip-path="url(#clipPath2)"/>
    </g>
    <g text-rendering="geometricPrecision" stroke-miterlimit="1.45" shape-rendering="geometricPrecision" transform="matrix(1,0,0,1,-956,217)" stroke-linecap="butt">
      <path fill="none" d="M1447.3091 435.3055 L1606.3091 435.3055 L1606.3091 475.3055 L1447.3091 475.3055 Z" clip-path="url(#clipPath2)"/>
      <text x="1458.4272" xml:space="preserve" y="452.6687" clip-path="url(#clipPath2)" font-family="sans-serif" stroke="none">Búsqueda e identificación</text>
      <text x="1492.1216" xml:space="preserve" y="467.3699" clip-path="url(#clipPath2)" font-family="sans-serif" stroke="none">del problema</text>
    </g>
    <g fill="url(#linearGradient8)" text-rendering="geometricPrecision" shape-rendering="geometricPrecision" transform="matrix(1,0,0,1,-956,217)" stroke="url(#linearGradient8)">
      <path d="M1435.8091 339.8521 L1617.8091 339.8521 L1617.8091 379.8521 L1435.8091 379.8521 Z" stroke="none" clip-path="url(#clipPath2)"/>
    </g>
    <g text-rendering="geometricPrecision" stroke-miterlimit="1.45" shape-rendering="geometricPrecision" transform="matrix(1,0,0,1,-956,217)" stroke-linecap="butt">
      <path fill="none" d="M1435.8091 339.8521 L1617.8091 339.8521 L1617.8091 379.8521 L1435.8091 379.8521 Z" clip-path="url(#clipPath2)"/>
      <text x="1453.4468" xml:space="preserve" y="357.2154" clip-path="url(#clipPath2)" font-family="sans-serif" stroke="none">Corregir la implementación </text>
      <text x="1492.4585" xml:space="preserve" y="371.9165" clip-path="url(#clipPath2)" font-family="sans-serif" stroke="none">del algoritmo</text>
    </g>
    <g fill="url(#linearGradient9)" text-rendering="geometricPrecision" shape-rendering="geometricPrecision" transform="matrix(1,0,0,1,-956,217)" stroke="url(#linearGradient9)">
      <path d="M1092.8253 788.4545 L1477.2017 788.4545 L1477.2017 818.4545 L1092.8253 818.4545 Z" stroke="none" clip-path="url(#clipPath2)"/>
    </g>
    <g text-rendering="geometricPrecision" stroke-miterlimit="1.45" shape-rendering="geometricPrecision" transform="matrix(1,0,0,1,-956,217)" stroke-linecap="butt">
      <path fill="none" d="M1092.8253 788.4545 L1477.2017 788.4545 L1477.2017 818.4545 L1092.8253 818.4545 Z" clip-path="url(#clipPath2)"/>
      <text x="1123.5789" xml:space="preserve" y="808.1683" clip-path="url(#clipPath2)" font-family="sans-serif" stroke="none">Documentación de los atributos y funcionalidades  del objeto</text>
    </g>
    <g fill="url(#linearGradient10)" text-rendering="geometricPrecision" shape-rendering="geometricPrecision" transform="matrix(1,0,0,1,-956,217)" stroke="url(#linearGradient10)">
      <path d="M1236.5134 459.4564 L1333.5134 459.4564 L1333.5134 501.271 Q1309.2634 489.3239 1285.0134 501.271 Q1260.7634 513.218 1236.5134 501.271 Z" stroke="none" clip-path="url(#clipPath2)"/>
    </g>
    <g text-rendering="geometricPrecision" stroke-miterlimit="1.45" shape-rendering="geometricPrecision" transform="matrix(1,0,0,1,-956,217)" stroke-linecap="butt">
      <path fill="none" d="M1236.5134 459.4564 L1333.5134 459.4564 L1333.5134 501.271 Q1309.2634 489.3239 1285.0134 501.271 Q1260.7634 513.218 1236.5134 501.271 Z" clip-path="url(#clipPath2)"/>
      <text x="1263.0115" xml:space="preserve" y="480.7137" clip-path="url(#clipPath2)" font-family="sans-serif" stroke="none">Mostrar </text>
      <text x="1257.3308" xml:space="preserve" y="495.4149" clip-path="url(#clipPath2)" font-family="sans-serif" stroke="none">resultados</text>
    </g>
    <g fill="url(#linearGradient11)" text-rendering="geometricPrecision" shape-rendering="geometricPrecision" transform="matrix(1,0,0,1,-956,217)" stroke="url(#linearGradient11)">
      <path d="M1194.0134 165.3612 L1376.0134 165.3612 L1376.0134 189.8052 L1194.0134 189.8052 Z" stroke="none" clip-path="url(#clipPath2)"/>
    </g>
    <g text-rendering="geometricPrecision" stroke-miterlimit="1.45" shape-rendering="geometricPrecision" transform="matrix(1,0,0,1,-956,217)" stroke-linecap="butt">
      <path fill="none" d="M1194.0134 165.3612 L1376.0134 165.3612 L1376.0134 189.8052 L1194.0134 189.8052 Z" clip-path="url(#clipPath2)"/>
      <text x="1215.6414" xml:space="preserve" y="182.2971" clip-path="url(#clipPath2)" font-family="sans-serif" stroke="none">Elaboración de algoritmos</text>
    </g>
    <g fill="url(#linearGradient12)" text-rendering="geometricPrecision" shape-rendering="geometricPrecision" transform="matrix(1,0,0,1,-956,217)" stroke="url(#linearGradient12)">
      <path d="M1225.8809 119.2318 L1344.146 119.2318 L1344.146 143.6759 L1225.8809 143.6759 Z" stroke="none" clip-path="url(#clipPath2)"/>
    </g>
    <g text-rendering="geometricPrecision" stroke-miterlimit="1.45" shape-rendering="geometricPrecision" transform="matrix(1,0,0,1,-956,217)" stroke-linecap="butt">
      <path fill="none" d="M1225.8809 119.2318 L1344.146 119.2318 L1344.146 143.6759 L1225.8809 143.6759 Z" clip-path="url(#clipPath2)"/>
      <text x="1235.6482" xml:space="preserve" y="136.1677" clip-path="url(#clipPath2)" font-family="sans-serif" stroke="none">Seleccionar objeto</text>
    </g>
    <g fill="url(#linearGradient13)" text-rendering="geometricPrecision" shape-rendering="geometricPrecision" transform="matrix(1,0,0,1,-956,217)" stroke="url(#linearGradient13)">
      <path d="M1215.6846 211.4906 L1354.3423 211.4906 L1354.3423 235.9346 L1215.6846 235.9346 Z" stroke="none" clip-path="url(#clipPath2)"/>
    </g>
    <g text-rendering="geometricPrecision" stroke-miterlimit="1.45" shape-rendering="geometricPrecision" transform="matrix(1,0,0,1,-956,217)" stroke-linecap="butt">
      <path fill="none" d="M1215.6846 211.4906 L1354.3423 211.4906 L1354.3423 235.9346 L1215.6846 235.9346 Z" clip-path="url(#clipPath2)"/>
      <text x="1227.3191" xml:space="preserve" y="228.4265" clip-path="url(#clipPath2)" font-family="sans-serif" stroke="none">Seleccionar algoritmo</text>
    </g>
    <g fill="url(#linearGradient14)" text-rendering="geometricPrecision" shape-rendering="geometricPrecision" transform="matrix(1,0,0,1,-956,217)" stroke="url(#linearGradient14)">
      <path d="M1285.0134 532.5736 L1364.5134 560.0736 L1285.0134 587.5736 L1205.5134 560.0736 Z" stroke="none" clip-path="url(#clipPath2)"/>
    </g>
    <g text-rendering="geometricPrecision" stroke-miterlimit="1.45" shape-rendering="geometricPrecision" transform="matrix(1,0,0,1,-956,217)" stroke-linecap="butt">
      <path fill="none" d="M1285.0134 532.5736 L1364.5134 560.0736 L1285.0134 587.5736 L1205.5134 560.0736 Z" clip-path="url(#clipPath2)"/>
      <text x="1251.6707" xml:space="preserve" y="550.0863" clip-path="url(#clipPath2)" font-family="sans-serif" stroke="none">¿Muestra el </text>
      <text x="1258.6638" xml:space="preserve" y="564.7875" clip-path="url(#clipPath2)" font-family="sans-serif" stroke="none">resultado </text>
      <text x="1256.657" xml:space="preserve" y="579.4886" clip-path="url(#clipPath2)" font-family="sans-serif" stroke="none">esperado?</text>
    </g>
    <g fill="url(#linearGradient15)" text-rendering="geometricPrecision" shape-rendering="geometricPrecision" transform="matrix(1,0,0,1,-956,217)" stroke="url(#linearGradient15)">
      <path d="M1134.8365 404.1273 L1405.8091 404.1273 L1405.8091 434.1273 L1134.8365 434.1273 Z" stroke="none" clip-path="url(#clipPath2)"/>
    </g>
    <g text-rendering="geometricPrecision" stroke-miterlimit="1.45" shape-rendering="geometricPrecision" transform="matrix(1,0,0,1,-956,217)" stroke-linecap="butt">
      <path fill="none" d="M1134.8365 404.1273 L1405.8091 404.1273 L1405.8091 434.1273 L1134.8365 434.1273 Z" clip-path="url(#clipPath2)"/>
      <text x="1153.5981" xml:space="preserve" y="423.8412" clip-path="url(#clipPath2)" font-family="sans-serif" stroke="none">Compilar y ejecutar el código implementado</text>
    </g>
    <g fill="url(#linearGradient16)" text-rendering="geometricPrecision" shape-rendering="geometricPrecision" transform="matrix(1,0,0,1,-956,217)" stroke="url(#linearGradient16)">
      <path d="M1038.6483 301.6927 L1197.6483 301.6927 L1197.6483 331.6927 L1038.6483 331.6927 Z" stroke="none" clip-path="url(#clipPath2)"/>
    </g>
    <g text-rendering="geometricPrecision" stroke-miterlimit="1.45" shape-rendering="geometricPrecision" transform="matrix(1,0,0,1,-956,217)" stroke-linecap="butt">
      <path fill="none" d="M1038.6483 301.6927 L1197.6483 301.6927 L1197.6483 331.6927 L1038.6483 331.6927 Z" clip-path="url(#clipPath2)"/>
      <text x="1068.7889" xml:space="preserve" y="314.056" clip-path="url(#clipPath2)" font-family="sans-serif" stroke="none">Elaborar diagrama</text>
      <text x="1097.1337" xml:space="preserve" y="328.7571" clip-path="url(#clipPath2)" font-family="sans-serif" stroke="none"> de flujo</text>
    </g>
    <g fill="url(#linearGradient17)" text-rendering="geometricPrecision" shape-rendering="geometricPrecision" transform="matrix(1,0,0,1,-956,217)" stroke="url(#linearGradient17)">
      <rect x="1029.5278" y="855.1665" clip-path="url(#clipPath2)" width="80" rx="14" ry="14" height="28" stroke="none"/>
    </g>
    <g text-rendering="geometricPrecision" stroke-miterlimit="1.45" shape-rendering="geometricPrecision" transform="matrix(1,0,0,1,-956,217)" stroke-linecap="butt">
      <rect x="1029.5278" y="855.1665" clip-path="url(#clipPath2)" fill="none" width="80" rx="14" ry="14" height="28"/>
      <text x="1061.1927" xml:space="preserve" y="873.8804" clip-path="url(#clipPath2)" font-family="sans-serif" stroke="none">Fin</text>
    </g>
    <g fill="url(#linearGradient18)" text-rendering="geometricPrecision" shape-rendering="geometricPrecision" transform="matrix(1,0,0,1,-956,217)" stroke="url(#linearGradient18)">
      <path d="M1181.7634 74.9091 L1388.2634 74.9091 L1388.2634 99.3531 L1181.7634 99.3531 Z" stroke="none" clip-path="url(#clipPath2)"/>
    </g>
    <g text-rendering="geometricPrecision" stroke-miterlimit="1.45" shape-rendering="geometricPrecision" transform="matrix(1,0,0,1,-956,217)" stroke-linecap="butt">
      <path fill="none" d="M1181.7634 74.9091 L1388.2634 74.9091 L1388.2634 99.3531 L1181.7634 99.3531 Z" clip-path="url(#clipPath2)"/>
      <text x="1196.2878" xml:space="preserve" y="91.845" clip-path="url(#clipPath2)" font-family="sans-serif" stroke="none">Modelado de objetos: Relaciones</text>
    </g>
    <g fill="url(#linearGradient19)" text-rendering="geometricPrecision" shape-rendering="geometricPrecision" transform="matrix(1,0,0,1,-956,217)" stroke="url(#linearGradient19)">
      <path d="M1205.5134 28.7797 L1364.5134 28.7797 L1364.5134 53.2238 L1205.5134 53.2238 Z" stroke="none" clip-path="url(#clipPath2)"/>
    </g>
    <g text-rendering="geometricPrecision" stroke-miterlimit="1.45" shape-rendering="geometricPrecision" transform="matrix(1,0,0,1,-956,217)" stroke-linecap="butt">
      <path fill="none" d="M1205.5134 28.7797 L1364.5134 28.7797 L1364.5134 53.2238 L1205.5134 53.2238 Z" clip-path="url(#clipPath2)"/>
      <text x="1220.6365" xml:space="preserve" y="45.7156" clip-path="url(#clipPath2)" font-family="sans-serif" stroke="none">Identificación de objetos</text>
    </g>
    <g fill="url(#linearGradient20)" text-rendering="geometricPrecision" shape-rendering="geometricPrecision" transform="matrix(1,0,0,1,-956,217)" stroke="url(#linearGradient20)">
      <path d="M1285.0134 257.6199 L1350.0134 285.1199 L1285.0134 312.6199 L1220.0134 285.1199 Z" stroke="none" clip-path="url(#clipPath2)"/>
    </g>
    <g text-rendering="geometricPrecision" stroke-miterlimit="1.45" shape-rendering="geometricPrecision" transform="matrix(1,0,0,1,-956,217)" stroke-linecap="butt">
      <path fill="none" d="M1285.0134 257.6199 L1350.0134 285.1199 L1285.0134 312.6199 L1220.0134 285.1199 Z" clip-path="url(#clipPath2)"/>
      <text x="1256.0066" xml:space="preserve" y="282.4832" clip-path="url(#clipPath2)" font-family="sans-serif" stroke="none">¿Algoritmo</text>
      <text x="1257.6648" xml:space="preserve" y="297.1844" clip-path="url(#clipPath2)" font-family="sans-serif" stroke="none">complejo?</text>
    </g>
    <g fill="url(#linearGradient21)" text-rendering="geometricPrecision" shape-rendering="geometricPrecision" transform="matrix(1,0,0,1,-956,217)" stroke="url(#linearGradient21)">
      <path d="M1087.6078 532.5736 L1152.6078 560.0736 L1087.6078 587.5736 L1022.6078 560.0736 Z" stroke="none" clip-path="url(#clipPath2)"/>
    </g>
    <g text-rendering="geometricPrecision" stroke-miterlimit="1.45" shape-rendering="geometricPrecision" transform="matrix(1,0,0,1,-956,217)" stroke-linecap="butt">
      <path fill="none" d="M1087.6078 532.5736 L1152.6078 560.0736 L1087.6078 587.5736 L1022.6078 560.0736 Z" clip-path="url(#clipPath2)"/>
      <text x="1036.5814" xml:space="preserve" y="557.4369" clip-path="url(#clipPath2)" font-family="sans-serif" stroke="none">¿Se codificó todos </text>
      <text x="1047.2572" xml:space="preserve" y="572.1381" clip-path="url(#clipPath2)" font-family="sans-serif" stroke="none">los algoritmos?</text>
    </g>
    <g fill="url(#linearGradient22)" text-rendering="geometricPrecision" shape-rendering="geometricPrecision" transform="matrix(1,0,0,1,-956,217)" stroke="url(#linearGradient22)">
      <path d="M1285.0134 696.7425 L1364.5134 724.2425 L1285.0134 751.7425 L1205.5134 724.2425 Z" stroke="none" clip-path="url(#clipPath2)"/>
    </g>
    <g text-rendering="geometricPrecision" stroke-miterlimit="1.45" shape-rendering="geometricPrecision" transform="matrix(1,0,0,1,-956,217)" stroke-linecap="butt">
      <path fill="none" d="M1285.0134 696.7425 L1364.5134 724.2425 L1285.0134 751.7425 L1205.5134 724.2425 Z" clip-path="url(#clipPath2)"/>
      <text x="1238.988" xml:space="preserve" y="721.6058" clip-path="url(#clipPath2)" font-family="sans-serif" stroke="none">¿Prueba unitaria </text>
      <text x="1260.9988" xml:space="preserve" y="736.3069" clip-path="url(#clipPath2)" font-family="sans-serif" stroke="none"> exitosa?</text>
    </g>
    <g fill="url(#linearGradient23)" text-rendering="geometricPrecision" shape-rendering="geometricPrecision" transform="matrix(1,0,0,1,-956,217)" stroke="url(#linearGradient23)">
      <path d="M1285.0134 841.6665 L1364.5134 869.1665 L1285.0134 896.6665 L1205.5134 869.1665 Z" stroke="none" clip-path="url(#clipPath2)"/>
    </g>
    <g text-rendering="geometricPrecision" stroke-miterlimit="1.45" shape-rendering="geometricPrecision" transform="matrix(1,0,0,1,-956,217)" stroke-linecap="butt">
      <path fill="none" d="M1285.0134 841.6665 L1364.5134 869.1665 L1285.0134 896.6665 L1205.5134 869.1665 Z" clip-path="url(#clipPath2)"/>
      <text x="1226.9822" xml:space="preserve" y="866.5298" clip-path="url(#clipPath2)" font-family="sans-serif" stroke="none">¿Se codificaron todos</text>
      <text x="1252.9919" xml:space="preserve" y="881.231" clip-path="url(#clipPath2)" font-family="sans-serif" stroke="none">los objetos?</text>
    </g>
    <g fill="url(#linearGradient24)" text-rendering="geometricPrecision" shape-rendering="geometricPrecision" transform="matrix(1,0,0,1,-956,217)" stroke="url(#linearGradient24)">
      <path d="M1236.5134 624.5124 L1333.5134 624.5124 L1333.5134 666.3269 Q1309.2634 654.3799 1285.0134 666.3269 Q1260.7634 678.2739 1236.5134 666.3269 Z" stroke="none" clip-path="url(#clipPath2)"/>
    </g>
    <g text-rendering="geometricPrecision" stroke-miterlimit="1.45" shape-rendering="geometricPrecision" transform="matrix(1,0,0,1,-956,217)" stroke-linecap="butt">
      <path fill="none" d="M1236.5134 624.5124 L1333.5134 624.5124 L1333.5134 666.3269 Q1309.2634 654.3799 1285.0134 666.3269 Q1260.7634 678.2739 1236.5134 666.3269 Z" clip-path="url(#clipPath2)"/>
      <text x="1263.0115" xml:space="preserve" y="645.7697" clip-path="url(#clipPath2)" font-family="sans-serif" stroke="none">Mostrar </text>
      <text x="1257.3308" xml:space="preserve" y="660.4709" clip-path="url(#clipPath2)" font-family="sans-serif" stroke="none">resultados</text>
    </g>
    <g fill="url(#linearGradient25)" text-rendering="geometricPrecision" shape-rendering="geometricPrecision" transform="matrix(1,0,0,1,-956,217)" stroke="url(#linearGradient25)">
      <path d="M986.9152 -17.3496 L1583.1117 -17.3496 L1583.1117 7.0944 L986.9152 7.0944 Z" stroke="none" clip-path="url(#clipPath2)"/>
    </g>
    <g text-rendering="geometricPrecision" stroke-miterlimit="1.45" shape-rendering="geometricPrecision" transform="matrix(1,0,0,1,-956,217)" stroke-linecap="butt">
      <path fill="none" d="M986.9152 -17.3496 L1583.1117 -17.3496 L1583.1117 7.0944 L986.9152 7.0944 Z" clip-path="url(#clipPath2)"/>
      <text x="1025.531" xml:space="preserve" y="-0.4138" clip-path="url(#clipPath2)" font-family="sans-serif" stroke="none">Preparar herramientas de edición, compilación, ejecución y depuración para aplicaciones Android</text>
    </g>
    <g text-rendering="geometricPrecision" stroke-miterlimit="1.45" shape-rendering="geometricPrecision" transform="matrix(1,0,0,1,-956,217)" stroke-linecap="butt">
      <path fill="none" d="M1285.0134 -85.122 L1285.0134 -71.5213" clip-path="url(#clipPath2)"/>
    </g>
    <g text-rendering="geometricPrecision" stroke-miterlimit="1.45" shape-rendering="geometricPrecision" transform="matrix(1,0,0,1,-956,217)" stroke-linecap="butt">
      <path d="M1285.0134 -63.5213 L1290.0134 -75.5213 L1285.0134 -72.5213 L1280.0134 -75.5213 Z" stroke="none" clip-path="url(#clipPath2)"/>
      <path fill="none" d="M1284.2781 -177.437 L1284.5751 -163.7374" clip-path="url(#clipPath2)"/>
      <path d="M1284.7484 -155.7393 L1289.4872 -167.8448 L1284.5535 -164.7372 L1279.4896 -167.6282 Z" clip-path="url(#clipPath2)" stroke="none"/>
      <path fill="none" d="M1285.0134 -131.3077 L1285.0134 -117.61" clip-path="url(#clipPath2)"/>
      <path d="M1285.0134 -109.61 L1290.0134 -121.61 L1285.0134 -118.61 L1280.0134 -121.61 Z" clip-path="url(#clipPath2)" stroke="none"/>
      <path fill="none" d="M1526.8091 435.3106 L1526.8091 387.8589" clip-path="url(#clipPath2)"/>
      <path d="M1526.8091 379.8589 L1521.8091 391.8589 L1526.8091 388.8589 L1531.8091 391.8589 Z" clip-path="url(#clipPath2)" stroke="none"/>
      <path fill="none" d="M1285.0134 143.6619 L1285.0134 157.3596" clip-path="url(#clipPath2)"/>
      <path d="M1285.0134 165.3596 L1290.0134 153.3596 L1285.0134 156.3596 L1280.0134 153.3596 Z" clip-path="url(#clipPath2)" stroke="none"/>
      <path fill="none" d="M1285.0134 189.7913 L1285.0134 203.489" clip-path="url(#clipPath2)"/>
      <path d="M1285.0134 211.489 L1290.0134 199.489 L1285.0134 202.489 L1280.0134 199.489 Z" clip-path="url(#clipPath2)" stroke="none"/>
      <path fill="none" d="M1285.0134 501.295 L1285.0134 524.5498" clip-path="url(#clipPath2)"/>
      <path d="M1285.0134 532.5498 L1290.0134 520.5498 L1285.0134 523.5498 L1280.0134 520.5498 Z" clip-path="url(#clipPath2)" stroke="none"/>
      <path fill="none" d="M1364.5002 560.0736 L1526.8091 560.0736 L1526.8091 483.282" clip-path="url(#clipPath2)"/>
      <path d="M1526.8091 475.282 L1521.8091 487.282 L1526.8091 484.282 L1531.8091 487.282 Z" clip-path="url(#clipPath2)" stroke="none"/>
      <text x="1371.5134" xml:space="preserve" y="564.7875" clip-path="url(#clipPath2)" font-family="sans-serif" stroke="none">No</text>
      <path fill="none" d="M1285.0134 378.8376 L1285.0134 396.1367" clip-path="url(#clipPath2)"/>
      <path d="M1285.0134 404.1367 L1290.0134 392.1367 L1285.0134 395.1367 L1280.0134 392.1367 Z" clip-path="url(#clipPath2)" stroke="none"/>
      <path fill="none" d="M1281.8702 434.1087 L1281.8702 451.2389 L1282.8644 451.2389 L1282.8644 451.4863" clip-path="url(#clipPath2)"/>
      <path d="M1282.8644 459.4863 L1287.8644 447.4863 L1282.8644 450.4863 L1277.8644 447.4863 Z" clip-path="url(#clipPath2)" stroke="none"/>
      <path fill="none" d="M1118.1483 331.7352 L1118.1483 363.7982 L1170.4822 363.7982" clip-path="url(#clipPath2)"/>
      <path d="M1178.4822 363.7982 L1166.4822 358.7982 L1169.4822 363.7982 L1166.4822 368.7982 Z" clip-path="url(#clipPath2)" stroke="none"/>
      <path fill="none" d="M1285.0134 99.3805 L1285.0134 111.2071" clip-path="url(#clipPath2)"/>
      <path d="M1285.0134 119.2071 L1290.0134 107.2071 L1285.0134 110.2071 L1280.0134 107.2071 Z" clip-path="url(#clipPath2)" stroke="none"/>
      <path fill="none" d="M1285.0134 53.2098 L1285.0134 66.9075" clip-path="url(#clipPath2)"/>
      <path d="M1285.0134 74.9075 L1290.0134 62.9075 L1285.0134 65.9075 L1280.0134 62.9075 Z" clip-path="url(#clipPath2)" stroke="none"/>
      <path fill="none" d="M1285.0134 235.9303 L1285.0134 249.6175" clip-path="url(#clipPath2)"/>
      <path d="M1285.0134 257.6175 L1290.0134 245.6175 L1285.0134 248.6175 L1280.0134 245.6175 Z" clip-path="url(#clipPath2)" stroke="none"/>
      <path fill="none" d="M1526.8091 339.8189 L1526.8091 285.1199 L1358.0374 285.1199" clip-path="url(#clipPath2)"/>
      <path d="M1350.0374 285.1199 L1362.0374 290.1199 L1359.0374 285.1199 L1362.0374 280.1199 Z" clip-path="url(#clipPath2)" stroke="none"/>
      <path fill="none" d="M1220.0355 285.1199 L1118.1483 285.1199 L1118.1483 293.6771" clip-path="url(#clipPath2)"/>
      <path d="M1118.1483 301.6771 L1123.1483 289.6771 L1118.1483 292.6771 L1113.1483 289.6771 Z" clip-path="url(#clipPath2)" stroke="none"/>
      <text x="1182.4342" xml:space="preserve" y="289.8338" clip-path="url(#clipPath2)" font-family="sans-serif" stroke="none">Si</text>
      <path fill="none" d="M1285.0134 312.5882 L1285.0134 340.8203" clip-path="url(#clipPath2)"/>
      <path d="M1285.0134 348.8203 L1290.0134 336.8203 L1285.0134 339.8203 L1280.0134 336.8203 Z" clip-path="url(#clipPath2)" stroke="none"/>
      <text x="1277.3435" xml:space="preserve" y="331.6844" clip-path="url(#clipPath2)" font-family="sans-serif" stroke="none">No</text>
      <path fill="none" d="M1205.5403 560.0736 L1160.5916 560.0736" clip-path="url(#clipPath2)"/>
      <path d="M1152.5916 560.0736 L1164.5916 565.0736 L1161.5916 560.0736 L1164.5916 555.0736 Z" clip-path="url(#clipPath2)" stroke="none"/>
      <text x="1187.8435" xml:space="preserve" y="564.7875" clip-path="url(#clipPath2)" font-family="sans-serif" stroke="none">Si</text>
      <path fill="none" d="M1022.5979 560.0736 L971.9844 560.0736 L971.9844 223.7126 L1207.6595 223.7126" clip-path="url(#clipPath2)"/>
      <path d="M1215.6595 223.7126 L1203.6595 218.7126 L1206.6595 223.7126 L1203.6595 228.7126 Z" clip-path="url(#clipPath2)" stroke="none"/>
      <text x="1000.2679" xml:space="preserve" y="564.7875" clip-path="url(#clipPath2)" font-family="sans-serif" stroke="none">No</text>
      <path fill="none" d="M1087.437 587.4619 L1087.2318 620.3794" clip-path="url(#clipPath2)"/>
      <path d="M1087.182 628.3792 L1092.2566 616.4106 L1087.238 619.3794 L1082.2568 616.3483 Z" clip-path="url(#clipPath2)" stroke="none"/>
      <text x="1082.012" xml:space="preserve" y="606.6381" clip-path="url(#clipPath2)" font-family="sans-serif" stroke="none">Si</text>
      <path fill="none" d="M1364.5297 724.2425 L1649.9418 724.2425 L1649.9418 223.7126 L1362.373 223.7126" clip-path="url(#clipPath2)"/>
      <path d="M1354.373 223.7126 L1366.373 228.7126 L1363.373 223.7126 L1366.373 218.7126 Z" clip-path="url(#clipPath2)" stroke="none"/>
      <text x="1371.5134" xml:space="preserve" y="728.9564" clip-path="url(#clipPath2)" font-family="sans-serif" stroke="none">No</text>
      <path fill="none" d="M1285.0134 751.7424 L1285.0134 780.4307" clip-path="url(#clipPath2)"/>
      <path d="M1285.0134 788.4307 L1290.0134 776.4307 L1285.0134 779.4307 L1280.0134 776.4307 Z" clip-path="url(#clipPath2)" stroke="none"/>
      <text x="1279.6785" xml:space="preserve" y="770.8069" clip-path="url(#clipPath2)" font-family="sans-serif" stroke="none">Si</text>
      <path fill="none" d="M1285.0134 818.4386 L1285.0134 833.6724" clip-path="url(#clipPath2)"/>
      <path d="M1285.0134 841.6724 L1290.0134 829.6724 L1285.0134 832.6724 L1280.0134 829.6724 Z" clip-path="url(#clipPath2)" stroke="none"/>
      <path fill="none" d="M1364.4707 869.1665 L1669.9418 869.1665 L1669.9418 131.4538 L1352.1718 131.4538" clip-path="url(#clipPath2)"/>
      <path d="M1344.1718 131.4538 L1356.1718 136.4538 L1353.1718 131.4538 L1356.1718 126.4538 Z" clip-path="url(#clipPath2)" stroke="none"/>
      <text x="1371.5134" xml:space="preserve" y="873.8804" clip-path="url(#clipPath2)" font-family="sans-serif" stroke="none">No</text>
      <path fill="none" d="M1205.4952 869.1665 L1117.528 869.1665" clip-path="url(#clipPath2)"/>
      <path d="M1109.528 869.1665 L1121.528 874.1665 L1118.528 869.1665 L1121.528 864.1665 Z" clip-path="url(#clipPath2)" stroke="none"/>
      <text x="1187.8435" xml:space="preserve" y="873.8804" clip-path="url(#clipPath2)" font-family="sans-serif" stroke="none">Si</text>
      <path fill="none" d="M1172.4548 648.4064 L1228.511 648.4064" clip-path="url(#clipPath2)"/>
      <path d="M1236.511 648.4064 L1224.511 643.4064 L1227.511 648.4064 L1224.511 653.4064 Z" clip-path="url(#clipPath2)" stroke="none"/>
      <path fill="none" d="M1285.0134 666.2916 L1285.0134 688.7667" clip-path="url(#clipPath2)"/>
      <path d="M1285.0134 696.7667 L1290.0134 684.7667 L1285.0134 687.7667 L1280.0134 684.7667 Z" clip-path="url(#clipPath2)" stroke="none"/>
      <path fill="none" d="M1285.0134 -39.0489 L1285.0134 -25.3512" clip-path="url(#clipPath2)"/>
      <path d="M1285.0134 -17.3512 L1290.0134 -29.3512 L1285.0134 -26.3512 L1280.0134 -29.3512 Z" clip-path="url(#clipPath2)" stroke="none"/>
      <path fill="none" d="M1285.0134 7.0804 L1285.0134 20.7781" clip-path="url(#clipPath2)"/>
      <path d="M1285.0134 28.7781 L1290.0134 16.7781 L1285.0134 19.7781 L1280.0134 16.7781 Z" clip-path="url(#clipPath2)" stroke="none"/>
    </g>
  </g>
</svg>
