<?xml version="1.0" encoding="UTF-8"?><svg xmlns="http://www.w3.org/2000/svg" xmlns:xlink="http://www.w3.org/1999/xlink" fill-opacity="1" color-rendering="auto" color-interpolation="auto" text-rendering="auto" stroke="black" stroke-linecap="square" width="684" stroke-miterlimit="10" shape-rendering="auto" stroke-opacity="1" fill="black" stroke-dasharray="none" font-weight="normal" stroke-width="1" height="731" font-family="'Dialog'" font-style="normal" stroke-linejoin="miter" font-size="12px" stroke-dashoffset="0" image-rendering="auto">
  <!--Generated by ySVG 2.6-->
  <defs id="genericDefs"/>
  <g>
    <defs id="defs1">
      <linearGradient x1="310.5768" gradientUnits="userSpaceOnUse" x2="390.5768" y1="-63.7442" y2="-35.7442" id="linearGradient1" spreadMethod="reflect">
        <stop stop-opacity="1" stop-color="rgb(255,179,179)" offset="0%"/>
        <stop stop-opacity="1" stop-color="rgb(255,179,179)" offset="100%"/>
      </linearGradient>
      <linearGradient x1="10.4887" gradientUnits="userSpaceOnUse" x2="90.4887" y1="608.4373" y2="636.4373" id="linearGradient2" spreadMethod="reflect">
        <stop stop-opacity="1" stop-color="rgb(255,179,179)" offset="0%"/>
        <stop stop-opacity="1" stop-color="rgb(255,179,179)" offset="100%"/>
      </linearGradient>
      <linearGradient x1="129.913" gradientUnits="userSpaceOnUse" x2="259.9131" y1="451.1327" y2="506.1327" id="linearGradient3" spreadMethod="reflect">
        <stop stop-opacity="1" stop-color="rgb(179,255,179)" offset="0%"/>
        <stop stop-opacity="1" stop-color="rgb(179,255,179)" offset="100%"/>
      </linearGradient>
      <linearGradient x1="223.5768" gradientUnits="userSpaceOnUse" x2="477.5768" y1="-10.7442" y2="17.2558" id="linearGradient4" spreadMethod="reflect">
        <stop stop-opacity="1" stop-color="rgb(255,217,179)" offset="0%"/>
        <stop stop-opacity="1" stop-color="rgb(255,217,179)" offset="100%"/>
      </linearGradient>
      <linearGradient x1="123.5768" gradientUnits="userSpaceOnUse" x2="577.5768" y1="161.0038" y2="201.0038" id="linearGradient5" spreadMethod="reflect">
        <stop stop-opacity="1" stop-color="rgb(179,179,255)" offset="0%"/>
        <stop stop-opacity="1" stop-color="rgb(179,179,255)" offset="100%"/>
      </linearGradient>
      <linearGradient x1="223.5768" gradientUnits="userSpaceOnUse" x2="477.5768" y1="97.6397" y2="137.6397" id="linearGradient6" spreadMethod="reflect">
        <stop stop-opacity="1" stop-color="rgb(255,217,179)" offset="0%"/>
        <stop stop-opacity="1" stop-color="rgb(255,217,179)" offset="100%"/>
      </linearGradient>
      <linearGradient x1="206.4277" gradientUnits="userSpaceOnUse" x2="494.7259" y1="224.368" y2="264.368" id="linearGradient7" spreadMethod="reflect">
        <stop stop-opacity="1" stop-color="rgb(255,217,179)" offset="0%"/>
        <stop stop-opacity="1" stop-color="rgb(255,217,179)" offset="100%"/>
      </linearGradient>
      <linearGradient x1="285.5768" gradientUnits="userSpaceOnUse" x2="415.5768" y1="339.0963" y2="394.0963" id="linearGradient8" spreadMethod="reflect">
        <stop stop-opacity="1" stop-color="rgb(179,255,179)" offset="0%"/>
        <stop stop-opacity="1" stop-color="rgb(179,255,179)" offset="100%"/>
      </linearGradient>
      <linearGradient x1="103.8889" gradientUnits="userSpaceOnUse" x2="285.9372" y1="395.5963" y2="423.5963" id="linearGradient9" spreadMethod="reflect">
        <stop stop-opacity="1" stop-color="rgb(255,217,179)" offset="0%"/>
        <stop stop-opacity="1" stop-color="rgb(255,217,179)" offset="100%"/>
      </linearGradient>
      <linearGradient x1="212.9518" gradientUnits="userSpaceOnUse" x2="488.2018" y1="43.4477" y2="71.4477" id="linearGradient10" spreadMethod="reflect">
        <stop stop-opacity="1" stop-color="rgb(179,179,255)" offset="0%"/>
        <stop stop-opacity="1" stop-color="rgb(179,179,255)" offset="100%"/>
      </linearGradient>
      <linearGradient x1="-31.587" gradientUnits="userSpaceOnUse" x2="132.5644" y1="504.5401" y2="532.5401" id="linearGradient11" spreadMethod="reflect">
        <stop stop-opacity="1" stop-color="rgb(255,217,179)" offset="0%"/>
        <stop stop-opacity="1" stop-color="rgb(255,217,179)" offset="100%"/>
      </linearGradient>
      <linearGradient x1="237.5768" gradientUnits="userSpaceOnUse" x2="463.5768" y1="287.7321" y2="315.7321" id="linearGradient12" spreadMethod="reflect">
        <stop stop-opacity="1" stop-color="rgb(255,217,179)" offset="0%"/>
        <stop stop-opacity="1" stop-color="rgb(255,217,179)" offset="100%"/>
      </linearGradient>
      <linearGradient x1="-31.587" gradientUnits="userSpaceOnUse" x2="132.5644" y1="550.4373" y2="578.4373" id="linearGradient13" spreadMethod="reflect">
        <stop stop-opacity="1" stop-color="rgb(255,217,179)" offset="0%"/>
        <stop stop-opacity="1" stop-color="rgb(255,217,179)" offset="100%"/>
      </linearGradient>
      <clipPath clipPathUnits="userSpaceOnUse" id="clipPath1">
        <path d="M0 0 L684 0 L684 731 L0 731 L0 0 Z"/>
      </clipPath>
      <clipPath clipPathUnits="userSpaceOnUse" id="clipPath2">
        <path d="M-47 -79 L637 -79 L637 652 L-47 652 L-47 -79 Z"/>
      </clipPath>
    </defs>
    <g fill="white" text-rendering="geometricPrecision" shape-rendering="geometricPrecision" transform="translate(47,79)" stroke="white">
      <rect x="-47" width="684" height="731" y="-79" clip-path="url(#clipPath2)" stroke="none"/>
    </g>
    <g fill="url(#linearGradient1)" text-rendering="geometricPrecision" shape-rendering="geometricPrecision" transform="matrix(1,0,0,1,47,79)" stroke="url(#linearGradient1)">
      <rect x="310.5768" y="-63.7442" clip-path="url(#clipPath2)" width="80" rx="14" ry="14" height="28" stroke="none"/>
    </g>
    <g text-rendering="geometricPrecision" stroke-miterlimit="1.45" shape-rendering="geometricPrecision" transform="matrix(1,0,0,1,47,79)" stroke-linecap="butt">
      <rect x="310.5768" y="-63.7442" clip-path="url(#clipPath2)" fill="none" width="80" rx="14" ry="14" height="28"/>
      <text x="336.5699" xml:space="preserve" y="-45.0304" clip-path="url(#clipPath2)" font-family="sans-serif" stroke="none">Inicio</text>
    </g>
    <g fill="url(#linearGradient2)" text-rendering="geometricPrecision" shape-rendering="geometricPrecision" transform="matrix(1,0,0,1,47,79)" stroke="url(#linearGradient2)">
      <rect x="10.4887" y="608.4372" clip-path="url(#clipPath2)" width="80" rx="14" ry="14" height="28" stroke="none"/>
    </g>
    <g text-rendering="geometricPrecision" stroke-miterlimit="1.45" shape-rendering="geometricPrecision" transform="matrix(1,0,0,1,47,79)" stroke-linecap="butt">
      <rect x="10.4887" y="608.4372" clip-path="url(#clipPath2)" fill="none" width="80" rx="14" ry="14" height="28"/>
      <text x="42.1538" xml:space="preserve" y="627.1511" clip-path="url(#clipPath2)" font-family="sans-serif" stroke="none">Fin</text>
    </g>
    <g fill="url(#linearGradient3)" text-rendering="geometricPrecision" shape-rendering="geometricPrecision" transform="matrix(1,0,0,1,47,79)" stroke="url(#linearGradient3)">
      <path d="M194.913 451.1327 L259.9131 478.6327 L194.913 506.1327 L129.913 478.6327 Z" stroke="none" clip-path="url(#clipPath2)"/>
    </g>
    <g text-rendering="geometricPrecision" stroke-miterlimit="1.45" shape-rendering="geometricPrecision" transform="matrix(1,0,0,1,47,79)" stroke-linecap="butt">
      <path fill="none" d="M194.913 451.1327 L259.9131 478.6327 L194.913 506.1327 L129.913 478.6327 Z" clip-path="url(#clipPath2)"/>
      <text x="160.2226" xml:space="preserve" y="475.9959" clip-path="url(#clipPath2)" font-family="sans-serif" stroke="none">¿Se aprueba</text>
      <text x="172.2343" xml:space="preserve" y="490.6971" clip-path="url(#clipPath2)" font-family="sans-serif" stroke="none">el perfil?</text>
    </g>
    <g fill="url(#linearGradient4)" text-rendering="geometricPrecision" shape-rendering="geometricPrecision" transform="matrix(1,0,0,1,47,79)" stroke="url(#linearGradient4)">
      <path d="M223.5768 -10.7442 L477.5768 -10.7442 L477.5768 17.2558 L223.5768 17.2558 Z" stroke="none" clip-path="url(#clipPath2)"/>
    </g>
    <g text-rendering="geometricPrecision" stroke-miterlimit="1.45" shape-rendering="geometricPrecision" transform="matrix(1,0,0,1,47,79)" stroke-linecap="butt">
      <path fill="none" d="M223.5768 -10.7442 L477.5768 -10.7442 L477.5768 17.2558 L223.5768 17.2558 Z" clip-path="url(#clipPath2)"/>
      <text x="252.1862" xml:space="preserve" y="7.9696" clip-path="url(#clipPath2)" font-family="sans-serif" stroke="none">Búsqueda de problemas por resolver</text>
    </g>
    <g fill="url(#linearGradient5)" text-rendering="geometricPrecision" shape-rendering="geometricPrecision" transform="matrix(1,0,0,1,47,79)" stroke="url(#linearGradient5)">
      <path d="M133.7768 161.0038 L577.5768 161.0038 L567.3768 201.0038 L123.5768 201.0038 Z" stroke="none" clip-path="url(#clipPath2)"/>
    </g>
    <g text-rendering="geometricPrecision" stroke-miterlimit="1.45" shape-rendering="geometricPrecision" transform="matrix(1,0,0,1,47,79)" stroke-linecap="butt">
      <path fill="none" d="M133.7768 161.0038 L577.5768 161.0038 L567.3768 201.0038 L123.5768 201.0038 Z" clip-path="url(#clipPath2)"/>
      <text x="171.4733" xml:space="preserve" y="178.3671" clip-path="url(#clipPath2)" font-family="sans-serif" stroke="none">Recopilación de información, datos, disponibilidad de instrumentos,</text>
      <text x="224.5065" xml:space="preserve" y="193.0683" clip-path="url(#clipPath2)" font-family="sans-serif" stroke="none"> herramientas para abordar y atender porblema</text>
    </g>
    <g fill="url(#linearGradient6)" text-rendering="geometricPrecision" shape-rendering="geometricPrecision" transform="matrix(1,0,0,1,47,79)" stroke="url(#linearGradient6)">
      <path d="M223.5768 97.6397 L477.5768 97.6397 L477.5768 137.6397 L223.5768 137.6397 Z" stroke="none" clip-path="url(#clipPath2)"/>
    </g>
    <g text-rendering="geometricPrecision" stroke-miterlimit="1.45" shape-rendering="geometricPrecision" transform="matrix(1,0,0,1,47,79)" stroke-linecap="butt">
      <path fill="none" d="M223.5768 97.6397 L477.5768 97.6397 L477.5768 137.6397 L223.5768 137.6397 Z" clip-path="url(#clipPath2)"/>
      <text x="281.1989" xml:space="preserve" y="122.3536" clip-path="url(#clipPath2)" font-family="sans-serif" stroke="none">Selección de un problema</text>
    </g>
    <g fill="url(#linearGradient7)" text-rendering="geometricPrecision" shape-rendering="geometricPrecision" transform="matrix(1,0,0,1,47,79)" stroke="url(#linearGradient7)">
      <path d="M206.4277 224.368 L494.7259 224.368 L494.7259 264.368 L206.4277 264.368 Z" stroke="none" clip-path="url(#clipPath2)"/>
    </g>
    <g text-rendering="geometricPrecision" stroke-miterlimit="1.45" shape-rendering="geometricPrecision" transform="matrix(1,0,0,1,47,79)" stroke-linecap="butt">
      <path fill="none" d="M206.4277 224.368 L494.7259 224.368 L494.7259 264.368 L206.4277 264.368 Z" clip-path="url(#clipPath2)"/>
      <text x="230.8492" xml:space="preserve" y="249.0818" clip-path="url(#clipPath2)" font-family="sans-serif" stroke="none">Síntesis y análisis de la información recogida</text>
    </g>
    <g fill="url(#linearGradient8)" text-rendering="geometricPrecision" shape-rendering="geometricPrecision" transform="matrix(1,0,0,1,47,79)" stroke="url(#linearGradient8)">
      <path d="M350.5768 339.0963 L415.5768 366.5963 L350.5768 394.0963 L285.5768 366.5963 Z" stroke="none" clip-path="url(#clipPath2)"/>
    </g>
    <g text-rendering="geometricPrecision" stroke-miterlimit="1.45" shape-rendering="geometricPrecision" transform="matrix(1,0,0,1,47,79)" stroke-linecap="butt">
      <path fill="none" d="M350.5768 339.0963 L415.5768 366.5963 L350.5768 394.0963 L285.5768 366.5963 Z" clip-path="url(#clipPath2)"/>
      <text x="319.8942" xml:space="preserve" y="363.9596" clip-path="url(#clipPath2)" font-family="sans-serif" stroke="none">Es viable el</text>
      <text x="324.2272" xml:space="preserve" y="378.6607" clip-path="url(#clipPath2)" font-family="sans-serif" stroke="none">proyecto?</text>
    </g>
    <g fill="url(#linearGradient9)" text-rendering="geometricPrecision" shape-rendering="geometricPrecision" transform="matrix(1,0,0,1,47,79)" stroke="url(#linearGradient9)">
      <path d="M103.8889 395.5963 L285.9372 395.5963 L285.9372 423.5963 L103.8889 423.5963 Z" stroke="none" clip-path="url(#clipPath2)"/>
    </g>
    <g text-rendering="geometricPrecision" stroke-miterlimit="1.45" shape-rendering="geometricPrecision" transform="matrix(1,0,0,1,47,79)" stroke-linecap="butt">
      <path fill="none" d="M103.8889 395.5963 L285.9372 395.5963 L285.9372 423.5963 L103.8889 423.5963 Z" clip-path="url(#clipPath2)"/>
      <text x="121.208" xml:space="preserve" y="414.3102" clip-path="url(#clipPath2)" font-family="sans-serif" stroke="none">Presentar perfil de proyecto</text>
    </g>
    <g fill="url(#linearGradient10)" text-rendering="geometricPrecision" shape-rendering="geometricPrecision" transform="matrix(1,0,0,1,47,79)" stroke="url(#linearGradient10)">
      <path d="M220.0918 43.4477 L488.2018 43.4477 L481.0618 71.4477 L212.9518 71.4477 Z" stroke="none" clip-path="url(#clipPath2)"/>
    </g>
    <g text-rendering="geometricPrecision" stroke-miterlimit="1.45" shape-rendering="geometricPrecision" transform="matrix(1,0,0,1,47,79)" stroke-linecap="butt">
      <path fill="none" d="M220.0918 43.4477 L488.2018 43.4477 L481.0618 71.4477 L212.9518 71.4477 Z" clip-path="url(#clipPath2)"/>
      <text x="255.192" xml:space="preserve" y="62.1616" clip-path="url(#clipPath2)" font-family="sans-serif" stroke="none">Registro de problemas identificados</text>
    </g>
    <g fill="url(#linearGradient11)" text-rendering="geometricPrecision" shape-rendering="geometricPrecision" transform="matrix(1,0,0,1,47,79)" stroke="url(#linearGradient11)">
      <path d="M-31.587 504.5401 L132.5644 504.5401 L132.5644 532.5401 L-31.587 532.5401 Z" stroke="none" clip-path="url(#clipPath2)"/>
    </g>
    <g text-rendering="geometricPrecision" stroke-miterlimit="1.45" shape-rendering="geometricPrecision" transform="matrix(1,0,0,1,47,79)" stroke-linecap="butt">
      <path fill="none" d="M-31.587 504.5401 L132.5644 504.5401 L132.5644 532.5401 L-31.587 532.5401 Z" clip-path="url(#clipPath2)"/>
      <text x="-9.8804" xml:space="preserve" y="523.254" clip-path="url(#clipPath2)" font-family="sans-serif" stroke="none">Ejecución del proyecto</text>
    </g>
    <g fill="url(#linearGradient12)" text-rendering="geometricPrecision" shape-rendering="geometricPrecision" transform="matrix(1,0,0,1,47,79)" stroke="url(#linearGradient12)">
      <path d="M237.5768 287.7321 L463.5768 287.7321 L463.5768 315.7321 L237.5768 315.7321 Z" stroke="none" clip-path="url(#clipPath2)"/>
    </g>
    <g text-rendering="geometricPrecision" stroke-miterlimit="1.45" shape-rendering="geometricPrecision" transform="matrix(1,0,0,1,47,79)" stroke-linecap="butt">
      <path fill="none" d="M237.5768 287.7321 L463.5768 287.7321 L463.5768 315.7321 L237.5768 315.7321 Z" clip-path="url(#clipPath2)"/>
      <text x="263.1989" xml:space="preserve" y="306.446" clip-path="url(#clipPath2)" font-family="sans-serif" stroke="none">Inicio borrador perfil del proyecto</text>
    </g>
    <g fill="url(#linearGradient13)" text-rendering="geometricPrecision" shape-rendering="geometricPrecision" transform="matrix(1,0,0,1,47,79)" stroke="url(#linearGradient13)">
      <path d="M-31.587 550.4373 L132.5644 550.4373 L132.5644 578.4373 L-31.587 578.4373 Z" stroke="none" clip-path="url(#clipPath2)"/>
    </g>
    <g text-rendering="geometricPrecision" stroke-miterlimit="1.45" shape-rendering="geometricPrecision" transform="matrix(1,0,0,1,47,79)" stroke-linecap="butt">
      <path fill="none" d="M-31.587 550.4373 L132.5644 550.4373 L132.5644 578.4373 L-31.587 578.4373 Z" clip-path="url(#clipPath2)"/>
      <text x="-6.2124" xml:space="preserve" y="569.1511" clip-path="url(#clipPath2)" font-family="sans-serif" stroke="none">Defensa del proyecto</text>
    </g>
    <g text-rendering="geometricPrecision" stroke-miterlimit="1.45" shape-rendering="geometricPrecision" transform="matrix(1,0,0,1,47,79)" stroke-linecap="butt">
      <path fill="none" d="M350.5768 -35.7438 L350.5768 -18.7216" clip-path="url(#clipPath2)"/>
    </g>
    <g text-rendering="geometricPrecision" stroke-miterlimit="1.45" shape-rendering="geometricPrecision" transform="matrix(1,0,0,1,47,79)" stroke-linecap="butt">
      <path d="M350.5768 -10.7216 L355.5768 -22.7216 L350.5768 -19.7216 L345.5768 -22.7216 Z" stroke="none" clip-path="url(#clipPath2)"/>
      <path fill="none" d="M259.9131 478.6327 L621.5142 478.6327 L621.5142 117.6397 L485.5456 117.6397" clip-path="url(#clipPath2)"/>
      <path d="M477.5456 117.6397 L489.5456 122.6397 L486.5456 117.6397 L489.5456 112.6397 Z" clip-path="url(#clipPath2)" stroke="none"/>
      <text x="266.9131" xml:space="preserve" y="483.3465" clip-path="url(#clipPath2)" font-family="sans-serif" stroke="none">No</text>
      <path fill="none" d="M350.5768 137.6576 L350.5768 152.9816" clip-path="url(#clipPath2)"/>
      <path d="M350.5768 160.9816 L355.5768 148.9816 L350.5768 151.9816 L345.5768 148.9816 Z" clip-path="url(#clipPath2)" stroke="none"/>
      <path fill="none" d="M350.5768 200.97 L350.5768 216.3596" clip-path="url(#clipPath2)"/>
      <path d="M350.5768 224.3596 L355.5768 212.3596 L350.5768 215.3596 L345.5768 212.3596 Z" clip-path="url(#clipPath2)" stroke="none"/>
      <path fill="none" d="M415.5687 366.5963 L621.5142 366.5963 L621.5142 117.6397 L485.6112 117.6397" clip-path="url(#clipPath2)"/>
      <path d="M477.6112 117.6397 L489.6112 122.6397 L486.6112 117.6397 L489.6112 112.6397 Z" clip-path="url(#clipPath2)" stroke="none"/>
      <text x="422.5768" xml:space="preserve" y="371.3102" clip-path="url(#clipPath2)" font-family="sans-serif" stroke="none">No</text>
      <path fill="none" d="M285.5522 366.5963 L194.913 366.5963 L194.913 387.6129" clip-path="url(#clipPath2)"/>
      <path d="M194.913 395.6129 L199.913 383.6129 L194.913 386.6129 L189.913 383.6129 Z" clip-path="url(#clipPath2)" stroke="none"/>
      <text x="267.9069" xml:space="preserve" y="371.3102" clip-path="url(#clipPath2)" font-family="sans-serif" stroke="none">Si</text>
      <path fill="none" d="M194.913 423.6182 L194.913 443.1009" clip-path="url(#clipPath2)"/>
      <path d="M194.913 451.1009 L199.913 439.1009 L194.913 442.1009 L189.913 439.1009 Z" clip-path="url(#clipPath2)" stroke="none"/>
      <path fill="none" d="M350.5768 17.2536 L350.5768 35.4347" clip-path="url(#clipPath2)"/>
      <path d="M350.5768 43.4347 L355.5768 31.4347 L350.5768 34.4347 L345.5768 31.4347 Z" clip-path="url(#clipPath2)" stroke="none"/>
      <path fill="none" d="M350.5768 71.467 L350.5768 89.6646" clip-path="url(#clipPath2)"/>
      <path d="M350.5768 97.6646 L355.5768 85.6646 L350.5768 88.6646 L345.5768 85.6646 Z" clip-path="url(#clipPath2)" stroke="none"/>
      <path fill="none" d="M129.9292 478.6327 L50.4887 478.6327 L50.4887 496.5491" clip-path="url(#clipPath2)"/>
      <path d="M50.4887 504.5491 L55.4887 492.5491 L50.4887 495.5491 L45.4887 492.5491 Z" clip-path="url(#clipPath2)" stroke="none"/>
      <text x="112.2431" xml:space="preserve" y="483.3465" clip-path="url(#clipPath2)" font-family="sans-serif" stroke="none">Si</text>
      <path fill="none" d="M350.5768 264.395 L350.5768 279.7672" clip-path="url(#clipPath2)"/>
      <path d="M350.5768 287.7672 L355.5768 275.7672 L350.5768 278.7672 L345.5768 275.7672 Z" clip-path="url(#clipPath2)" stroke="none"/>
      <path fill="none" d="M350.5768 315.7628 L350.5768 334.1642 L350.368 334.1642 L350.368 339.2" clip-path="url(#clipPath2)"/>
      <path d="M350.368 339.2 L355.368 327.2 L350.368 330.2 L345.368 327.2 Z" clip-path="url(#clipPath2)" stroke="none"/>
      <path fill="none" d="M50.4887 532.5692 L50.4887 542.4639" clip-path="url(#clipPath2)"/>
      <path d="M50.4887 550.4639 L55.4887 538.4639 L50.4887 541.4639 L45.4887 538.4639 Z" clip-path="url(#clipPath2)" stroke="none"/>
      <path fill="none" d="M50.4887 578.4558 L50.4887 600.4783" clip-path="url(#clipPath2)"/>
      <path d="M50.4887 608.4783 L55.4887 596.4783 L50.4887 599.4783 L45.4887 596.4783 Z" clip-path="url(#clipPath2)" stroke="none"/>
    </g>
  </g>
</svg>
